<mxfile host="app.diagrams.net" agent="Mozilla/5.0 (X11; Linux x86_64; rv:128.0) Gecko/20100101 Firefox/128.0" version="26.2.4">
  <diagram name="Página-1" id="XrHqdnXLgzjqC8HhnpXq">
    <mxGraphModel grid="0" page="0" gridSize="10" guides="1" tooltips="1" connect="1" arrows="1" fold="1" pageScale="1" pageWidth="827" pageHeight="1169" math="0" shadow="0">
      <root>
        <mxCell id="0" />
        <mxCell id="1" parent="0" />
        <mxCell id="KqZBCw7qDT3EIS-g3Wz3-1" value="Bazar" style="shape=table;startSize=30;container=1;collapsible=1;childLayout=tableLayout;fixedRows=1;rowLines=0;fontStyle=1;align=center;resizeLast=1;html=1;strokeColor=#6c8ebf;fillColor=#dae8fc;" vertex="1" parent="1">
          <mxGeometry x="-1200" y="-360" width="220" height="330" as="geometry">
            <mxRectangle x="220" y="140" width="70" height="30" as="alternateBounds" />
          </mxGeometry>
        </mxCell>
        <mxCell id="KqZBCw7qDT3EIS-g3Wz3-2" value="" style="shape=tableRow;horizontal=0;startSize=0;swimlaneHead=0;swimlaneBody=0;fillColor=none;collapsible=0;dropTarget=0;points=[[0,0.5],[1,0.5]];portConstraint=eastwest;top=0;left=0;right=0;bottom=1;strokeColor=#000000;" vertex="1" parent="KqZBCw7qDT3EIS-g3Wz3-1">
          <mxGeometry y="30" width="220" height="30" as="geometry" />
        </mxCell>
        <mxCell id="KqZBCw7qDT3EIS-g3Wz3-3" value="PK" style="shape=partialRectangle;connectable=0;fillColor=none;top=0;left=0;bottom=0;right=0;fontStyle=1;overflow=hidden;whiteSpace=wrap;html=1;strokeColor=#000000;" vertex="1" parent="KqZBCw7qDT3EIS-g3Wz3-2">
          <mxGeometry width="30" height="30" as="geometry">
            <mxRectangle width="30" height="30" as="alternateBounds" />
          </mxGeometry>
        </mxCell>
        <mxCell id="KqZBCw7qDT3EIS-g3Wz3-4" value="IdBazar: serial4" style="shape=partialRectangle;connectable=0;fillColor=none;top=0;left=0;bottom=0;right=0;align=left;spacingLeft=6;fontStyle=5;overflow=hidden;whiteSpace=wrap;html=1;strokeColor=#000000;" vertex="1" parent="KqZBCw7qDT3EIS-g3Wz3-2">
          <mxGeometry x="30" width="190" height="30" as="geometry">
            <mxRectangle width="190" height="30" as="alternateBounds" />
          </mxGeometry>
        </mxCell>
        <mxCell id="KqZBCw7qDT3EIS-g3Wz3-5" value="" style="shape=tableRow;horizontal=0;startSize=0;swimlaneHead=0;swimlaneBody=0;fillColor=none;collapsible=0;dropTarget=0;points=[[0,0.5],[1,0.5]];portConstraint=eastwest;top=0;left=0;right=0;bottom=0;strokeColor=#000000;" vertex="1" parent="KqZBCw7qDT3EIS-g3Wz3-1">
          <mxGeometry y="60" width="220" height="30" as="geometry" />
        </mxCell>
        <mxCell id="KqZBCw7qDT3EIS-g3Wz3-6" value="" style="shape=partialRectangle;connectable=0;fillColor=none;top=0;left=0;bottom=0;right=0;editable=1;overflow=hidden;whiteSpace=wrap;html=1;strokeColor=#000000;" vertex="1" parent="KqZBCw7qDT3EIS-g3Wz3-5">
          <mxGeometry width="30" height="30" as="geometry">
            <mxRectangle width="30" height="30" as="alternateBounds" />
          </mxGeometry>
        </mxCell>
        <mxCell id="KqZBCw7qDT3EIS-g3Wz3-7" value="NombreBazar: varchar(100)" style="shape=partialRectangle;connectable=0;fillColor=none;top=0;left=0;bottom=0;right=0;align=left;spacingLeft=6;overflow=hidden;whiteSpace=wrap;html=1;strokeColor=#000000;" vertex="1" parent="KqZBCw7qDT3EIS-g3Wz3-5">
          <mxGeometry x="30" width="190" height="30" as="geometry">
            <mxRectangle width="190" height="30" as="alternateBounds" />
          </mxGeometry>
        </mxCell>
        <mxCell id="KqZBCw7qDT3EIS-g3Wz3-8" value="" style="shape=tableRow;horizontal=0;startSize=0;swimlaneHead=0;swimlaneBody=0;fillColor=none;collapsible=0;dropTarget=0;points=[[0,0.5],[1,0.5]];portConstraint=eastwest;top=0;left=0;right=0;bottom=0;strokeColor=#000000;" vertex="1" parent="KqZBCw7qDT3EIS-g3Wz3-1">
          <mxGeometry y="90" width="220" height="30" as="geometry" />
        </mxCell>
        <mxCell id="KqZBCw7qDT3EIS-g3Wz3-9" value="" style="shape=partialRectangle;connectable=0;fillColor=none;top=0;left=0;bottom=0;right=0;editable=1;overflow=hidden;whiteSpace=wrap;html=1;strokeColor=#000000;" vertex="1" parent="KqZBCw7qDT3EIS-g3Wz3-8">
          <mxGeometry width="30" height="30" as="geometry">
            <mxRectangle width="30" height="30" as="alternateBounds" />
          </mxGeometry>
        </mxCell>
        <mxCell id="KqZBCw7qDT3EIS-g3Wz3-10" value="Calle: varchar(100)" style="shape=partialRectangle;connectable=0;fillColor=none;top=0;left=0;bottom=0;right=0;align=left;spacingLeft=6;overflow=hidden;whiteSpace=wrap;html=1;strokeColor=#000000;" vertex="1" parent="KqZBCw7qDT3EIS-g3Wz3-8">
          <mxGeometry x="30" width="190" height="30" as="geometry">
            <mxRectangle width="190" height="30" as="alternateBounds" />
          </mxGeometry>
        </mxCell>
        <mxCell id="KqZBCw7qDT3EIS-g3Wz3-11" value="" style="shape=tableRow;horizontal=0;startSize=0;swimlaneHead=0;swimlaneBody=0;fillColor=none;collapsible=0;dropTarget=0;points=[[0,0.5],[1,0.5]];portConstraint=eastwest;top=0;left=0;right=0;bottom=0;strokeColor=#000000;" vertex="1" parent="KqZBCw7qDT3EIS-g3Wz3-1">
          <mxGeometry y="120" width="220" height="30" as="geometry" />
        </mxCell>
        <mxCell id="KqZBCw7qDT3EIS-g3Wz3-12" value="" style="shape=partialRectangle;connectable=0;fillColor=none;top=0;left=0;bottom=0;right=0;editable=1;overflow=hidden;whiteSpace=wrap;html=1;strokeColor=#000000;" vertex="1" parent="KqZBCw7qDT3EIS-g3Wz3-11">
          <mxGeometry width="30" height="30" as="geometry">
            <mxRectangle width="30" height="30" as="alternateBounds" />
          </mxGeometry>
        </mxCell>
        <mxCell id="KqZBCw7qDT3EIS-g3Wz3-13" value="NúmeroInterior: varchar(50)" style="shape=partialRectangle;connectable=0;fillColor=none;top=0;left=0;bottom=0;right=0;align=left;spacingLeft=6;overflow=hidden;whiteSpace=wrap;html=1;strokeColor=#000000;" vertex="1" parent="KqZBCw7qDT3EIS-g3Wz3-11">
          <mxGeometry x="30" width="190" height="30" as="geometry">
            <mxRectangle width="190" height="30" as="alternateBounds" />
          </mxGeometry>
        </mxCell>
        <mxCell id="KqZBCw7qDT3EIS-g3Wz3-14" value="" style="shape=tableRow;horizontal=0;startSize=0;swimlaneHead=0;swimlaneBody=0;fillColor=none;collapsible=0;dropTarget=0;points=[[0,0.5],[1,0.5]];portConstraint=eastwest;top=0;left=0;right=0;bottom=0;strokeColor=#000000;" vertex="1" parent="KqZBCw7qDT3EIS-g3Wz3-1">
          <mxGeometry y="150" width="220" height="30" as="geometry" />
        </mxCell>
        <mxCell id="KqZBCw7qDT3EIS-g3Wz3-15" value="" style="shape=partialRectangle;connectable=0;fillColor=none;top=0;left=0;bottom=0;right=0;editable=1;overflow=hidden;whiteSpace=wrap;html=1;strokeColor=#000000;" vertex="1" parent="KqZBCw7qDT3EIS-g3Wz3-14">
          <mxGeometry width="30" height="30" as="geometry">
            <mxRectangle width="30" height="30" as="alternateBounds" />
          </mxGeometry>
        </mxCell>
        <mxCell id="KqZBCw7qDT3EIS-g3Wz3-16" value="NúmeroExteriror: varchar(50)" style="shape=partialRectangle;connectable=0;fillColor=none;top=0;left=0;bottom=0;right=0;align=left;spacingLeft=6;overflow=hidden;whiteSpace=wrap;html=1;strokeColor=#000000;" vertex="1" parent="KqZBCw7qDT3EIS-g3Wz3-14">
          <mxGeometry x="30" width="190" height="30" as="geometry">
            <mxRectangle width="190" height="30" as="alternateBounds" />
          </mxGeometry>
        </mxCell>
        <mxCell id="KqZBCw7qDT3EIS-g3Wz3-17" value="" style="shape=tableRow;horizontal=0;startSize=0;swimlaneHead=0;swimlaneBody=0;fillColor=none;collapsible=0;dropTarget=0;points=[[0,0.5],[1,0.5]];portConstraint=eastwest;top=0;left=0;right=0;bottom=0;strokeColor=#000000;" vertex="1" parent="KqZBCw7qDT3EIS-g3Wz3-1">
          <mxGeometry y="180" width="220" height="30" as="geometry" />
        </mxCell>
        <mxCell id="KqZBCw7qDT3EIS-g3Wz3-18" value="" style="shape=partialRectangle;connectable=0;fillColor=none;top=0;left=0;bottom=0;right=0;editable=1;overflow=hidden;whiteSpace=wrap;html=1;strokeColor=#000000;" vertex="1" parent="KqZBCw7qDT3EIS-g3Wz3-17">
          <mxGeometry width="30" height="30" as="geometry">
            <mxRectangle width="30" height="30" as="alternateBounds" />
          </mxGeometry>
        </mxCell>
        <mxCell id="KqZBCw7qDT3EIS-g3Wz3-19" value="Colonia: varchar(100)" style="shape=partialRectangle;connectable=0;fillColor=none;top=0;left=0;bottom=0;right=0;align=left;spacingLeft=6;overflow=hidden;whiteSpace=wrap;html=1;strokeColor=#000000;" vertex="1" parent="KqZBCw7qDT3EIS-g3Wz3-17">
          <mxGeometry x="30" width="190" height="30" as="geometry">
            <mxRectangle width="190" height="30" as="alternateBounds" />
          </mxGeometry>
        </mxCell>
        <mxCell id="KqZBCw7qDT3EIS-g3Wz3-20" value="" style="shape=tableRow;horizontal=0;startSize=0;swimlaneHead=0;swimlaneBody=0;fillColor=none;collapsible=0;dropTarget=0;points=[[0,0.5],[1,0.5]];portConstraint=eastwest;top=0;left=0;right=0;bottom=0;strokeColor=#000000;" vertex="1" parent="KqZBCw7qDT3EIS-g3Wz3-1">
          <mxGeometry y="210" width="220" height="30" as="geometry" />
        </mxCell>
        <mxCell id="KqZBCw7qDT3EIS-g3Wz3-21" value="" style="shape=partialRectangle;connectable=0;fillColor=none;top=0;left=0;bottom=0;right=0;editable=1;overflow=hidden;whiteSpace=wrap;html=1;strokeColor=#000000;" vertex="1" parent="KqZBCw7qDT3EIS-g3Wz3-20">
          <mxGeometry width="30" height="30" as="geometry">
            <mxRectangle width="30" height="30" as="alternateBounds" />
          </mxGeometry>
        </mxCell>
        <mxCell id="KqZBCw7qDT3EIS-g3Wz3-22" value="Estado: : varchar(100)" style="shape=partialRectangle;connectable=0;fillColor=none;top=0;left=0;bottom=0;right=0;align=left;spacingLeft=6;overflow=hidden;whiteSpace=wrap;html=1;strokeColor=#000000;" vertex="1" parent="KqZBCw7qDT3EIS-g3Wz3-20">
          <mxGeometry x="30" width="190" height="30" as="geometry">
            <mxRectangle width="190" height="30" as="alternateBounds" />
          </mxGeometry>
        </mxCell>
        <mxCell id="KqZBCw7qDT3EIS-g3Wz3-23" value="" style="shape=tableRow;horizontal=0;startSize=0;swimlaneHead=0;swimlaneBody=0;fillColor=none;collapsible=0;dropTarget=0;points=[[0,0.5],[1,0.5]];portConstraint=eastwest;top=0;left=0;right=0;bottom=0;strokeColor=#000000;" vertex="1" parent="KqZBCw7qDT3EIS-g3Wz3-1">
          <mxGeometry y="240" width="220" height="30" as="geometry" />
        </mxCell>
        <mxCell id="KqZBCw7qDT3EIS-g3Wz3-24" value="" style="shape=partialRectangle;connectable=0;fillColor=none;top=0;left=0;bottom=0;right=0;editable=1;overflow=hidden;whiteSpace=wrap;html=1;strokeColor=#000000;" vertex="1" parent="KqZBCw7qDT3EIS-g3Wz3-23">
          <mxGeometry width="30" height="30" as="geometry">
            <mxRectangle width="30" height="30" as="alternateBounds" />
          </mxGeometry>
        </mxCell>
        <mxCell id="KqZBCw7qDT3EIS-g3Wz3-25" value="Modalidad: varchar(80)" style="shape=partialRectangle;connectable=0;fillColor=none;top=0;left=0;bottom=0;right=0;align=left;spacingLeft=6;overflow=hidden;whiteSpace=wrap;html=1;strokeColor=#000000;" vertex="1" parent="KqZBCw7qDT3EIS-g3Wz3-23">
          <mxGeometry x="30" width="190" height="30" as="geometry">
            <mxRectangle width="190" height="30" as="alternateBounds" />
          </mxGeometry>
        </mxCell>
        <mxCell id="KqZBCw7qDT3EIS-g3Wz3-26" value="" style="shape=tableRow;horizontal=0;startSize=0;swimlaneHead=0;swimlaneBody=0;fillColor=none;collapsible=0;dropTarget=0;points=[[0,0.5],[1,0.5]];portConstraint=eastwest;top=0;left=0;right=0;bottom=0;strokeColor=#000000;" vertex="1" parent="KqZBCw7qDT3EIS-g3Wz3-1">
          <mxGeometry y="270" width="220" height="30" as="geometry" />
        </mxCell>
        <mxCell id="KqZBCw7qDT3EIS-g3Wz3-27" value="" style="shape=partialRectangle;connectable=0;fillColor=none;top=0;left=0;bottom=0;right=0;editable=1;overflow=hidden;whiteSpace=wrap;html=1;strokeColor=#000000;" vertex="1" parent="KqZBCw7qDT3EIS-g3Wz3-26">
          <mxGeometry width="30" height="30" as="geometry">
            <mxRectangle width="30" height="30" as="alternateBounds" />
          </mxGeometry>
        </mxCell>
        <mxCell id="KqZBCw7qDT3EIS-g3Wz3-28" value="FechaInicio: date" style="shape=partialRectangle;connectable=0;fillColor=none;top=0;left=0;bottom=0;right=0;align=left;spacingLeft=6;overflow=hidden;whiteSpace=wrap;html=1;strokeColor=#000000;" vertex="1" parent="KqZBCw7qDT3EIS-g3Wz3-26">
          <mxGeometry x="30" width="190" height="30" as="geometry">
            <mxRectangle width="190" height="30" as="alternateBounds" />
          </mxGeometry>
        </mxCell>
        <mxCell id="KqZBCw7qDT3EIS-g3Wz3-29" value="" style="shape=tableRow;horizontal=0;startSize=0;swimlaneHead=0;swimlaneBody=0;fillColor=none;collapsible=0;dropTarget=0;points=[[0,0.5],[1,0.5]];portConstraint=eastwest;top=0;left=0;right=0;bottom=0;strokeColor=#000000;" vertex="1" parent="KqZBCw7qDT3EIS-g3Wz3-1">
          <mxGeometry y="300" width="220" height="30" as="geometry" />
        </mxCell>
        <mxCell id="KqZBCw7qDT3EIS-g3Wz3-30" value="" style="shape=partialRectangle;connectable=0;fillColor=none;top=0;left=0;bottom=0;right=0;editable=1;overflow=hidden;whiteSpace=wrap;html=1;strokeColor=#000000;" vertex="1" parent="KqZBCw7qDT3EIS-g3Wz3-29">
          <mxGeometry width="30" height="30" as="geometry">
            <mxRectangle width="30" height="30" as="alternateBounds" />
          </mxGeometry>
        </mxCell>
        <mxCell id="KqZBCw7qDT3EIS-g3Wz3-31" value="FechaFin: date" style="shape=partialRectangle;connectable=0;fillColor=none;top=0;left=0;bottom=0;right=0;align=left;spacingLeft=6;overflow=hidden;whiteSpace=wrap;html=1;strokeColor=#000000;" vertex="1" parent="KqZBCw7qDT3EIS-g3Wz3-29">
          <mxGeometry x="30" width="190" height="30" as="geometry">
            <mxRectangle width="190" height="30" as="alternateBounds" />
          </mxGeometry>
        </mxCell>
        <mxCell id="KqZBCw7qDT3EIS-g3Wz3-58" value="MétodoPago" style="shape=table;startSize=30;container=1;collapsible=1;childLayout=tableLayout;fixedRows=1;rowLines=0;fontStyle=1;align=center;resizeLast=1;html=1;whiteSpace=wrap;strokeColor=#6c8ebf;fillColor=#dae8fc;" vertex="1" parent="1">
          <mxGeometry x="-1600" y="-875" width="240" height="90" as="geometry" />
        </mxCell>
        <mxCell id="KqZBCw7qDT3EIS-g3Wz3-59" value="" style="shape=tableRow;horizontal=0;startSize=0;swimlaneHead=0;swimlaneBody=0;fillColor=none;collapsible=0;dropTarget=0;points=[[0,0.5],[1,0.5]];portConstraint=eastwest;top=0;left=0;right=0;bottom=0;html=1;strokeColor=#000000;" vertex="1" parent="KqZBCw7qDT3EIS-g3Wz3-58">
          <mxGeometry y="30" width="240" height="30" as="geometry" />
        </mxCell>
        <mxCell id="KqZBCw7qDT3EIS-g3Wz3-60" value="PK1,FK" style="shape=partialRectangle;connectable=0;fillColor=none;top=0;left=0;bottom=0;right=0;fontStyle=1;overflow=hidden;html=1;whiteSpace=wrap;strokeColor=#000000;" vertex="1" parent="KqZBCw7qDT3EIS-g3Wz3-59">
          <mxGeometry width="60" height="30" as="geometry">
            <mxRectangle width="60" height="30" as="alternateBounds" />
          </mxGeometry>
        </mxCell>
        <mxCell id="KqZBCw7qDT3EIS-g3Wz3-61" value="IdCliente: int" style="shape=partialRectangle;connectable=0;fillColor=none;top=0;left=0;bottom=0;right=0;align=left;spacingLeft=6;fontStyle=5;overflow=hidden;html=1;whiteSpace=wrap;strokeColor=#000000;" vertex="1" parent="KqZBCw7qDT3EIS-g3Wz3-59">
          <mxGeometry x="60" width="180" height="30" as="geometry">
            <mxRectangle width="180" height="30" as="alternateBounds" />
          </mxGeometry>
        </mxCell>
        <mxCell id="KqZBCw7qDT3EIS-g3Wz3-62" value="" style="shape=tableRow;horizontal=0;startSize=0;swimlaneHead=0;swimlaneBody=0;fillColor=none;collapsible=0;dropTarget=0;points=[[0,0.5],[1,0.5]];portConstraint=eastwest;top=0;left=0;right=0;bottom=1;html=1;strokeColor=#000000;" vertex="1" parent="KqZBCw7qDT3EIS-g3Wz3-58">
          <mxGeometry y="60" width="240" height="30" as="geometry" />
        </mxCell>
        <mxCell id="KqZBCw7qDT3EIS-g3Wz3-63" value="PK2" style="shape=partialRectangle;connectable=0;fillColor=none;top=0;left=0;bottom=0;right=0;fontStyle=1;overflow=hidden;html=1;whiteSpace=wrap;strokeColor=#000000;" vertex="1" parent="KqZBCw7qDT3EIS-g3Wz3-62">
          <mxGeometry width="60" height="30" as="geometry">
            <mxRectangle width="60" height="30" as="alternateBounds" />
          </mxGeometry>
        </mxCell>
        <mxCell id="KqZBCw7qDT3EIS-g3Wz3-64" value="MétodoPago: varchar(20)" style="shape=partialRectangle;connectable=0;fillColor=none;top=0;left=0;bottom=0;right=0;align=left;spacingLeft=6;fontStyle=5;overflow=hidden;html=1;whiteSpace=wrap;strokeColor=#000000;" vertex="1" parent="KqZBCw7qDT3EIS-g3Wz3-62">
          <mxGeometry x="60" width="180" height="30" as="geometry">
            <mxRectangle width="180" height="30" as="alternateBounds" />
          </mxGeometry>
        </mxCell>
        <mxCell id="KqZBCw7qDT3EIS-g3Wz3-71" value="Negocio" style="shape=table;startSize=30;container=1;collapsible=1;childLayout=tableLayout;fixedRows=1;rowLines=0;fontStyle=1;align=center;resizeLast=1;html=1;strokeColor=#6c8ebf;fillColor=#dae8fc;" vertex="1" parent="1">
          <mxGeometry x="1480" y="-1000" width="240" height="230" as="geometry" />
        </mxCell>
        <mxCell id="KqZBCw7qDT3EIS-g3Wz3-72" value="" style="shape=tableRow;horizontal=0;startSize=0;swimlaneHead=0;swimlaneBody=0;fillColor=none;collapsible=0;dropTarget=0;points=[[0,0.5],[1,0.5]];portConstraint=eastwest;top=0;left=0;right=0;bottom=1;strokeColor=#000000;" vertex="1" parent="KqZBCw7qDT3EIS-g3Wz3-71">
          <mxGeometry y="30" width="240" height="40" as="geometry" />
        </mxCell>
        <mxCell id="KqZBCw7qDT3EIS-g3Wz3-73" value="PK" style="shape=partialRectangle;connectable=0;fillColor=none;top=0;left=0;bottom=0;right=0;fontStyle=1;overflow=hidden;whiteSpace=wrap;html=1;strokeColor=#000000;" vertex="1" parent="KqZBCw7qDT3EIS-g3Wz3-72">
          <mxGeometry width="30" height="40" as="geometry">
            <mxRectangle width="30" height="40" as="alternateBounds" />
          </mxGeometry>
        </mxCell>
        <mxCell id="KqZBCw7qDT3EIS-g3Wz3-74" value="IdNegocio: serial4" style="shape=partialRectangle;connectable=0;fillColor=none;top=0;left=0;bottom=0;right=0;align=left;spacingLeft=6;fontStyle=5;overflow=hidden;whiteSpace=wrap;html=1;strokeColor=#000000;" vertex="1" parent="KqZBCw7qDT3EIS-g3Wz3-72">
          <mxGeometry x="30" width="210" height="40" as="geometry">
            <mxRectangle width="210" height="40" as="alternateBounds" />
          </mxGeometry>
        </mxCell>
        <mxCell id="KqZBCw7qDT3EIS-g3Wz3-75" value="" style="shape=tableRow;horizontal=0;startSize=0;swimlaneHead=0;swimlaneBody=0;fillColor=none;collapsible=0;dropTarget=0;points=[[0,0.5],[1,0.5]];portConstraint=eastwest;top=0;left=0;right=0;bottom=0;strokeColor=#000000;" vertex="1" parent="KqZBCw7qDT3EIS-g3Wz3-71">
          <mxGeometry y="70" width="240" height="40" as="geometry" />
        </mxCell>
        <mxCell id="KqZBCw7qDT3EIS-g3Wz3-76" value="" style="shape=partialRectangle;connectable=0;fillColor=none;top=0;left=0;bottom=0;right=0;editable=1;overflow=hidden;whiteSpace=wrap;html=1;strokeColor=#000000;" vertex="1" parent="KqZBCw7qDT3EIS-g3Wz3-75">
          <mxGeometry width="30" height="40" as="geometry">
            <mxRectangle width="30" height="40" as="alternateBounds" />
          </mxGeometry>
        </mxCell>
        <mxCell id="KqZBCw7qDT3EIS-g3Wz3-77" value="NombreNegocio: varchar(100)" style="shape=partialRectangle;connectable=0;fillColor=none;top=0;left=0;bottom=0;right=0;align=left;spacingLeft=6;overflow=hidden;whiteSpace=wrap;html=1;strokeColor=#000000;" vertex="1" parent="KqZBCw7qDT3EIS-g3Wz3-75">
          <mxGeometry x="30" width="210" height="40" as="geometry">
            <mxRectangle width="210" height="40" as="alternateBounds" />
          </mxGeometry>
        </mxCell>
        <mxCell id="KqZBCw7qDT3EIS-g3Wz3-78" value="" style="shape=tableRow;horizontal=0;startSize=0;swimlaneHead=0;swimlaneBody=0;fillColor=none;collapsible=0;dropTarget=0;points=[[0,0.5],[1,0.5]];portConstraint=eastwest;top=0;left=0;right=0;bottom=0;strokeColor=#000000;" vertex="1" parent="KqZBCw7qDT3EIS-g3Wz3-71">
          <mxGeometry y="110" width="240" height="40" as="geometry" />
        </mxCell>
        <mxCell id="KqZBCw7qDT3EIS-g3Wz3-79" value="" style="shape=partialRectangle;connectable=0;fillColor=none;top=0;left=0;bottom=0;right=0;editable=1;overflow=hidden;whiteSpace=wrap;html=1;strokeColor=#000000;" vertex="1" parent="KqZBCw7qDT3EIS-g3Wz3-78">
          <mxGeometry width="30" height="40" as="geometry">
            <mxRectangle width="30" height="40" as="alternateBounds" />
          </mxGeometry>
        </mxCell>
        <mxCell id="KqZBCw7qDT3EIS-g3Wz3-80" value="Descripción: text" style="shape=partialRectangle;connectable=0;fillColor=none;top=0;left=0;bottom=0;right=0;align=left;spacingLeft=6;overflow=hidden;whiteSpace=wrap;html=1;strokeColor=#000000;" vertex="1" parent="KqZBCw7qDT3EIS-g3Wz3-78">
          <mxGeometry x="30" width="210" height="40" as="geometry">
            <mxRectangle width="210" height="40" as="alternateBounds" />
          </mxGeometry>
        </mxCell>
        <mxCell id="KqZBCw7qDT3EIS-g3Wz3-81" value="" style="shape=tableRow;horizontal=0;startSize=0;swimlaneHead=0;swimlaneBody=0;fillColor=none;collapsible=0;dropTarget=0;points=[[0,0.5],[1,0.5]];portConstraint=eastwest;top=0;left=0;right=0;bottom=0;strokeColor=#000000;" vertex="1" parent="KqZBCw7qDT3EIS-g3Wz3-71">
          <mxGeometry y="150" width="240" height="40" as="geometry" />
        </mxCell>
        <mxCell id="KqZBCw7qDT3EIS-g3Wz3-82" value="" style="shape=partialRectangle;connectable=0;fillColor=none;top=0;left=0;bottom=0;right=0;editable=1;overflow=hidden;whiteSpace=wrap;html=1;strokeColor=#000000;" vertex="1" parent="KqZBCw7qDT3EIS-g3Wz3-81">
          <mxGeometry width="30" height="40" as="geometry">
            <mxRectangle width="30" height="40" as="alternateBounds" />
          </mxGeometry>
        </mxCell>
        <mxCell id="KqZBCw7qDT3EIS-g3Wz3-83" value="PrecioMínimo: numeric(10,2)" style="shape=partialRectangle;connectable=0;fillColor=none;top=0;left=0;bottom=0;right=0;align=left;spacingLeft=6;overflow=hidden;whiteSpace=wrap;html=1;strokeColor=#000000;" vertex="1" parent="KqZBCw7qDT3EIS-g3Wz3-81">
          <mxGeometry x="30" width="210" height="40" as="geometry">
            <mxRectangle width="210" height="40" as="alternateBounds" />
          </mxGeometry>
        </mxCell>
        <mxCell id="KqZBCw7qDT3EIS-g3Wz3-84" value="" style="shape=tableRow;horizontal=0;startSize=0;swimlaneHead=0;swimlaneBody=0;fillColor=none;collapsible=0;dropTarget=0;points=[[0,0.5],[1,0.5]];portConstraint=eastwest;top=0;left=0;right=0;bottom=0;strokeColor=#000000;" vertex="1" parent="KqZBCw7qDT3EIS-g3Wz3-71">
          <mxGeometry y="190" width="240" height="40" as="geometry" />
        </mxCell>
        <mxCell id="KqZBCw7qDT3EIS-g3Wz3-85" value="" style="shape=partialRectangle;connectable=0;fillColor=none;top=0;left=0;bottom=0;right=0;editable=1;overflow=hidden;whiteSpace=wrap;html=1;strokeColor=#000000;" vertex="1" parent="KqZBCw7qDT3EIS-g3Wz3-84">
          <mxGeometry width="30" height="40" as="geometry">
            <mxRectangle width="30" height="40" as="alternateBounds" />
          </mxGeometry>
        </mxCell>
        <mxCell id="KqZBCw7qDT3EIS-g3Wz3-86" value="PrecioMáximo: numeric(10,2)" style="shape=partialRectangle;connectable=0;fillColor=none;top=0;left=0;bottom=0;right=0;align=left;spacingLeft=6;overflow=hidden;whiteSpace=wrap;html=1;strokeColor=#000000;" vertex="1" parent="KqZBCw7qDT3EIS-g3Wz3-84">
          <mxGeometry x="30" width="210" height="40" as="geometry">
            <mxRectangle width="210" height="40" as="alternateBounds" />
          </mxGeometry>
        </mxCell>
        <mxCell id="KqZBCw7qDT3EIS-g3Wz3-87" value="TeléfonoNegocio" style="shape=table;startSize=30;container=1;collapsible=1;childLayout=tableLayout;fixedRows=1;rowLines=0;fontStyle=1;align=center;resizeLast=1;html=1;whiteSpace=wrap;strokeColor=#6c8ebf;fillColor=#dae8fc;" vertex="1" parent="1">
          <mxGeometry x="2169" y="-1164" width="200" height="90" as="geometry" />
        </mxCell>
        <mxCell id="KqZBCw7qDT3EIS-g3Wz3-88" value="" style="shape=tableRow;horizontal=0;startSize=0;swimlaneHead=0;swimlaneBody=0;fillColor=none;collapsible=0;dropTarget=0;points=[[0,0.5],[1,0.5]];portConstraint=eastwest;top=0;left=0;right=0;bottom=0;html=1;strokeColor=#000000;" vertex="1" parent="KqZBCw7qDT3EIS-g3Wz3-87">
          <mxGeometry y="30" width="200" height="30" as="geometry" />
        </mxCell>
        <mxCell id="KqZBCw7qDT3EIS-g3Wz3-89" value="FK" style="shape=partialRectangle;connectable=0;fillColor=none;top=0;left=0;bottom=0;right=0;fontStyle=1;overflow=hidden;html=1;whiteSpace=wrap;strokeColor=#000000;" vertex="1" parent="KqZBCw7qDT3EIS-g3Wz3-88">
          <mxGeometry width="60" height="30" as="geometry">
            <mxRectangle width="60" height="30" as="alternateBounds" />
          </mxGeometry>
        </mxCell>
        <mxCell id="KqZBCw7qDT3EIS-g3Wz3-90" value="IdNegocio: int" style="shape=partialRectangle;connectable=0;fillColor=none;top=0;left=0;bottom=0;right=0;align=left;spacingLeft=6;fontStyle=5;overflow=hidden;html=1;whiteSpace=wrap;strokeColor=#000000;" vertex="1" parent="KqZBCw7qDT3EIS-g3Wz3-88">
          <mxGeometry x="60" width="140" height="30" as="geometry">
            <mxRectangle width="140" height="30" as="alternateBounds" />
          </mxGeometry>
        </mxCell>
        <mxCell id="KqZBCw7qDT3EIS-g3Wz3-91" value="" style="shape=tableRow;horizontal=0;startSize=0;swimlaneHead=0;swimlaneBody=0;fillColor=none;collapsible=0;dropTarget=0;points=[[0,0.5],[1,0.5]];portConstraint=eastwest;top=0;left=0;right=0;bottom=1;html=1;strokeColor=#000000;" vertex="1" parent="KqZBCw7qDT3EIS-g3Wz3-87">
          <mxGeometry y="60" width="200" height="30" as="geometry" />
        </mxCell>
        <mxCell id="KqZBCw7qDT3EIS-g3Wz3-92" value="PK" style="shape=partialRectangle;connectable=0;fillColor=none;top=0;left=0;bottom=0;right=0;fontStyle=1;overflow=hidden;html=1;whiteSpace=wrap;strokeColor=#000000;" vertex="1" parent="KqZBCw7qDT3EIS-g3Wz3-91">
          <mxGeometry width="60" height="30" as="geometry">
            <mxRectangle width="60" height="30" as="alternateBounds" />
          </mxGeometry>
        </mxCell>
        <mxCell id="KqZBCw7qDT3EIS-g3Wz3-93" value="Teléfono: char(10)" style="shape=partialRectangle;connectable=0;fillColor=none;top=0;left=0;bottom=0;right=0;align=left;spacingLeft=6;fontStyle=5;overflow=hidden;html=1;whiteSpace=wrap;strokeColor=#000000;" vertex="1" parent="KqZBCw7qDT3EIS-g3Wz3-91">
          <mxGeometry x="60" width="140" height="30" as="geometry">
            <mxRectangle width="140" height="30" as="alternateBounds" />
          </mxGeometry>
        </mxCell>
        <mxCell id="KqZBCw7qDT3EIS-g3Wz3-94" value="CorreoNegocio" style="shape=table;startSize=30;container=1;collapsible=1;childLayout=tableLayout;fixedRows=1;rowLines=0;fontStyle=1;align=center;resizeLast=1;html=1;whiteSpace=wrap;strokeColor=#6c8ebf;fillColor=#dae8fc;" vertex="1" parent="1">
          <mxGeometry x="2180" y="-980" width="200" height="90" as="geometry" />
        </mxCell>
        <mxCell id="KqZBCw7qDT3EIS-g3Wz3-95" value="" style="shape=tableRow;horizontal=0;startSize=0;swimlaneHead=0;swimlaneBody=0;fillColor=none;collapsible=0;dropTarget=0;points=[[0,0.5],[1,0.5]];portConstraint=eastwest;top=0;left=0;right=0;bottom=0;html=1;strokeColor=#000000;" vertex="1" parent="KqZBCw7qDT3EIS-g3Wz3-94">
          <mxGeometry y="30" width="200" height="30" as="geometry" />
        </mxCell>
        <mxCell id="KqZBCw7qDT3EIS-g3Wz3-96" value="FK" style="shape=partialRectangle;connectable=0;fillColor=none;top=0;left=0;bottom=0;right=0;fontStyle=1;overflow=hidden;html=1;whiteSpace=wrap;strokeColor=#000000;" vertex="1" parent="KqZBCw7qDT3EIS-g3Wz3-95">
          <mxGeometry width="60" height="30" as="geometry">
            <mxRectangle width="60" height="30" as="alternateBounds" />
          </mxGeometry>
        </mxCell>
        <mxCell id="KqZBCw7qDT3EIS-g3Wz3-97" value="IdNegocio: int" style="shape=partialRectangle;connectable=0;fillColor=none;top=0;left=0;bottom=0;right=0;align=left;spacingLeft=6;fontStyle=5;overflow=hidden;html=1;whiteSpace=wrap;strokeColor=#000000;" vertex="1" parent="KqZBCw7qDT3EIS-g3Wz3-95">
          <mxGeometry x="60" width="140" height="30" as="geometry">
            <mxRectangle width="140" height="30" as="alternateBounds" />
          </mxGeometry>
        </mxCell>
        <mxCell id="KqZBCw7qDT3EIS-g3Wz3-98" value="" style="shape=tableRow;horizontal=0;startSize=0;swimlaneHead=0;swimlaneBody=0;fillColor=none;collapsible=0;dropTarget=0;points=[[0,0.5],[1,0.5]];portConstraint=eastwest;top=0;left=0;right=0;bottom=1;html=1;strokeColor=#000000;" vertex="1" parent="KqZBCw7qDT3EIS-g3Wz3-94">
          <mxGeometry y="60" width="200" height="30" as="geometry" />
        </mxCell>
        <mxCell id="KqZBCw7qDT3EIS-g3Wz3-99" value="PK" style="shape=partialRectangle;connectable=0;fillColor=none;top=0;left=0;bottom=0;right=0;fontStyle=1;overflow=hidden;html=1;whiteSpace=wrap;strokeColor=#000000;" vertex="1" parent="KqZBCw7qDT3EIS-g3Wz3-98">
          <mxGeometry width="60" height="30" as="geometry">
            <mxRectangle width="60" height="30" as="alternateBounds" />
          </mxGeometry>
        </mxCell>
        <mxCell id="KqZBCw7qDT3EIS-g3Wz3-100" value="Correo: varchar(50)" style="shape=partialRectangle;connectable=0;fillColor=none;top=0;left=0;bottom=0;right=0;align=left;spacingLeft=6;fontStyle=5;overflow=hidden;html=1;whiteSpace=wrap;strokeColor=#000000;" vertex="1" parent="KqZBCw7qDT3EIS-g3Wz3-98">
          <mxGeometry x="60" width="140" height="30" as="geometry">
            <mxRectangle width="140" height="30" as="alternateBounds" />
          </mxGeometry>
        </mxCell>
        <mxCell id="KqZBCw7qDT3EIS-g3Wz3-101" value="RedSocialNegocio" style="shape=table;startSize=30;container=1;collapsible=1;childLayout=tableLayout;fixedRows=1;rowLines=0;fontStyle=1;align=center;resizeLast=1;html=1;whiteSpace=wrap;strokeColor=#6c8ebf;fillColor=#dae8fc;" vertex="1" parent="1">
          <mxGeometry x="2169" y="-849" width="200" height="90" as="geometry" />
        </mxCell>
        <mxCell id="KqZBCw7qDT3EIS-g3Wz3-102" value="" style="shape=tableRow;horizontal=0;startSize=0;swimlaneHead=0;swimlaneBody=0;fillColor=none;collapsible=0;dropTarget=0;points=[[0,0.5],[1,0.5]];portConstraint=eastwest;top=0;left=0;right=0;bottom=0;html=1;strokeColor=#000000;" vertex="1" parent="KqZBCw7qDT3EIS-g3Wz3-101">
          <mxGeometry y="30" width="200" height="30" as="geometry" />
        </mxCell>
        <mxCell id="KqZBCw7qDT3EIS-g3Wz3-103" value="FK" style="shape=partialRectangle;connectable=0;fillColor=none;top=0;left=0;bottom=0;right=0;fontStyle=1;overflow=hidden;html=1;whiteSpace=wrap;strokeColor=#000000;" vertex="1" parent="KqZBCw7qDT3EIS-g3Wz3-102">
          <mxGeometry width="60" height="30" as="geometry">
            <mxRectangle width="60" height="30" as="alternateBounds" />
          </mxGeometry>
        </mxCell>
        <mxCell id="KqZBCw7qDT3EIS-g3Wz3-104" value="IdNegocio: int" style="shape=partialRectangle;connectable=0;fillColor=none;top=0;left=0;bottom=0;right=0;align=left;spacingLeft=6;fontStyle=5;overflow=hidden;html=1;whiteSpace=wrap;strokeColor=#000000;" vertex="1" parent="KqZBCw7qDT3EIS-g3Wz3-102">
          <mxGeometry x="60" width="140" height="30" as="geometry">
            <mxRectangle width="140" height="30" as="alternateBounds" />
          </mxGeometry>
        </mxCell>
        <mxCell id="KqZBCw7qDT3EIS-g3Wz3-105" value="" style="shape=tableRow;horizontal=0;startSize=0;swimlaneHead=0;swimlaneBody=0;fillColor=none;collapsible=0;dropTarget=0;points=[[0,0.5],[1,0.5]];portConstraint=eastwest;top=0;left=0;right=0;bottom=1;html=1;strokeColor=#000000;" vertex="1" parent="KqZBCw7qDT3EIS-g3Wz3-101">
          <mxGeometry y="60" width="200" height="30" as="geometry" />
        </mxCell>
        <mxCell id="KqZBCw7qDT3EIS-g3Wz3-106" value="PK" style="shape=partialRectangle;connectable=0;fillColor=none;top=0;left=0;bottom=0;right=0;fontStyle=1;overflow=hidden;html=1;whiteSpace=wrap;strokeColor=#000000;" vertex="1" parent="KqZBCw7qDT3EIS-g3Wz3-105">
          <mxGeometry width="60" height="30" as="geometry">
            <mxRectangle width="60" height="30" as="alternateBounds" />
          </mxGeometry>
        </mxCell>
        <mxCell id="KqZBCw7qDT3EIS-g3Wz3-107" value="&lt;span style=&quot;text-align: center;&quot;&gt;RedSocial&lt;/span&gt;: varchar(50)" style="shape=partialRectangle;connectable=0;fillColor=none;top=0;left=0;bottom=0;right=0;align=left;spacingLeft=6;fontStyle=5;overflow=hidden;html=1;whiteSpace=wrap;strokeColor=#000000;" vertex="1" parent="KqZBCw7qDT3EIS-g3Wz3-105">
          <mxGeometry x="60" width="140" height="30" as="geometry">
            <mxRectangle width="140" height="30" as="alternateBounds" />
          </mxGeometry>
        </mxCell>
        <mxCell id="KqZBCw7qDT3EIS-g3Wz3-108" value="Estand" style="shape=table;startSize=30;container=1;collapsible=1;childLayout=tableLayout;fixedRows=1;rowLines=0;fontStyle=1;align=center;resizeLast=1;html=1;strokeColor=#6c8ebf;fillColor=#dae8fc;" vertex="1" parent="1">
          <mxGeometry x="890" y="920" width="160" height="120" as="geometry" />
        </mxCell>
        <mxCell id="KqZBCw7qDT3EIS-g3Wz3-109" value="" style="shape=tableRow;horizontal=0;startSize=0;swimlaneHead=0;swimlaneBody=0;fillColor=none;collapsible=0;dropTarget=0;points=[[0,0.5],[1,0.5]];portConstraint=eastwest;top=0;left=0;right=0;bottom=1;strokeColor=#000000;" vertex="1" parent="KqZBCw7qDT3EIS-g3Wz3-108">
          <mxGeometry y="30" width="160" height="30" as="geometry" />
        </mxCell>
        <mxCell id="KqZBCw7qDT3EIS-g3Wz3-110" value="PK" style="shape=partialRectangle;connectable=0;fillColor=none;top=0;left=0;bottom=0;right=0;fontStyle=1;overflow=hidden;whiteSpace=wrap;html=1;strokeColor=#000000;" vertex="1" parent="KqZBCw7qDT3EIS-g3Wz3-109">
          <mxGeometry width="30" height="30" as="geometry">
            <mxRectangle width="30" height="30" as="alternateBounds" />
          </mxGeometry>
        </mxCell>
        <mxCell id="KqZBCw7qDT3EIS-g3Wz3-111" value="NúmeroEstand: int" style="shape=partialRectangle;connectable=0;fillColor=none;top=0;left=0;bottom=0;right=0;align=left;spacingLeft=6;fontStyle=5;overflow=hidden;whiteSpace=wrap;html=1;strokeColor=#000000;" vertex="1" parent="KqZBCw7qDT3EIS-g3Wz3-109">
          <mxGeometry x="30" width="130" height="30" as="geometry">
            <mxRectangle width="130" height="30" as="alternateBounds" />
          </mxGeometry>
        </mxCell>
        <mxCell id="KqZBCw7qDT3EIS-g3Wz3-112" value="" style="shape=tableRow;horizontal=0;startSize=0;swimlaneHead=0;swimlaneBody=0;fillColor=none;collapsible=0;dropTarget=0;points=[[0,0.5],[1,0.5]];portConstraint=eastwest;top=0;left=0;right=0;bottom=0;strokeColor=#000000;" vertex="1" parent="KqZBCw7qDT3EIS-g3Wz3-108">
          <mxGeometry y="60" width="160" height="30" as="geometry" />
        </mxCell>
        <mxCell id="KqZBCw7qDT3EIS-g3Wz3-113" value="" style="shape=partialRectangle;connectable=0;fillColor=none;top=0;left=0;bottom=0;right=0;editable=1;overflow=hidden;whiteSpace=wrap;html=1;strokeColor=#000000;" vertex="1" parent="KqZBCw7qDT3EIS-g3Wz3-112">
          <mxGeometry width="30" height="30" as="geometry">
            <mxRectangle width="30" height="30" as="alternateBounds" />
          </mxGeometry>
        </mxCell>
        <mxCell id="KqZBCw7qDT3EIS-g3Wz3-114" value="Paquete: char(1)" style="shape=partialRectangle;connectable=0;fillColor=none;top=0;left=0;bottom=0;right=0;align=left;spacingLeft=6;overflow=hidden;whiteSpace=wrap;html=1;strokeColor=#000000;" vertex="1" parent="KqZBCw7qDT3EIS-g3Wz3-112">
          <mxGeometry x="30" width="130" height="30" as="geometry">
            <mxRectangle width="130" height="30" as="alternateBounds" />
          </mxGeometry>
        </mxCell>
        <mxCell id="KqZBCw7qDT3EIS-g3Wz3-115" value="" style="shape=tableRow;horizontal=0;startSize=0;swimlaneHead=0;swimlaneBody=0;fillColor=none;collapsible=0;dropTarget=0;points=[[0,0.5],[1,0.5]];portConstraint=eastwest;top=0;left=0;right=0;bottom=0;strokeColor=#000000;" vertex="1" parent="KqZBCw7qDT3EIS-g3Wz3-108">
          <mxGeometry y="90" width="160" height="30" as="geometry" />
        </mxCell>
        <mxCell id="KqZBCw7qDT3EIS-g3Wz3-116" value="" style="shape=partialRectangle;connectable=0;fillColor=none;top=0;left=0;bottom=0;right=0;editable=1;overflow=hidden;whiteSpace=wrap;html=1;strokeColor=#000000;" vertex="1" parent="KqZBCw7qDT3EIS-g3Wz3-115">
          <mxGeometry width="30" height="30" as="geometry">
            <mxRectangle width="30" height="30" as="alternateBounds" />
          </mxGeometry>
        </mxCell>
        <mxCell id="KqZBCw7qDT3EIS-g3Wz3-117" value="Precio: money" style="shape=partialRectangle;connectable=0;fillColor=none;top=0;left=0;bottom=0;right=0;align=left;spacingLeft=6;overflow=hidden;whiteSpace=wrap;html=1;strokeColor=#000000;" vertex="1" parent="KqZBCw7qDT3EIS-g3Wz3-115">
          <mxGeometry x="30" width="130" height="30" as="geometry">
            <mxRectangle width="130" height="30" as="alternateBounds" />
          </mxGeometry>
        </mxCell>
        <mxCell id="KqZBCw7qDT3EIS-g3Wz3-121" value="AmenidadEstand" style="shape=table;startSize=30;container=1;collapsible=1;childLayout=tableLayout;fixedRows=1;rowLines=0;fontStyle=1;align=center;resizeLast=1;html=1;whiteSpace=wrap;strokeColor=#6c8ebf;fillColor=#dae8fc;" vertex="1" parent="1">
          <mxGeometry x="1130" y="920" width="280" height="90" as="geometry" />
        </mxCell>
        <mxCell id="KqZBCw7qDT3EIS-g3Wz3-122" value="" style="shape=tableRow;horizontal=0;startSize=0;swimlaneHead=0;swimlaneBody=0;fillColor=none;collapsible=0;dropTarget=0;points=[[0,0.5],[1,0.5]];portConstraint=eastwest;top=0;left=0;right=0;bottom=0;html=1;strokeColor=#000000;" vertex="1" parent="KqZBCw7qDT3EIS-g3Wz3-121">
          <mxGeometry y="30" width="280" height="30" as="geometry" />
        </mxCell>
        <mxCell id="KqZBCw7qDT3EIS-g3Wz3-123" value="PK1,FK" style="shape=partialRectangle;connectable=0;fillColor=none;top=0;left=0;bottom=0;right=0;fontStyle=1;overflow=hidden;html=1;whiteSpace=wrap;strokeColor=#000000;" vertex="1" parent="KqZBCw7qDT3EIS-g3Wz3-122">
          <mxGeometry width="60" height="30" as="geometry">
            <mxRectangle width="60" height="30" as="alternateBounds" />
          </mxGeometry>
        </mxCell>
        <mxCell id="KqZBCw7qDT3EIS-g3Wz3-124" value="NúmeroEstand: int" style="shape=partialRectangle;connectable=0;fillColor=none;top=0;left=0;bottom=0;right=0;align=left;spacingLeft=6;fontStyle=5;overflow=hidden;html=1;whiteSpace=wrap;strokeColor=#000000;" vertex="1" parent="KqZBCw7qDT3EIS-g3Wz3-122">
          <mxGeometry x="60" width="220" height="30" as="geometry">
            <mxRectangle width="220" height="30" as="alternateBounds" />
          </mxGeometry>
        </mxCell>
        <mxCell id="KqZBCw7qDT3EIS-g3Wz3-125" value="" style="shape=tableRow;horizontal=0;startSize=0;swimlaneHead=0;swimlaneBody=0;fillColor=none;collapsible=0;dropTarget=0;points=[[0,0.5],[1,0.5]];portConstraint=eastwest;top=0;left=0;right=0;bottom=1;html=1;strokeColor=#000000;" vertex="1" parent="KqZBCw7qDT3EIS-g3Wz3-121">
          <mxGeometry y="60" width="280" height="30" as="geometry" />
        </mxCell>
        <mxCell id="KqZBCw7qDT3EIS-g3Wz3-126" value="PK2" style="shape=partialRectangle;connectable=0;fillColor=none;top=0;left=0;bottom=0;right=0;fontStyle=1;overflow=hidden;html=1;whiteSpace=wrap;strokeColor=#000000;" vertex="1" parent="KqZBCw7qDT3EIS-g3Wz3-125">
          <mxGeometry width="60" height="30" as="geometry">
            <mxRectangle width="60" height="30" as="alternateBounds" />
          </mxGeometry>
        </mxCell>
        <mxCell id="KqZBCw7qDT3EIS-g3Wz3-127" value="AmenidadEstand: varchar(100)" style="shape=partialRectangle;connectable=0;fillColor=none;top=0;left=0;bottom=0;right=0;align=left;spacingLeft=6;fontStyle=5;overflow=hidden;html=1;whiteSpace=wrap;strokeColor=#000000;" vertex="1" parent="KqZBCw7qDT3EIS-g3Wz3-125">
          <mxGeometry x="60" width="220" height="30" as="geometry">
            <mxRectangle width="220" height="30" as="alternateBounds" />
          </mxGeometry>
        </mxCell>
        <mxCell id="KqZBCw7qDT3EIS-g3Wz3-177" value="HorarioPersonalOrganizador" style="shape=table;startSize=30;container=1;collapsible=1;childLayout=tableLayout;fixedRows=1;rowLines=0;fontStyle=1;align=center;resizeLast=1;html=1;whiteSpace=wrap;strokeColor=#6c8ebf;fillColor=#dae8fc;" vertex="1" parent="1">
          <mxGeometry x="-40" y="430" width="230" height="90" as="geometry" />
        </mxCell>
        <mxCell id="KqZBCw7qDT3EIS-g3Wz3-178" value="" style="shape=tableRow;horizontal=0;startSize=0;swimlaneHead=0;swimlaneBody=0;fillColor=none;collapsible=0;dropTarget=0;points=[[0,0.5],[1,0.5]];portConstraint=eastwest;top=0;left=0;right=0;bottom=0;html=1;strokeColor=#000000;" vertex="1" parent="KqZBCw7qDT3EIS-g3Wz3-177">
          <mxGeometry y="30" width="230" height="30" as="geometry" />
        </mxCell>
        <mxCell id="KqZBCw7qDT3EIS-g3Wz3-179" value="FK" style="shape=partialRectangle;connectable=0;fillColor=none;top=0;left=0;bottom=0;right=0;fontStyle=1;overflow=hidden;html=1;whiteSpace=wrap;strokeColor=#000000;" vertex="1" parent="KqZBCw7qDT3EIS-g3Wz3-178">
          <mxGeometry width="60" height="30" as="geometry">
            <mxRectangle width="60" height="30" as="alternateBounds" />
          </mxGeometry>
        </mxCell>
        <mxCell id="KqZBCw7qDT3EIS-g3Wz3-180" value="RFC: char(13)" style="shape=partialRectangle;connectable=0;fillColor=none;top=0;left=0;bottom=0;right=0;align=left;spacingLeft=6;fontStyle=5;overflow=hidden;html=1;whiteSpace=wrap;strokeColor=#000000;" vertex="1" parent="KqZBCw7qDT3EIS-g3Wz3-178">
          <mxGeometry x="60" width="170" height="30" as="geometry">
            <mxRectangle width="170" height="30" as="alternateBounds" />
          </mxGeometry>
        </mxCell>
        <mxCell id="KqZBCw7qDT3EIS-g3Wz3-181" value="" style="shape=tableRow;horizontal=0;startSize=0;swimlaneHead=0;swimlaneBody=0;fillColor=none;collapsible=0;dropTarget=0;points=[[0,0.5],[1,0.5]];portConstraint=eastwest;top=0;left=0;right=0;bottom=1;html=1;strokeColor=#000000;" vertex="1" parent="KqZBCw7qDT3EIS-g3Wz3-177">
          <mxGeometry y="60" width="230" height="30" as="geometry" />
        </mxCell>
        <mxCell id="KqZBCw7qDT3EIS-g3Wz3-182" value="PK2" style="shape=partialRectangle;connectable=0;fillColor=none;top=0;left=0;bottom=0;right=0;fontStyle=1;overflow=hidden;html=1;whiteSpace=wrap;strokeColor=#000000;" vertex="1" parent="KqZBCw7qDT3EIS-g3Wz3-181">
          <mxGeometry width="60" height="30" as="geometry">
            <mxRectangle width="60" height="30" as="alternateBounds" />
          </mxGeometry>
        </mxCell>
        <mxCell id="KqZBCw7qDT3EIS-g3Wz3-183" value="Horario: varchar(30)" style="shape=partialRectangle;connectable=0;top=0;left=0;bottom=0;right=0;align=left;spacingLeft=6;fontStyle=5;overflow=hidden;html=1;whiteSpace=wrap;" vertex="1" parent="KqZBCw7qDT3EIS-g3Wz3-181">
          <mxGeometry x="60" width="170" height="30" as="geometry">
            <mxRectangle width="170" height="30" as="alternateBounds" />
          </mxGeometry>
        </mxCell>
        <mxCell id="KqZBCw7qDT3EIS-g3Wz3-184" value="TeléfonoPersonalOrganizador" style="shape=table;startSize=30;container=1;collapsible=1;childLayout=tableLayout;fixedRows=1;rowLines=0;fontStyle=1;align=center;resizeLast=1;html=1;whiteSpace=wrap;strokeColor=#6c8ebf;fillColor=#dae8fc;" vertex="1" parent="1">
          <mxGeometry x="-40" y="119" width="323" height="90" as="geometry" />
        </mxCell>
        <mxCell id="KqZBCw7qDT3EIS-g3Wz3-185" value="" style="shape=tableRow;horizontal=0;startSize=0;swimlaneHead=0;swimlaneBody=0;fillColor=none;collapsible=0;dropTarget=0;points=[[0,0.5],[1,0.5]];portConstraint=eastwest;top=0;left=0;right=0;bottom=0;html=1;strokeColor=#000000;" vertex="1" parent="KqZBCw7qDT3EIS-g3Wz3-184">
          <mxGeometry y="30" width="323" height="30" as="geometry" />
        </mxCell>
        <mxCell id="KqZBCw7qDT3EIS-g3Wz3-186" value="FK" style="shape=partialRectangle;connectable=0;fillColor=none;top=0;left=0;bottom=0;right=0;fontStyle=1;overflow=hidden;html=1;whiteSpace=wrap;strokeColor=#000000;" vertex="1" parent="KqZBCw7qDT3EIS-g3Wz3-185">
          <mxGeometry width="60" height="30" as="geometry">
            <mxRectangle width="60" height="30" as="alternateBounds" />
          </mxGeometry>
        </mxCell>
        <mxCell id="KqZBCw7qDT3EIS-g3Wz3-187" value="RFC: char(13)" style="shape=partialRectangle;connectable=0;fillColor=none;top=0;left=0;bottom=0;right=0;align=left;spacingLeft=6;fontStyle=5;overflow=hidden;html=1;whiteSpace=wrap;strokeColor=#000000;" vertex="1" parent="KqZBCw7qDT3EIS-g3Wz3-185">
          <mxGeometry x="60" width="263" height="30" as="geometry">
            <mxRectangle width="263" height="30" as="alternateBounds" />
          </mxGeometry>
        </mxCell>
        <mxCell id="KqZBCw7qDT3EIS-g3Wz3-188" value="" style="shape=tableRow;horizontal=0;startSize=0;swimlaneHead=0;swimlaneBody=0;fillColor=none;collapsible=0;dropTarget=0;points=[[0,0.5],[1,0.5]];portConstraint=eastwest;top=0;left=0;right=0;bottom=1;html=1;strokeColor=#000000;" vertex="1" parent="KqZBCw7qDT3EIS-g3Wz3-184">
          <mxGeometry y="60" width="323" height="30" as="geometry" />
        </mxCell>
        <mxCell id="KqZBCw7qDT3EIS-g3Wz3-189" value="PK" style="shape=partialRectangle;connectable=0;fillColor=none;top=0;left=0;bottom=0;right=0;fontStyle=1;overflow=hidden;html=1;whiteSpace=wrap;strokeColor=#000000;" vertex="1" parent="KqZBCw7qDT3EIS-g3Wz3-188">
          <mxGeometry width="60" height="30" as="geometry">
            <mxRectangle width="60" height="30" as="alternateBounds" />
          </mxGeometry>
        </mxCell>
        <mxCell id="KqZBCw7qDT3EIS-g3Wz3-190" value="TeléfonoPersonalOrganizador: char(10)" style="shape=partialRectangle;connectable=0;fillColor=none;top=0;left=0;bottom=0;right=0;align=left;spacingLeft=6;fontStyle=5;overflow=hidden;html=1;whiteSpace=wrap;strokeColor=#000000;" vertex="1" parent="KqZBCw7qDT3EIS-g3Wz3-188">
          <mxGeometry x="60" width="263" height="30" as="geometry">
            <mxRectangle width="263" height="30" as="alternateBounds" />
          </mxGeometry>
        </mxCell>
        <mxCell id="KqZBCw7qDT3EIS-g3Wz3-191" value="CorreoPersonalOrganizador" style="shape=table;startSize=30;container=1;collapsible=1;childLayout=tableLayout;fixedRows=1;rowLines=0;fontStyle=1;align=center;resizeLast=1;html=1;whiteSpace=wrap;strokeColor=#6c8ebf;fillColor=#dae8fc;" vertex="1" parent="1">
          <mxGeometry x="-40" y="280" width="323" height="90" as="geometry" />
        </mxCell>
        <mxCell id="KqZBCw7qDT3EIS-g3Wz3-192" value="" style="shape=tableRow;horizontal=0;startSize=0;swimlaneHead=0;swimlaneBody=0;fillColor=none;collapsible=0;dropTarget=0;points=[[0,0.5],[1,0.5]];portConstraint=eastwest;top=0;left=0;right=0;bottom=0;html=1;strokeColor=#000000;" vertex="1" parent="KqZBCw7qDT3EIS-g3Wz3-191">
          <mxGeometry y="30" width="323" height="30" as="geometry" />
        </mxCell>
        <mxCell id="KqZBCw7qDT3EIS-g3Wz3-193" value="FK" style="shape=partialRectangle;connectable=0;fillColor=none;top=0;left=0;bottom=0;right=0;fontStyle=1;overflow=hidden;html=1;whiteSpace=wrap;strokeColor=#000000;" vertex="1" parent="KqZBCw7qDT3EIS-g3Wz3-192">
          <mxGeometry width="60" height="30" as="geometry">
            <mxRectangle width="60" height="30" as="alternateBounds" />
          </mxGeometry>
        </mxCell>
        <mxCell id="KqZBCw7qDT3EIS-g3Wz3-194" value="RFC: char(13)" style="shape=partialRectangle;connectable=0;fillColor=none;top=0;left=0;bottom=0;right=0;align=left;spacingLeft=6;fontStyle=5;overflow=hidden;html=1;whiteSpace=wrap;strokeColor=#000000;" vertex="1" parent="KqZBCw7qDT3EIS-g3Wz3-192">
          <mxGeometry x="60" width="263" height="30" as="geometry">
            <mxRectangle width="263" height="30" as="alternateBounds" />
          </mxGeometry>
        </mxCell>
        <mxCell id="KqZBCw7qDT3EIS-g3Wz3-195" value="" style="shape=tableRow;horizontal=0;startSize=0;swimlaneHead=0;swimlaneBody=0;fillColor=none;collapsible=0;dropTarget=0;points=[[0,0.5],[1,0.5]];portConstraint=eastwest;top=0;left=0;right=0;bottom=1;html=1;strokeColor=#000000;" vertex="1" parent="KqZBCw7qDT3EIS-g3Wz3-191">
          <mxGeometry y="60" width="323" height="30" as="geometry" />
        </mxCell>
        <mxCell id="KqZBCw7qDT3EIS-g3Wz3-196" value="PK" style="shape=partialRectangle;connectable=0;fillColor=none;top=0;left=0;bottom=0;right=0;fontStyle=1;overflow=hidden;html=1;whiteSpace=wrap;strokeColor=#000000;" vertex="1" parent="KqZBCw7qDT3EIS-g3Wz3-195">
          <mxGeometry width="60" height="30" as="geometry">
            <mxRectangle width="60" height="30" as="alternateBounds" />
          </mxGeometry>
        </mxCell>
        <mxCell id="KqZBCw7qDT3EIS-g3Wz3-197" value="CorreoPersonalOrganizador: varchar(50)" style="shape=partialRectangle;connectable=0;fillColor=none;top=0;left=0;bottom=0;right=0;align=left;spacingLeft=6;fontStyle=5;overflow=hidden;html=1;whiteSpace=wrap;strokeColor=#000000;" vertex="1" parent="KqZBCw7qDT3EIS-g3Wz3-195">
          <mxGeometry x="60" width="263" height="30" as="geometry">
            <mxRectangle width="263" height="30" as="alternateBounds" />
          </mxGeometry>
        </mxCell>
        <mxCell id="KqZBCw7qDT3EIS-g3Wz3-223" value="Cliente" style="shape=table;startSize=30;container=1;collapsible=1;childLayout=tableLayout;fixedRows=1;rowLines=0;fontStyle=1;align=center;resizeLast=1;html=1;strokeColor=#6c8ebf;fillColor=#dae8fc;" vertex="1" parent="1">
          <mxGeometry x="-1200" y="-1115" width="239" height="360" as="geometry" />
        </mxCell>
        <mxCell id="KqZBCw7qDT3EIS-g3Wz3-224" value="" style="shape=tableRow;horizontal=0;startSize=0;swimlaneHead=0;swimlaneBody=0;fillColor=none;collapsible=0;dropTarget=0;points=[[0,0.5],[1,0.5]];portConstraint=eastwest;top=0;left=0;right=0;bottom=1;strokeColor=#000000;" vertex="1" parent="KqZBCw7qDT3EIS-g3Wz3-223">
          <mxGeometry y="30" width="239" height="30" as="geometry" />
        </mxCell>
        <mxCell id="KqZBCw7qDT3EIS-g3Wz3-225" value="PK" style="shape=partialRectangle;connectable=0;fillColor=none;top=0;left=0;bottom=0;right=0;fontStyle=1;overflow=hidden;whiteSpace=wrap;html=1;strokeColor=#000000;" vertex="1" parent="KqZBCw7qDT3EIS-g3Wz3-224">
          <mxGeometry width="30" height="30" as="geometry">
            <mxRectangle width="30" height="30" as="alternateBounds" />
          </mxGeometry>
        </mxCell>
        <mxCell id="KqZBCw7qDT3EIS-g3Wz3-226" value="IdCliente: serial4" style="shape=partialRectangle;connectable=0;fillColor=none;top=0;left=0;bottom=0;right=0;align=left;spacingLeft=6;fontStyle=5;overflow=hidden;whiteSpace=wrap;html=1;strokeColor=#000000;" vertex="1" parent="KqZBCw7qDT3EIS-g3Wz3-224">
          <mxGeometry x="30" width="209" height="30" as="geometry">
            <mxRectangle width="209" height="30" as="alternateBounds" />
          </mxGeometry>
        </mxCell>
        <mxCell id="KqZBCw7qDT3EIS-g3Wz3-227" value="" style="shape=tableRow;horizontal=0;startSize=0;swimlaneHead=0;swimlaneBody=0;fillColor=none;collapsible=0;dropTarget=0;points=[[0,0.5],[1,0.5]];portConstraint=eastwest;top=0;left=0;right=0;bottom=0;strokeColor=#000000;" vertex="1" parent="KqZBCw7qDT3EIS-g3Wz3-223">
          <mxGeometry y="60" width="239" height="30" as="geometry" />
        </mxCell>
        <mxCell id="KqZBCw7qDT3EIS-g3Wz3-228" value="" style="shape=partialRectangle;connectable=0;fillColor=none;top=0;left=0;bottom=0;right=0;editable=1;overflow=hidden;whiteSpace=wrap;html=1;strokeColor=#000000;" vertex="1" parent="KqZBCw7qDT3EIS-g3Wz3-227">
          <mxGeometry width="30" height="30" as="geometry">
            <mxRectangle width="30" height="30" as="alternateBounds" />
          </mxGeometry>
        </mxCell>
        <mxCell id="KqZBCw7qDT3EIS-g3Wz3-229" value="NombreCliente: varchar(100)" style="shape=partialRectangle;connectable=0;fillColor=none;top=0;left=0;bottom=0;right=0;align=left;spacingLeft=6;overflow=hidden;whiteSpace=wrap;html=1;strokeColor=#000000;" vertex="1" parent="KqZBCw7qDT3EIS-g3Wz3-227">
          <mxGeometry x="30" width="209" height="30" as="geometry">
            <mxRectangle width="209" height="30" as="alternateBounds" />
          </mxGeometry>
        </mxCell>
        <mxCell id="KqZBCw7qDT3EIS-g3Wz3-230" value="" style="shape=tableRow;horizontal=0;startSize=0;swimlaneHead=0;swimlaneBody=0;fillColor=none;collapsible=0;dropTarget=0;points=[[0,0.5],[1,0.5]];portConstraint=eastwest;top=0;left=0;right=0;bottom=0;strokeColor=#000000;" vertex="1" parent="KqZBCw7qDT3EIS-g3Wz3-223">
          <mxGeometry y="90" width="239" height="30" as="geometry" />
        </mxCell>
        <mxCell id="KqZBCw7qDT3EIS-g3Wz3-231" value="" style="shape=partialRectangle;connectable=0;fillColor=none;top=0;left=0;bottom=0;right=0;editable=1;overflow=hidden;whiteSpace=wrap;html=1;strokeColor=#000000;" vertex="1" parent="KqZBCw7qDT3EIS-g3Wz3-230">
          <mxGeometry width="30" height="30" as="geometry">
            <mxRectangle width="30" height="30" as="alternateBounds" />
          </mxGeometry>
        </mxCell>
        <mxCell id="KqZBCw7qDT3EIS-g3Wz3-232" value="APaternoCliente: varchar(100)" style="shape=partialRectangle;connectable=0;fillColor=none;top=0;left=0;bottom=0;right=0;align=left;spacingLeft=6;overflow=hidden;whiteSpace=wrap;html=1;strokeColor=#000000;" vertex="1" parent="KqZBCw7qDT3EIS-g3Wz3-230">
          <mxGeometry x="30" width="209" height="30" as="geometry">
            <mxRectangle width="209" height="30" as="alternateBounds" />
          </mxGeometry>
        </mxCell>
        <mxCell id="KqZBCw7qDT3EIS-g3Wz3-233" value="" style="shape=tableRow;horizontal=0;startSize=0;swimlaneHead=0;swimlaneBody=0;fillColor=none;collapsible=0;dropTarget=0;points=[[0,0.5],[1,0.5]];portConstraint=eastwest;top=0;left=0;right=0;bottom=0;strokeColor=#000000;" vertex="1" parent="KqZBCw7qDT3EIS-g3Wz3-223">
          <mxGeometry y="120" width="239" height="30" as="geometry" />
        </mxCell>
        <mxCell id="KqZBCw7qDT3EIS-g3Wz3-234" value="" style="shape=partialRectangle;connectable=0;fillColor=none;top=0;left=0;bottom=0;right=0;editable=1;overflow=hidden;whiteSpace=wrap;html=1;strokeColor=#000000;" vertex="1" parent="KqZBCw7qDT3EIS-g3Wz3-233">
          <mxGeometry width="30" height="30" as="geometry">
            <mxRectangle width="30" height="30" as="alternateBounds" />
          </mxGeometry>
        </mxCell>
        <mxCell id="KqZBCw7qDT3EIS-g3Wz3-235" value="AMaternoCliente: varchar(100)" style="shape=partialRectangle;connectable=0;fillColor=none;top=0;left=0;bottom=0;right=0;align=left;spacingLeft=6;overflow=hidden;whiteSpace=wrap;html=1;strokeColor=#000000;" vertex="1" parent="KqZBCw7qDT3EIS-g3Wz3-233">
          <mxGeometry x="30" width="209" height="30" as="geometry">
            <mxRectangle width="209" height="30" as="alternateBounds" />
          </mxGeometry>
        </mxCell>
        <mxCell id="KqZBCw7qDT3EIS-g3Wz3-236" value="" style="shape=tableRow;horizontal=0;startSize=0;swimlaneHead=0;swimlaneBody=0;fillColor=none;collapsible=0;dropTarget=0;points=[[0,0.5],[1,0.5]];portConstraint=eastwest;top=0;left=0;right=0;bottom=0;strokeColor=#000000;" vertex="1" parent="KqZBCw7qDT3EIS-g3Wz3-223">
          <mxGeometry y="150" width="239" height="30" as="geometry" />
        </mxCell>
        <mxCell id="KqZBCw7qDT3EIS-g3Wz3-237" value="" style="shape=partialRectangle;connectable=0;fillColor=none;top=0;left=0;bottom=0;right=0;editable=1;overflow=hidden;whiteSpace=wrap;html=1;strokeColor=#000000;" vertex="1" parent="KqZBCw7qDT3EIS-g3Wz3-236">
          <mxGeometry width="30" height="30" as="geometry">
            <mxRectangle width="30" height="30" as="alternateBounds" />
          </mxGeometry>
        </mxCell>
        <mxCell id="KqZBCw7qDT3EIS-g3Wz3-238" value="Calle: varchar(100)" style="shape=partialRectangle;connectable=0;fillColor=none;top=0;left=0;bottom=0;right=0;align=left;spacingLeft=6;overflow=hidden;whiteSpace=wrap;html=1;strokeColor=#000000;" vertex="1" parent="KqZBCw7qDT3EIS-g3Wz3-236">
          <mxGeometry x="30" width="209" height="30" as="geometry">
            <mxRectangle width="209" height="30" as="alternateBounds" />
          </mxGeometry>
        </mxCell>
        <mxCell id="KqZBCw7qDT3EIS-g3Wz3-239" value="" style="shape=tableRow;horizontal=0;startSize=0;swimlaneHead=0;swimlaneBody=0;fillColor=none;collapsible=0;dropTarget=0;points=[[0,0.5],[1,0.5]];portConstraint=eastwest;top=0;left=0;right=0;bottom=0;strokeColor=#000000;" vertex="1" parent="KqZBCw7qDT3EIS-g3Wz3-223">
          <mxGeometry y="180" width="239" height="30" as="geometry" />
        </mxCell>
        <mxCell id="KqZBCw7qDT3EIS-g3Wz3-240" value="" style="shape=partialRectangle;connectable=0;fillColor=none;top=0;left=0;bottom=0;right=0;editable=1;overflow=hidden;whiteSpace=wrap;html=1;strokeColor=#000000;" vertex="1" parent="KqZBCw7qDT3EIS-g3Wz3-239">
          <mxGeometry width="30" height="30" as="geometry">
            <mxRectangle width="30" height="30" as="alternateBounds" />
          </mxGeometry>
        </mxCell>
        <mxCell id="KqZBCw7qDT3EIS-g3Wz3-241" value="NúmeroExterior: varchar(50)" style="shape=partialRectangle;connectable=0;fillColor=none;top=0;left=0;bottom=0;right=0;align=left;spacingLeft=6;overflow=hidden;whiteSpace=wrap;html=1;strokeColor=#000000;" vertex="1" parent="KqZBCw7qDT3EIS-g3Wz3-239">
          <mxGeometry x="30" width="209" height="30" as="geometry">
            <mxRectangle width="209" height="30" as="alternateBounds" />
          </mxGeometry>
        </mxCell>
        <mxCell id="KqZBCw7qDT3EIS-g3Wz3-242" value="" style="shape=tableRow;horizontal=0;startSize=0;swimlaneHead=0;swimlaneBody=0;fillColor=none;collapsible=0;dropTarget=0;points=[[0,0.5],[1,0.5]];portConstraint=eastwest;top=0;left=0;right=0;bottom=0;strokeColor=#000000;" vertex="1" parent="KqZBCw7qDT3EIS-g3Wz3-223">
          <mxGeometry y="210" width="239" height="30" as="geometry" />
        </mxCell>
        <mxCell id="KqZBCw7qDT3EIS-g3Wz3-243" value="" style="shape=partialRectangle;connectable=0;fillColor=none;top=0;left=0;bottom=0;right=0;editable=1;overflow=hidden;whiteSpace=wrap;html=1;strokeColor=#000000;" vertex="1" parent="KqZBCw7qDT3EIS-g3Wz3-242">
          <mxGeometry width="30" height="30" as="geometry">
            <mxRectangle width="30" height="30" as="alternateBounds" />
          </mxGeometry>
        </mxCell>
        <mxCell id="KqZBCw7qDT3EIS-g3Wz3-244" value="NúmeroInterior: varchar(50)" style="shape=partialRectangle;connectable=0;fillColor=none;top=0;left=0;bottom=0;right=0;align=left;spacingLeft=6;overflow=hidden;whiteSpace=wrap;html=1;strokeColor=#000000;" vertex="1" parent="KqZBCw7qDT3EIS-g3Wz3-242">
          <mxGeometry x="30" width="209" height="30" as="geometry">
            <mxRectangle width="209" height="30" as="alternateBounds" />
          </mxGeometry>
        </mxCell>
        <mxCell id="KqZBCw7qDT3EIS-g3Wz3-245" value="" style="shape=tableRow;horizontal=0;startSize=0;swimlaneHead=0;swimlaneBody=0;fillColor=none;collapsible=0;dropTarget=0;points=[[0,0.5],[1,0.5]];portConstraint=eastwest;top=0;left=0;right=0;bottom=0;strokeColor=#000000;" vertex="1" parent="KqZBCw7qDT3EIS-g3Wz3-223">
          <mxGeometry y="240" width="239" height="30" as="geometry" />
        </mxCell>
        <mxCell id="KqZBCw7qDT3EIS-g3Wz3-246" value="" style="shape=partialRectangle;connectable=0;fillColor=none;top=0;left=0;bottom=0;right=0;editable=1;overflow=hidden;whiteSpace=wrap;html=1;strokeColor=#000000;" vertex="1" parent="KqZBCw7qDT3EIS-g3Wz3-245">
          <mxGeometry width="30" height="30" as="geometry">
            <mxRectangle width="30" height="30" as="alternateBounds" />
          </mxGeometry>
        </mxCell>
        <mxCell id="KqZBCw7qDT3EIS-g3Wz3-247" value="Colonia: varchar(100)" style="shape=partialRectangle;connectable=0;fillColor=none;top=0;left=0;bottom=0;right=0;align=left;spacingLeft=6;overflow=hidden;whiteSpace=wrap;html=1;strokeColor=#000000;" vertex="1" parent="KqZBCw7qDT3EIS-g3Wz3-245">
          <mxGeometry x="30" width="209" height="30" as="geometry">
            <mxRectangle width="209" height="30" as="alternateBounds" />
          </mxGeometry>
        </mxCell>
        <mxCell id="KqZBCw7qDT3EIS-g3Wz3-248" value="" style="shape=tableRow;horizontal=0;startSize=0;swimlaneHead=0;swimlaneBody=0;fillColor=none;collapsible=0;dropTarget=0;points=[[0,0.5],[1,0.5]];portConstraint=eastwest;top=0;left=0;right=0;bottom=0;strokeColor=#000000;" vertex="1" parent="KqZBCw7qDT3EIS-g3Wz3-223">
          <mxGeometry y="270" width="239" height="30" as="geometry" />
        </mxCell>
        <mxCell id="KqZBCw7qDT3EIS-g3Wz3-249" value="" style="shape=partialRectangle;connectable=0;fillColor=none;top=0;left=0;bottom=0;right=0;editable=1;overflow=hidden;whiteSpace=wrap;html=1;strokeColor=#000000;" vertex="1" parent="KqZBCw7qDT3EIS-g3Wz3-248">
          <mxGeometry width="30" height="30" as="geometry">
            <mxRectangle width="30" height="30" as="alternateBounds" />
          </mxGeometry>
        </mxCell>
        <mxCell id="KqZBCw7qDT3EIS-g3Wz3-250" value="Estado: varchar(100)" style="shape=partialRectangle;connectable=0;fillColor=none;top=0;left=0;bottom=0;right=0;align=left;spacingLeft=6;overflow=hidden;whiteSpace=wrap;html=1;strokeColor=#000000;" vertex="1" parent="KqZBCw7qDT3EIS-g3Wz3-248">
          <mxGeometry x="30" width="209" height="30" as="geometry">
            <mxRectangle width="209" height="30" as="alternateBounds" />
          </mxGeometry>
        </mxCell>
        <mxCell id="KqZBCw7qDT3EIS-g3Wz3-254" value="" style="shape=tableRow;horizontal=0;startSize=0;swimlaneHead=0;swimlaneBody=0;fillColor=none;collapsible=0;dropTarget=0;points=[[0,0.5],[1,0.5]];portConstraint=eastwest;top=0;left=0;right=0;bottom=0;strokeColor=#000000;" vertex="1" parent="KqZBCw7qDT3EIS-g3Wz3-223">
          <mxGeometry y="300" width="239" height="30" as="geometry" />
        </mxCell>
        <mxCell id="KqZBCw7qDT3EIS-g3Wz3-255" value="" style="shape=partialRectangle;connectable=0;fillColor=none;top=0;left=0;bottom=0;right=0;editable=1;overflow=hidden;whiteSpace=wrap;html=1;strokeColor=#000000;" vertex="1" parent="KqZBCw7qDT3EIS-g3Wz3-254">
          <mxGeometry width="30" height="30" as="geometry">
            <mxRectangle width="30" height="30" as="alternateBounds" />
          </mxGeometry>
        </mxCell>
        <mxCell id="KqZBCw7qDT3EIS-g3Wz3-256" value="EsFísico: bool" style="shape=partialRectangle;connectable=0;fillColor=none;top=0;left=0;bottom=0;right=0;align=left;spacingLeft=6;overflow=hidden;whiteSpace=wrap;html=1;strokeColor=#000000;" vertex="1" parent="KqZBCw7qDT3EIS-g3Wz3-254">
          <mxGeometry x="30" width="209" height="30" as="geometry">
            <mxRectangle width="209" height="30" as="alternateBounds" />
          </mxGeometry>
        </mxCell>
        <mxCell id="KqZBCw7qDT3EIS-g3Wz3-251" value="" style="shape=tableRow;horizontal=0;startSize=0;swimlaneHead=0;swimlaneBody=0;fillColor=none;collapsible=0;dropTarget=0;points=[[0,0.5],[1,0.5]];portConstraint=eastwest;top=0;left=0;right=0;bottom=0;strokeColor=#000000;" vertex="1" parent="KqZBCw7qDT3EIS-g3Wz3-223">
          <mxGeometry y="330" width="239" height="30" as="geometry" />
        </mxCell>
        <mxCell id="KqZBCw7qDT3EIS-g3Wz3-252" value="" style="shape=partialRectangle;connectable=0;fillColor=none;top=0;left=0;bottom=0;right=0;editable=1;overflow=hidden;whiteSpace=wrap;html=1;strokeColor=#000000;" vertex="1" parent="KqZBCw7qDT3EIS-g3Wz3-251">
          <mxGeometry width="30" height="30" as="geometry">
            <mxRectangle width="30" height="30" as="alternateBounds" />
          </mxGeometry>
        </mxCell>
        <mxCell id="KqZBCw7qDT3EIS-g3Wz3-253" value="EsVirtual: bool" style="shape=partialRectangle;connectable=0;fillColor=none;top=0;left=0;bottom=0;right=0;align=left;spacingLeft=6;overflow=hidden;whiteSpace=wrap;html=1;strokeColor=#000000;" vertex="1" parent="KqZBCw7qDT3EIS-g3Wz3-251">
          <mxGeometry x="30" width="209" height="30" as="geometry">
            <mxRectangle width="209" height="30" as="alternateBounds" />
          </mxGeometry>
        </mxCell>
        <mxCell id="6fX9lxbyq94_J9ux3wZG-23" value="AmenidadBazar" style="shape=table;startSize=30;container=1;collapsible=1;childLayout=tableLayout;fixedRows=1;rowLines=0;fontStyle=1;align=center;resizeLast=1;html=1;whiteSpace=wrap;strokeColor=#6c8ebf;fillColor=#dae8fc;" vertex="1" parent="1">
          <mxGeometry x="-1600" y="-360" width="270" height="90" as="geometry" />
        </mxCell>
        <mxCell id="6fX9lxbyq94_J9ux3wZG-24" value="" style="shape=tableRow;horizontal=0;startSize=0;swimlaneHead=0;swimlaneBody=0;fillColor=none;collapsible=0;dropTarget=0;points=[[0,0.5],[1,0.5]];portConstraint=eastwest;top=0;left=0;right=0;bottom=0;html=1;strokeColor=#000000;" vertex="1" parent="6fX9lxbyq94_J9ux3wZG-23">
          <mxGeometry y="30" width="270" height="30" as="geometry" />
        </mxCell>
        <mxCell id="6fX9lxbyq94_J9ux3wZG-25" value="PK1,FK" style="shape=partialRectangle;connectable=0;fillColor=none;top=0;left=0;bottom=0;right=0;fontStyle=1;overflow=hidden;html=1;whiteSpace=wrap;strokeColor=#000000;" vertex="1" parent="6fX9lxbyq94_J9ux3wZG-24">
          <mxGeometry width="60" height="30" as="geometry">
            <mxRectangle width="60" height="30" as="alternateBounds" />
          </mxGeometry>
        </mxCell>
        <mxCell id="6fX9lxbyq94_J9ux3wZG-26" value="idBazar: int" style="shape=partialRectangle;connectable=0;fillColor=none;top=0;left=0;bottom=0;right=0;align=left;spacingLeft=6;fontStyle=5;overflow=hidden;html=1;whiteSpace=wrap;strokeColor=#000000;" vertex="1" parent="6fX9lxbyq94_J9ux3wZG-24">
          <mxGeometry x="60" width="210" height="30" as="geometry">
            <mxRectangle width="210" height="30" as="alternateBounds" />
          </mxGeometry>
        </mxCell>
        <mxCell id="6fX9lxbyq94_J9ux3wZG-27" value="" style="shape=tableRow;horizontal=0;startSize=0;swimlaneHead=0;swimlaneBody=0;fillColor=none;collapsible=0;dropTarget=0;points=[[0,0.5],[1,0.5]];portConstraint=eastwest;top=0;left=0;right=0;bottom=1;html=1;strokeColor=#000000;" vertex="1" parent="6fX9lxbyq94_J9ux3wZG-23">
          <mxGeometry y="60" width="270" height="30" as="geometry" />
        </mxCell>
        <mxCell id="6fX9lxbyq94_J9ux3wZG-28" value="PK2" style="shape=partialRectangle;connectable=0;fillColor=none;top=0;left=0;bottom=0;right=0;fontStyle=1;overflow=hidden;html=1;whiteSpace=wrap;strokeColor=#000000;" vertex="1" parent="6fX9lxbyq94_J9ux3wZG-27">
          <mxGeometry width="60" height="30" as="geometry">
            <mxRectangle width="60" height="30" as="alternateBounds" />
          </mxGeometry>
        </mxCell>
        <mxCell id="6fX9lxbyq94_J9ux3wZG-29" value="AmenidadBazar: varchar(100)" style="shape=partialRectangle;connectable=0;fillColor=none;top=0;left=0;bottom=0;right=0;align=left;spacingLeft=6;fontStyle=5;overflow=hidden;html=1;whiteSpace=wrap;strokeColor=#000000;" vertex="1" parent="6fX9lxbyq94_J9ux3wZG-27">
          <mxGeometry x="60" width="210" height="30" as="geometry">
            <mxRectangle width="210" height="30" as="alternateBounds" />
          </mxGeometry>
        </mxCell>
        <mxCell id="1e2vcabvKx_bJ4QMMa11-4" value="Tarjeta" style="shape=table;startSize=30;container=1;collapsible=1;childLayout=tableLayout;fixedRows=1;rowLines=0;fontStyle=1;align=center;resizeLast=1;html=1;whiteSpace=wrap;strokeColor=#6c8ebf;fillColor=#dae8fc;" vertex="1" parent="1">
          <mxGeometry x="-1600" y="-1160" width="240" height="150" as="geometry" />
        </mxCell>
        <mxCell id="1e2vcabvKx_bJ4QMMa11-5" value="" style="shape=tableRow;horizontal=0;startSize=0;swimlaneHead=0;swimlaneBody=0;fillColor=none;collapsible=0;dropTarget=0;points=[[0,0.5],[1,0.5]];portConstraint=eastwest;top=0;left=0;right=0;bottom=0;html=1;strokeColor=#000000;" vertex="1" parent="1e2vcabvKx_bJ4QMMa11-4">
          <mxGeometry y="30" width="240" height="30" as="geometry" />
        </mxCell>
        <mxCell id="1e2vcabvKx_bJ4QMMa11-6" value="PK" style="shape=partialRectangle;connectable=0;fillColor=none;top=0;left=0;bottom=0;right=0;fontStyle=1;overflow=hidden;html=1;whiteSpace=wrap;strokeColor=#000000;" vertex="1" parent="1e2vcabvKx_bJ4QMMa11-5">
          <mxGeometry width="60" height="30" as="geometry">
            <mxRectangle width="60" height="30" as="alternateBounds" />
          </mxGeometry>
        </mxCell>
        <mxCell id="1e2vcabvKx_bJ4QMMa11-7" value="NúmeroTarjeta: char(16)" style="shape=partialRectangle;connectable=0;fillColor=none;top=0;left=0;bottom=0;right=0;align=left;spacingLeft=6;fontStyle=5;overflow=hidden;html=1;whiteSpace=wrap;strokeColor=#000000;" vertex="1" parent="1e2vcabvKx_bJ4QMMa11-5">
          <mxGeometry x="60" width="180" height="30" as="geometry">
            <mxRectangle width="180" height="30" as="alternateBounds" />
          </mxGeometry>
        </mxCell>
        <mxCell id="1e2vcabvKx_bJ4QMMa11-8" value="" style="shape=tableRow;horizontal=0;startSize=0;swimlaneHead=0;swimlaneBody=0;fillColor=none;collapsible=0;dropTarget=0;points=[[0,0.5],[1,0.5]];portConstraint=eastwest;top=0;left=0;right=0;bottom=1;html=1;strokeColor=#000000;" vertex="1" parent="1e2vcabvKx_bJ4QMMa11-4">
          <mxGeometry y="60" width="240" height="30" as="geometry" />
        </mxCell>
        <mxCell id="1e2vcabvKx_bJ4QMMa11-9" value="FK1" style="shape=partialRectangle;connectable=0;fillColor=none;top=0;left=0;bottom=0;right=0;fontStyle=1;overflow=hidden;html=1;whiteSpace=wrap;strokeColor=#000000;" vertex="1" parent="1e2vcabvKx_bJ4QMMa11-8">
          <mxGeometry width="60" height="30" as="geometry">
            <mxRectangle width="60" height="30" as="alternateBounds" />
          </mxGeometry>
        </mxCell>
        <mxCell id="1e2vcabvKx_bJ4QMMa11-10" value="IdCliente: int" style="shape=partialRectangle;connectable=0;fillColor=none;top=0;left=0;bottom=0;right=0;align=left;spacingLeft=6;fontStyle=5;overflow=hidden;html=1;whiteSpace=wrap;strokeColor=#000000;" vertex="1" parent="1e2vcabvKx_bJ4QMMa11-8">
          <mxGeometry x="60" width="180" height="30" as="geometry">
            <mxRectangle width="180" height="30" as="alternateBounds" />
          </mxGeometry>
        </mxCell>
        <mxCell id="1e2vcabvKx_bJ4QMMa11-11" value="" style="shape=tableRow;horizontal=0;startSize=0;swimlaneHead=0;swimlaneBody=0;fillColor=none;collapsible=0;dropTarget=0;points=[[0,0.5],[1,0.5]];portConstraint=eastwest;top=0;left=0;right=0;bottom=0;html=1;strokeColor=#000000;" vertex="1" parent="1e2vcabvKx_bJ4QMMa11-4">
          <mxGeometry y="90" width="240" height="30" as="geometry" />
        </mxCell>
        <mxCell id="1e2vcabvKx_bJ4QMMa11-12" value="" style="shape=partialRectangle;connectable=0;fillColor=none;top=0;left=0;bottom=0;right=0;editable=1;overflow=hidden;html=1;whiteSpace=wrap;strokeColor=#000000;" vertex="1" parent="1e2vcabvKx_bJ4QMMa11-11">
          <mxGeometry width="60" height="30" as="geometry">
            <mxRectangle width="60" height="30" as="alternateBounds" />
          </mxGeometry>
        </mxCell>
        <mxCell id="1e2vcabvKx_bJ4QMMa11-13" value="Vencimiento: date" style="shape=partialRectangle;connectable=0;fillColor=none;top=0;left=0;bottom=0;right=0;align=left;spacingLeft=6;overflow=hidden;html=1;whiteSpace=wrap;strokeColor=#000000;" vertex="1" parent="1e2vcabvKx_bJ4QMMa11-11">
          <mxGeometry x="60" width="180" height="30" as="geometry">
            <mxRectangle width="180" height="30" as="alternateBounds" />
          </mxGeometry>
        </mxCell>
        <mxCell id="1e2vcabvKx_bJ4QMMa11-14" value="" style="shape=tableRow;horizontal=0;startSize=0;swimlaneHead=0;swimlaneBody=0;fillColor=none;collapsible=0;dropTarget=0;points=[[0,0.5],[1,0.5]];portConstraint=eastwest;top=0;left=0;right=0;bottom=0;html=1;strokeColor=#000000;" vertex="1" parent="1e2vcabvKx_bJ4QMMa11-4">
          <mxGeometry y="120" width="240" height="30" as="geometry" />
        </mxCell>
        <mxCell id="1e2vcabvKx_bJ4QMMa11-15" value="" style="shape=partialRectangle;connectable=0;fillColor=none;top=0;left=0;bottom=0;right=0;editable=1;overflow=hidden;html=1;whiteSpace=wrap;strokeColor=#000000;" vertex="1" parent="1e2vcabvKx_bJ4QMMa11-14">
          <mxGeometry width="60" height="30" as="geometry">
            <mxRectangle width="60" height="30" as="alternateBounds" />
          </mxGeometry>
        </mxCell>
        <mxCell id="1e2vcabvKx_bJ4QMMa11-16" value="CVV: varchar(4)" style="shape=partialRectangle;connectable=0;fillColor=none;top=0;left=0;bottom=0;right=0;align=left;spacingLeft=6;overflow=hidden;html=1;whiteSpace=wrap;strokeColor=#000000;" vertex="1" parent="1e2vcabvKx_bJ4QMMa11-14">
          <mxGeometry x="60" width="180" height="30" as="geometry">
            <mxRectangle width="180" height="30" as="alternateBounds" />
          </mxGeometry>
        </mxCell>
        <mxCell id="lPWEa0LkZSCRpqWwWUgu-3" value="" style="edgeStyle=orthogonalEdgeStyle;fontSize=12;html=1;endArrow=ERoneToMany;startArrow=ERzeroToOne;rounded=0;exitX=0;exitY=0.5;exitDx=0;exitDy=0;entryX=1;entryY=0.5;entryDx=0;entryDy=0;fillColor=#e1d5e7;strokeColor=#000000;" edge="1" parent="1" source="KqZBCw7qDT3EIS-g3Wz3-2" target="6fX9lxbyq94_J9ux3wZG-24">
          <mxGeometry width="100" height="100" relative="1" as="geometry">
            <mxPoint x="-1180" y="-120" as="sourcePoint" />
            <mxPoint x="-1080" y="-220" as="targetPoint" />
          </mxGeometry>
        </mxCell>
        <mxCell id="lPWEa0LkZSCRpqWwWUgu-4" value="" style="fontSize=12;html=1;endArrow=ERoneToMany;startArrow=ERzeroToOne;rounded=1;exitX=0;exitY=0.5;exitDx=0;exitDy=0;fillColor=#e1d5e7;strokeColor=#000000;entryX=0;entryY=0.5;entryDx=0;entryDy=0;edgeStyle=orthogonalEdgeStyle;" edge="1" parent="1" source="KqZBCw7qDT3EIS-g3Wz3-72" target="KqZBCw7qDT3EIS-g3Wz3-88">
          <mxGeometry width="100" height="100" relative="1" as="geometry">
            <mxPoint x="2090" y="-949" as="sourcePoint" />
            <mxPoint x="2150" y="-1059" as="targetPoint" />
            <Array as="points">
              <mxPoint x="1450" y="-950" />
              <mxPoint x="1450" y="-1119" />
            </Array>
          </mxGeometry>
        </mxCell>
        <mxCell id="lPWEa0LkZSCRpqWwWUgu-5" value="" style="fontSize=12;html=1;endArrow=ERoneToMany;startArrow=ERzeroToOne;rounded=1;exitX=0;exitY=0.5;exitDx=0;exitDy=0;entryX=0;entryY=0.5;entryDx=0;entryDy=0;fillColor=#e1d5e7;strokeColor=#000000;edgeStyle=orthogonalEdgeStyle;" edge="1" parent="1" source="KqZBCw7qDT3EIS-g3Wz3-72" target="KqZBCw7qDT3EIS-g3Wz3-95">
          <mxGeometry width="100" height="100" relative="1" as="geometry">
            <mxPoint x="2150" y="-1009" as="sourcePoint" />
            <mxPoint x="2020" y="-1009" as="targetPoint" />
            <Array as="points">
              <mxPoint x="1450" y="-950" />
              <mxPoint x="1450" y="-1120" />
              <mxPoint x="1940" y="-1120" />
              <mxPoint x="1940" y="-935" />
            </Array>
          </mxGeometry>
        </mxCell>
        <mxCell id="lPWEa0LkZSCRpqWwWUgu-6" value="" style="fontSize=12;html=1;endArrow=ERoneToMany;startArrow=ERzeroToOne;rounded=1;exitX=0;exitY=0.5;exitDx=0;exitDy=0;entryX=0;entryY=0.5;entryDx=0;entryDy=0;fillColor=#e1d5e7;strokeColor=#000000;edgeStyle=orthogonalEdgeStyle;" edge="1" parent="1" source="KqZBCw7qDT3EIS-g3Wz3-72" target="KqZBCw7qDT3EIS-g3Wz3-102">
          <mxGeometry width="100" height="100" relative="1" as="geometry">
            <mxPoint x="2140" y="-909" as="sourcePoint" />
            <mxPoint x="2010" y="-909" as="targetPoint" />
            <Array as="points">
              <mxPoint x="1450" y="-950" />
              <mxPoint x="1450" y="-1120" />
              <mxPoint x="1940" y="-1120" />
              <mxPoint x="1940" y="-804" />
            </Array>
          </mxGeometry>
        </mxCell>
        <mxCell id="lPWEa0LkZSCRpqWwWUgu-7" value="" style="edgeStyle=orthogonalEdgeStyle;fontSize=12;html=1;endArrow=ERoneToMany;startArrow=ERzeroToOne;rounded=0;exitX=1;exitY=0.5;exitDx=0;exitDy=0;entryX=0;entryY=0.5;entryDx=0;entryDy=0;fillColor=#e1d5e7;strokeColor=#000000;" edge="1" parent="1" source="KqZBCw7qDT3EIS-g3Wz3-109" target="KqZBCw7qDT3EIS-g3Wz3-122">
          <mxGeometry width="100" height="100" relative="1" as="geometry">
            <mxPoint x="1110" y="1070" as="sourcePoint" />
            <mxPoint x="980" y="1070" as="targetPoint" />
          </mxGeometry>
        </mxCell>
        <mxCell id="lPWEa0LkZSCRpqWwWUgu-8" value="" style="fontSize=12;html=1;endArrow=ERoneToMany;startArrow=ERzeroToOne;rounded=1;entryX=0;entryY=0.5;entryDx=0;entryDy=0;fillColor=#e1d5e7;strokeColor=#000000;exitX=1;exitY=0.5;exitDx=0;exitDy=0;edgeStyle=orthogonalEdgeStyle;" edge="1" parent="1" source="S8e-CZil9d1Lbf8FHhQe-2" target="KqZBCw7qDT3EIS-g3Wz3-178">
          <mxGeometry width="100" height="100" relative="1" as="geometry">
            <mxPoint x="-520" y="60" as="sourcePoint" />
            <mxPoint x="-570" y="130" as="targetPoint" />
          </mxGeometry>
        </mxCell>
        <mxCell id="lPWEa0LkZSCRpqWwWUgu-9" value="" style="fontSize=12;html=1;endArrow=ERoneToMany;startArrow=ERzeroToOne;rounded=1;entryX=0;entryY=0.5;entryDx=0;entryDy=0;fillColor=#e1d5e7;strokeColor=#000000;exitX=1;exitY=0.5;exitDx=0;exitDy=0;edgeStyle=orthogonalEdgeStyle;" edge="1" parent="1" source="S8e-CZil9d1Lbf8FHhQe-2" target="KqZBCw7qDT3EIS-g3Wz3-185">
          <mxGeometry width="100" height="100" relative="1" as="geometry">
            <mxPoint x="320" y="200" as="sourcePoint" />
            <mxPoint x="-540" y="230" as="targetPoint" />
          </mxGeometry>
        </mxCell>
        <mxCell id="lPWEa0LkZSCRpqWwWUgu-10" value="" style="fontSize=12;html=1;endArrow=ERoneToMany;startArrow=ERzeroToOne;rounded=1;entryX=0;entryY=0.5;entryDx=0;entryDy=0;fillColor=#e1d5e7;strokeColor=#000000;exitX=1;exitY=0.5;exitDx=0;exitDy=0;edgeStyle=orthogonalEdgeStyle;" edge="1" parent="1" source="S8e-CZil9d1Lbf8FHhQe-2" target="KqZBCw7qDT3EIS-g3Wz3-192">
          <mxGeometry width="100" height="100" relative="1" as="geometry">
            <mxPoint x="-40" y="160" as="sourcePoint" />
            <mxPoint x="-480" y="220" as="targetPoint" />
          </mxGeometry>
        </mxCell>
        <mxCell id="lPWEa0LkZSCRpqWwWUgu-11" value="" style="edgeStyle=orthogonalEdgeStyle;fontSize=12;html=1;endArrow=ERoneToMany;startArrow=ERzeroToOne;rounded=1;exitX=0;exitY=0.5;exitDx=0;exitDy=0;entryX=1;entryY=0.5;entryDx=0;entryDy=0;fillColor=#e1d5e7;strokeColor=#000000;curved=0;" edge="1" parent="1" source="KqZBCw7qDT3EIS-g3Wz3-224" target="KqZBCw7qDT3EIS-g3Wz3-59">
          <mxGeometry width="100" height="100" relative="1" as="geometry">
            <mxPoint x="-1280" y="-1020" as="sourcePoint" />
            <mxPoint x="-1410" y="-1020" as="targetPoint" />
          </mxGeometry>
        </mxCell>
        <mxCell id="lPWEa0LkZSCRpqWwWUgu-12" value="Producto" style="shape=table;startSize=30;container=1;collapsible=1;childLayout=tableLayout;fixedRows=1;rowLines=0;fontStyle=1;align=center;resizeLast=1;html=1;whiteSpace=wrap;strokeColor=#6c8ebf;fillColor=#dae8fc;" vertex="1" parent="1">
          <mxGeometry x="506" y="-1049" width="240" height="270" as="geometry" />
        </mxCell>
        <mxCell id="lPWEa0LkZSCRpqWwWUgu-13" value="" style="shape=tableRow;horizontal=0;startSize=0;swimlaneHead=0;swimlaneBody=0;fillColor=none;collapsible=0;dropTarget=0;points=[[0,0.5],[1,0.5]];portConstraint=eastwest;top=0;left=0;right=0;bottom=0;html=1;strokeColor=#000000;" vertex="1" parent="lPWEa0LkZSCRpqWwWUgu-12">
          <mxGeometry y="30" width="240" height="30" as="geometry" />
        </mxCell>
        <mxCell id="lPWEa0LkZSCRpqWwWUgu-14" value="PK1,FK" style="shape=partialRectangle;connectable=0;fillColor=none;top=0;left=0;bottom=0;right=0;fontStyle=1;overflow=hidden;html=1;whiteSpace=wrap;strokeColor=#000000;" vertex="1" parent="lPWEa0LkZSCRpqWwWUgu-13">
          <mxGeometry width="60" height="30" as="geometry">
            <mxRectangle width="60" height="30" as="alternateBounds" />
          </mxGeometry>
        </mxCell>
        <mxCell id="lPWEa0LkZSCRpqWwWUgu-15" value="IdNegocio: int" style="shape=partialRectangle;connectable=0;fillColor=none;top=0;left=0;bottom=0;right=0;align=left;spacingLeft=6;fontStyle=5;overflow=hidden;html=1;whiteSpace=wrap;strokeColor=#000000;" vertex="1" parent="lPWEa0LkZSCRpqWwWUgu-13">
          <mxGeometry x="60" width="180" height="30" as="geometry">
            <mxRectangle width="180" height="30" as="alternateBounds" />
          </mxGeometry>
        </mxCell>
        <mxCell id="lPWEa0LkZSCRpqWwWUgu-16" value="" style="shape=tableRow;horizontal=0;startSize=0;swimlaneHead=0;swimlaneBody=0;fillColor=none;collapsible=0;dropTarget=0;points=[[0,0.5],[1,0.5]];portConstraint=eastwest;top=0;left=0;right=0;bottom=1;html=1;strokeColor=#000000;" vertex="1" parent="lPWEa0LkZSCRpqWwWUgu-12">
          <mxGeometry y="60" width="240" height="30" as="geometry" />
        </mxCell>
        <mxCell id="lPWEa0LkZSCRpqWwWUgu-17" value="PK2" style="shape=partialRectangle;connectable=0;fillColor=none;top=0;left=0;bottom=0;right=0;fontStyle=1;overflow=hidden;html=1;whiteSpace=wrap;strokeColor=#000000;" vertex="1" parent="lPWEa0LkZSCRpqWwWUgu-16">
          <mxGeometry width="60" height="30" as="geometry">
            <mxRectangle width="60" height="30" as="alternateBounds" />
          </mxGeometry>
        </mxCell>
        <mxCell id="lPWEa0LkZSCRpqWwWUgu-18" value="idProducto: serial4" style="shape=partialRectangle;connectable=0;fillColor=none;top=0;left=0;bottom=0;right=0;align=left;spacingLeft=6;fontStyle=5;overflow=hidden;html=1;whiteSpace=wrap;strokeColor=#000000;" vertex="1" parent="lPWEa0LkZSCRpqWwWUgu-16">
          <mxGeometry x="60" width="180" height="30" as="geometry">
            <mxRectangle width="180" height="30" as="alternateBounds" />
          </mxGeometry>
        </mxCell>
        <mxCell id="lPWEa0LkZSCRpqWwWUgu-19" value="" style="shape=tableRow;horizontal=0;startSize=0;swimlaneHead=0;swimlaneBody=0;fillColor=none;collapsible=0;dropTarget=0;points=[[0,0.5],[1,0.5]];portConstraint=eastwest;top=0;left=0;right=0;bottom=0;html=1;strokeColor=#000000;" vertex="1" parent="lPWEa0LkZSCRpqWwWUgu-12">
          <mxGeometry y="90" width="240" height="30" as="geometry" />
        </mxCell>
        <mxCell id="lPWEa0LkZSCRpqWwWUgu-20" value="" style="shape=partialRectangle;connectable=0;fillColor=none;top=0;left=0;bottom=0;right=0;editable=1;overflow=hidden;html=1;whiteSpace=wrap;strokeColor=#000000;" vertex="1" parent="lPWEa0LkZSCRpqWwWUgu-19">
          <mxGeometry width="60" height="30" as="geometry">
            <mxRectangle width="60" height="30" as="alternateBounds" />
          </mxGeometry>
        </mxCell>
        <mxCell id="lPWEa0LkZSCRpqWwWUgu-21" value="NombreProducto:varchar(100)" style="shape=partialRectangle;connectable=0;fillColor=none;top=0;left=0;bottom=0;right=0;align=left;spacingLeft=6;overflow=hidden;html=1;whiteSpace=wrap;strokeColor=#000000;" vertex="1" parent="lPWEa0LkZSCRpqWwWUgu-19">
          <mxGeometry x="60" width="180" height="30" as="geometry">
            <mxRectangle width="180" height="30" as="alternateBounds" />
          </mxGeometry>
        </mxCell>
        <mxCell id="lPWEa0LkZSCRpqWwWUgu-22" value="" style="shape=tableRow;horizontal=0;startSize=0;swimlaneHead=0;swimlaneBody=0;fillColor=none;collapsible=0;dropTarget=0;points=[[0,0.5],[1,0.5]];portConstraint=eastwest;top=0;left=0;right=0;bottom=0;html=1;strokeColor=#000000;" vertex="1" parent="lPWEa0LkZSCRpqWwWUgu-12">
          <mxGeometry y="120" width="240" height="30" as="geometry" />
        </mxCell>
        <mxCell id="lPWEa0LkZSCRpqWwWUgu-23" value="" style="shape=partialRectangle;connectable=0;fillColor=none;top=0;left=0;bottom=0;right=0;editable=1;overflow=hidden;html=1;whiteSpace=wrap;strokeColor=#000000;" vertex="1" parent="lPWEa0LkZSCRpqWwWUgu-22">
          <mxGeometry width="60" height="30" as="geometry">
            <mxRectangle width="60" height="30" as="alternateBounds" />
          </mxGeometry>
        </mxCell>
        <mxCell id="lPWEa0LkZSCRpqWwWUgu-24" value="Descripción: text" style="shape=partialRectangle;connectable=0;fillColor=none;top=0;left=0;bottom=0;right=0;align=left;spacingLeft=6;overflow=hidden;html=1;whiteSpace=wrap;strokeColor=#000000;" vertex="1" parent="lPWEa0LkZSCRpqWwWUgu-22">
          <mxGeometry x="60" width="180" height="30" as="geometry">
            <mxRectangle width="180" height="30" as="alternateBounds" />
          </mxGeometry>
        </mxCell>
        <mxCell id="lPWEa0LkZSCRpqWwWUgu-38" value="" style="shape=tableRow;horizontal=0;startSize=0;swimlaneHead=0;swimlaneBody=0;fillColor=none;collapsible=0;dropTarget=0;points=[[0,0.5],[1,0.5]];portConstraint=eastwest;top=0;left=0;right=0;bottom=0;html=1;strokeColor=#000000;" vertex="1" parent="lPWEa0LkZSCRpqWwWUgu-12">
          <mxGeometry y="150" width="240" height="30" as="geometry" />
        </mxCell>
        <mxCell id="lPWEa0LkZSCRpqWwWUgu-39" value="" style="shape=partialRectangle;connectable=0;fillColor=none;top=0;left=0;bottom=0;right=0;editable=1;overflow=hidden;html=1;whiteSpace=wrap;strokeColor=#000000;" vertex="1" parent="lPWEa0LkZSCRpqWwWUgu-38">
          <mxGeometry width="60" height="30" as="geometry">
            <mxRectangle width="60" height="30" as="alternateBounds" />
          </mxGeometry>
        </mxCell>
        <mxCell id="lPWEa0LkZSCRpqWwWUgu-40" value="Tipo: varchar(50)" style="shape=partialRectangle;connectable=0;fillColor=none;top=0;left=0;bottom=0;right=0;align=left;spacingLeft=6;overflow=hidden;html=1;whiteSpace=wrap;strokeColor=#000000;" vertex="1" parent="lPWEa0LkZSCRpqWwWUgu-38">
          <mxGeometry x="60" width="180" height="30" as="geometry">
            <mxRectangle width="180" height="30" as="alternateBounds" />
          </mxGeometry>
        </mxCell>
        <mxCell id="lPWEa0LkZSCRpqWwWUgu-41" value="" style="shape=tableRow;horizontal=0;startSize=0;swimlaneHead=0;swimlaneBody=0;fillColor=none;collapsible=0;dropTarget=0;points=[[0,0.5],[1,0.5]];portConstraint=eastwest;top=0;left=0;right=0;bottom=0;html=1;strokeColor=#000000;" vertex="1" parent="lPWEa0LkZSCRpqWwWUgu-12">
          <mxGeometry y="180" width="240" height="30" as="geometry" />
        </mxCell>
        <mxCell id="lPWEa0LkZSCRpqWwWUgu-42" value="" style="shape=partialRectangle;connectable=0;fillColor=none;top=0;left=0;bottom=0;right=0;editable=1;overflow=hidden;html=1;whiteSpace=wrap;strokeColor=#000000;" vertex="1" parent="lPWEa0LkZSCRpqWwWUgu-41">
          <mxGeometry width="60" height="30" as="geometry">
            <mxRectangle width="60" height="30" as="alternateBounds" />
          </mxGeometry>
        </mxCell>
        <mxCell id="lPWEa0LkZSCRpqWwWUgu-43" value="Precio: money" style="shape=partialRectangle;connectable=0;fillColor=none;top=0;left=0;bottom=0;right=0;align=left;spacingLeft=6;overflow=hidden;html=1;whiteSpace=wrap;strokeColor=#000000;" vertex="1" parent="lPWEa0LkZSCRpqWwWUgu-41">
          <mxGeometry x="60" width="180" height="30" as="geometry">
            <mxRectangle width="180" height="30" as="alternateBounds" />
          </mxGeometry>
        </mxCell>
        <mxCell id="lPWEa0LkZSCRpqWwWUgu-44" value="" style="shape=tableRow;horizontal=0;startSize=0;swimlaneHead=0;swimlaneBody=0;fillColor=none;collapsible=0;dropTarget=0;points=[[0,0.5],[1,0.5]];portConstraint=eastwest;top=0;left=0;right=0;bottom=0;html=1;strokeColor=#000000;" vertex="1" parent="lPWEa0LkZSCRpqWwWUgu-12">
          <mxGeometry y="210" width="240" height="30" as="geometry" />
        </mxCell>
        <mxCell id="lPWEa0LkZSCRpqWwWUgu-45" value="" style="shape=partialRectangle;connectable=0;fillColor=none;top=0;left=0;bottom=0;right=0;editable=1;overflow=hidden;html=1;whiteSpace=wrap;strokeColor=#000000;" vertex="1" parent="lPWEa0LkZSCRpqWwWUgu-44">
          <mxGeometry width="60" height="30" as="geometry">
            <mxRectangle width="60" height="30" as="alternateBounds" />
          </mxGeometry>
        </mxCell>
        <mxCell id="lPWEa0LkZSCRpqWwWUgu-46" value="Presentación: varchar(100)" style="shape=partialRectangle;connectable=0;fillColor=none;top=0;left=0;bottom=0;right=0;align=left;spacingLeft=6;overflow=hidden;html=1;whiteSpace=wrap;strokeColor=#000000;" vertex="1" parent="lPWEa0LkZSCRpqWwWUgu-44">
          <mxGeometry x="60" width="180" height="30" as="geometry">
            <mxRectangle width="180" height="30" as="alternateBounds" />
          </mxGeometry>
        </mxCell>
        <mxCell id="lPWEa0LkZSCRpqWwWUgu-69" value="" style="shape=tableRow;horizontal=0;startSize=0;swimlaneHead=0;swimlaneBody=0;fillColor=none;collapsible=0;dropTarget=0;points=[[0,0.5],[1,0.5]];portConstraint=eastwest;top=0;left=0;right=0;bottom=0;html=1;strokeColor=#000000;" vertex="1" parent="lPWEa0LkZSCRpqWwWUgu-12">
          <mxGeometry y="240" width="240" height="30" as="geometry" />
        </mxCell>
        <mxCell id="lPWEa0LkZSCRpqWwWUgu-70" value="" style="shape=partialRectangle;connectable=0;fillColor=none;top=0;left=0;bottom=0;right=0;editable=1;overflow=hidden;html=1;whiteSpace=wrap;strokeColor=#000000;" vertex="1" parent="lPWEa0LkZSCRpqWwWUgu-69">
          <mxGeometry width="60" height="30" as="geometry">
            <mxRectangle width="60" height="30" as="alternateBounds" />
          </mxGeometry>
        </mxCell>
        <mxCell id="lPWEa0LkZSCRpqWwWUgu-71" value="Stock: int" style="shape=partialRectangle;connectable=0;fillColor=none;top=0;left=0;bottom=0;right=0;align=left;spacingLeft=6;overflow=hidden;html=1;whiteSpace=wrap;strokeColor=#000000;" vertex="1" parent="lPWEa0LkZSCRpqWwWUgu-69">
          <mxGeometry x="60" width="180" height="30" as="geometry">
            <mxRectangle width="180" height="30" as="alternateBounds" />
          </mxGeometry>
        </mxCell>
        <mxCell id="lPWEa0LkZSCRpqWwWUgu-72" value="Perecedero" style="shape=table;startSize=30;container=1;collapsible=1;childLayout=tableLayout;fixedRows=1;rowLines=0;fontStyle=1;align=center;resizeLast=1;html=1;whiteSpace=wrap;fillColor=#dae8fc;strokeColor=#6c8ebf;" vertex="1" parent="1">
          <mxGeometry x="490" y="-1380" width="200" height="150" as="geometry" />
        </mxCell>
        <mxCell id="lPWEa0LkZSCRpqWwWUgu-73" value="" style="shape=tableRow;horizontal=0;startSize=0;swimlaneHead=0;swimlaneBody=0;collapsible=0;dropTarget=0;points=[[0,0.5],[1,0.5]];portConstraint=eastwest;top=0;left=0;right=0;bottom=0;html=1;rounded=0;swimlaneLine=1;" vertex="1" parent="lPWEa0LkZSCRpqWwWUgu-72">
          <mxGeometry y="30" width="200" height="30" as="geometry" />
        </mxCell>
        <mxCell id="lPWEa0LkZSCRpqWwWUgu-74" value="PK,FK1" style="shape=partialRectangle;connectable=0;fillColor=none;top=0;left=0;bottom=0;right=0;fontStyle=1;overflow=hidden;html=1;whiteSpace=wrap;strokeColor=#000000;" vertex="1" parent="lPWEa0LkZSCRpqWwWUgu-73">
          <mxGeometry width="60" height="30" as="geometry">
            <mxRectangle width="60" height="30" as="alternateBounds" />
          </mxGeometry>
        </mxCell>
        <mxCell id="lPWEa0LkZSCRpqWwWUgu-75" value="IdNegocio: int" style="shape=partialRectangle;connectable=0;fillColor=none;top=0;left=0;bottom=0;right=0;align=left;spacingLeft=6;fontStyle=5;overflow=hidden;html=1;whiteSpace=wrap;strokeColor=#000000;" vertex="1" parent="lPWEa0LkZSCRpqWwWUgu-73">
          <mxGeometry x="60" width="140" height="30" as="geometry">
            <mxRectangle width="140" height="30" as="alternateBounds" />
          </mxGeometry>
        </mxCell>
        <mxCell id="lPWEa0LkZSCRpqWwWUgu-76" value="" style="shape=tableRow;horizontal=0;startSize=0;swimlaneHead=0;swimlaneBody=0;fillColor=none;collapsible=0;dropTarget=0;points=[[0,0.5],[1,0.5]];portConstraint=eastwest;top=0;left=0;right=0;bottom=1;html=1;strokeColor=#000000;" vertex="1" parent="lPWEa0LkZSCRpqWwWUgu-72">
          <mxGeometry y="60" width="200" height="30" as="geometry" />
        </mxCell>
        <mxCell id="lPWEa0LkZSCRpqWwWUgu-77" value="PK,FK2" style="shape=partialRectangle;connectable=0;fillColor=none;top=0;left=0;bottom=0;right=0;fontStyle=1;overflow=hidden;html=1;whiteSpace=wrap;strokeColor=#000000;" vertex="1" parent="lPWEa0LkZSCRpqWwWUgu-76">
          <mxGeometry width="60" height="30" as="geometry">
            <mxRectangle width="60" height="30" as="alternateBounds" />
          </mxGeometry>
        </mxCell>
        <mxCell id="lPWEa0LkZSCRpqWwWUgu-78" value="IdProducto: int" style="shape=partialRectangle;connectable=0;fillColor=none;top=0;left=0;bottom=0;right=0;align=left;spacingLeft=6;fontStyle=5;overflow=hidden;html=1;whiteSpace=wrap;strokeColor=#000000;" vertex="1" parent="lPWEa0LkZSCRpqWwWUgu-76">
          <mxGeometry x="60" width="140" height="30" as="geometry">
            <mxRectangle width="140" height="30" as="alternateBounds" />
          </mxGeometry>
        </mxCell>
        <mxCell id="lPWEa0LkZSCRpqWwWUgu-79" value="" style="shape=tableRow;horizontal=0;startSize=0;swimlaneHead=0;swimlaneBody=0;fillColor=none;collapsible=0;dropTarget=0;points=[[0,0.5],[1,0.5]];portConstraint=eastwest;top=0;left=0;right=0;bottom=0;html=1;strokeColor=#000000;" vertex="1" parent="lPWEa0LkZSCRpqWwWUgu-72">
          <mxGeometry y="90" width="200" height="30" as="geometry" />
        </mxCell>
        <mxCell id="lPWEa0LkZSCRpqWwWUgu-80" value="" style="shape=partialRectangle;connectable=0;fillColor=none;top=0;left=0;bottom=0;right=0;editable=1;overflow=hidden;html=1;whiteSpace=wrap;strokeColor=#000000;" vertex="1" parent="lPWEa0LkZSCRpqWwWUgu-79">
          <mxGeometry width="60" height="30" as="geometry">
            <mxRectangle width="60" height="30" as="alternateBounds" />
          </mxGeometry>
        </mxCell>
        <mxCell id="lPWEa0LkZSCRpqWwWUgu-81" value="FechaPreparación: date" style="shape=partialRectangle;connectable=0;fillColor=none;top=0;left=0;bottom=0;right=0;align=left;spacingLeft=6;overflow=hidden;html=1;whiteSpace=wrap;strokeColor=#000000;" vertex="1" parent="lPWEa0LkZSCRpqWwWUgu-79">
          <mxGeometry x="60" width="140" height="30" as="geometry">
            <mxRectangle width="140" height="30" as="alternateBounds" />
          </mxGeometry>
        </mxCell>
        <mxCell id="lPWEa0LkZSCRpqWwWUgu-82" value="" style="shape=tableRow;horizontal=0;startSize=0;swimlaneHead=0;swimlaneBody=0;fillColor=none;collapsible=0;dropTarget=0;points=[[0,0.5],[1,0.5]];portConstraint=eastwest;top=0;left=0;right=0;bottom=0;html=1;strokeColor=#000000;" vertex="1" parent="lPWEa0LkZSCRpqWwWUgu-72">
          <mxGeometry y="120" width="200" height="30" as="geometry" />
        </mxCell>
        <mxCell id="lPWEa0LkZSCRpqWwWUgu-83" value="" style="shape=partialRectangle;connectable=0;fillColor=none;top=0;left=0;bottom=0;right=0;editable=1;overflow=hidden;html=1;whiteSpace=wrap;strokeColor=#000000;" vertex="1" parent="lPWEa0LkZSCRpqWwWUgu-82">
          <mxGeometry width="60" height="30" as="geometry">
            <mxRectangle width="60" height="30" as="alternateBounds" />
          </mxGeometry>
        </mxCell>
        <mxCell id="lPWEa0LkZSCRpqWwWUgu-84" value="FechaCaducidad: date" style="shape=partialRectangle;connectable=0;fillColor=none;top=0;left=0;bottom=0;right=0;align=left;spacingLeft=6;overflow=hidden;html=1;whiteSpace=wrap;strokeColor=#000000;" vertex="1" parent="lPWEa0LkZSCRpqWwWUgu-82">
          <mxGeometry x="60" width="140" height="30" as="geometry">
            <mxRectangle width="140" height="30" as="alternateBounds" />
          </mxGeometry>
        </mxCell>
        <mxCell id="lPWEa0LkZSCRpqWwWUgu-86" value="RegistrarProducto" style="shape=table;startSize=30;container=1;collapsible=1;childLayout=tableLayout;fixedRows=1;rowLines=0;fontStyle=1;align=center;resizeLast=1;html=1;whiteSpace=wrap;strokeColor=#6c8ebf;fillColor=#dae8fc;" vertex="1" parent="1">
          <mxGeometry x="160" y="-938" width="180" height="150" as="geometry" />
        </mxCell>
        <mxCell id="lPWEa0LkZSCRpqWwWUgu-87" value="" style="shape=tableRow;horizontal=0;startSize=0;swimlaneHead=0;swimlaneBody=0;fillColor=none;collapsible=0;dropTarget=0;points=[[0,0.5],[1,0.5]];portConstraint=eastwest;top=0;left=0;right=0;bottom=0;html=1;strokeColor=#000000;" vertex="1" parent="lPWEa0LkZSCRpqWwWUgu-86">
          <mxGeometry y="30" width="180" height="30" as="geometry" />
        </mxCell>
        <mxCell id="lPWEa0LkZSCRpqWwWUgu-88" value="FK1" style="shape=partialRectangle;connectable=0;fillColor=none;top=0;left=0;bottom=0;right=0;fontStyle=1;overflow=hidden;html=1;whiteSpace=wrap;strokeColor=#000000;" vertex="1" parent="lPWEa0LkZSCRpqWwWUgu-87">
          <mxGeometry width="60" height="30" as="geometry">
            <mxRectangle width="60" height="30" as="alternateBounds" />
          </mxGeometry>
        </mxCell>
        <mxCell id="lPWEa0LkZSCRpqWwWUgu-89" value="IdTicket: int" style="shape=partialRectangle;connectable=0;fillColor=none;top=0;left=0;bottom=0;right=0;align=left;spacingLeft=6;fontStyle=5;overflow=hidden;html=1;whiteSpace=wrap;strokeColor=#000000;" vertex="1" parent="lPWEa0LkZSCRpqWwWUgu-87">
          <mxGeometry x="60" width="120" height="30" as="geometry">
            <mxRectangle width="120" height="30" as="alternateBounds" />
          </mxGeometry>
        </mxCell>
        <mxCell id="lPWEa0LkZSCRpqWwWUgu-90" value="" style="shape=tableRow;horizontal=0;startSize=0;swimlaneHead=0;swimlaneBody=0;fillColor=none;collapsible=0;dropTarget=0;points=[[0,0.5],[1,0.5]];portConstraint=eastwest;top=0;left=0;right=0;bottom=1;html=1;strokeColor=#000000;" vertex="1" parent="lPWEa0LkZSCRpqWwWUgu-86">
          <mxGeometry y="60" width="180" height="30" as="geometry" />
        </mxCell>
        <mxCell id="lPWEa0LkZSCRpqWwWUgu-91" value="FK2" style="shape=partialRectangle;connectable=0;fillColor=none;top=0;left=0;bottom=0;right=0;fontStyle=1;overflow=hidden;html=1;whiteSpace=wrap;strokeColor=#000000;" vertex="1" parent="lPWEa0LkZSCRpqWwWUgu-90">
          <mxGeometry width="60" height="30" as="geometry">
            <mxRectangle width="60" height="30" as="alternateBounds" />
          </mxGeometry>
        </mxCell>
        <mxCell id="lPWEa0LkZSCRpqWwWUgu-92" value="IdNegocio: int" style="shape=partialRectangle;connectable=0;fillColor=none;top=0;left=0;bottom=0;right=0;align=left;spacingLeft=6;fontStyle=5;overflow=hidden;html=1;whiteSpace=wrap;strokeColor=#000000;" vertex="1" parent="lPWEa0LkZSCRpqWwWUgu-90">
          <mxGeometry x="60" width="120" height="30" as="geometry">
            <mxRectangle width="120" height="30" as="alternateBounds" />
          </mxGeometry>
        </mxCell>
        <mxCell id="v-dCLE_iCbILySlav5rz-4" value="" style="shape=tableRow;horizontal=0;startSize=0;swimlaneHead=0;swimlaneBody=0;fillColor=none;collapsible=0;dropTarget=0;points=[[0,0.5],[1,0.5]];portConstraint=eastwest;top=0;left=0;right=0;bottom=1;html=1;strokeColor=#000000;" vertex="1" parent="lPWEa0LkZSCRpqWwWUgu-86">
          <mxGeometry y="90" width="180" height="30" as="geometry" />
        </mxCell>
        <mxCell id="v-dCLE_iCbILySlav5rz-5" value="FK2" style="shape=partialRectangle;connectable=0;fillColor=none;top=0;left=0;bottom=0;right=0;fontStyle=1;overflow=hidden;html=1;whiteSpace=wrap;strokeColor=#000000;" vertex="1" parent="v-dCLE_iCbILySlav5rz-4">
          <mxGeometry width="60" height="30" as="geometry">
            <mxRectangle width="60" height="30" as="alternateBounds" />
          </mxGeometry>
        </mxCell>
        <mxCell id="v-dCLE_iCbILySlav5rz-6" value="IdProducto: int" style="shape=partialRectangle;connectable=0;fillColor=none;top=0;left=0;bottom=0;right=0;align=left;spacingLeft=6;fontStyle=5;overflow=hidden;html=1;whiteSpace=wrap;strokeColor=#000000;" vertex="1" parent="v-dCLE_iCbILySlav5rz-4">
          <mxGeometry x="60" width="120" height="30" as="geometry">
            <mxRectangle width="120" height="30" as="alternateBounds" />
          </mxGeometry>
        </mxCell>
        <mxCell id="lPWEa0LkZSCRpqWwWUgu-93" value="" style="shape=tableRow;horizontal=0;startSize=0;swimlaneHead=0;swimlaneBody=0;fillColor=none;collapsible=0;dropTarget=0;points=[[0,0.5],[1,0.5]];portConstraint=eastwest;top=0;left=0;right=0;bottom=0;html=1;strokeColor=#000000;" vertex="1" parent="lPWEa0LkZSCRpqWwWUgu-86">
          <mxGeometry y="120" width="180" height="30" as="geometry" />
        </mxCell>
        <mxCell id="lPWEa0LkZSCRpqWwWUgu-94" value="" style="shape=partialRectangle;connectable=0;fillColor=none;top=0;left=0;bottom=0;right=0;editable=1;overflow=hidden;html=1;whiteSpace=wrap;strokeColor=#000000;" vertex="1" parent="lPWEa0LkZSCRpqWwWUgu-93">
          <mxGeometry width="60" height="30" as="geometry">
            <mxRectangle width="60" height="30" as="alternateBounds" />
          </mxGeometry>
        </mxCell>
        <mxCell id="lPWEa0LkZSCRpqWwWUgu-95" value="Cantidad: int" style="shape=partialRectangle;connectable=0;fillColor=none;top=0;left=0;bottom=0;right=0;align=left;spacingLeft=6;overflow=hidden;html=1;whiteSpace=wrap;strokeColor=#000000;" vertex="1" parent="lPWEa0LkZSCRpqWwWUgu-93">
          <mxGeometry x="60" width="120" height="30" as="geometry">
            <mxRectangle width="120" height="30" as="alternateBounds" />
          </mxGeometry>
        </mxCell>
        <mxCell id="lPWEa0LkZSCRpqWwWUgu-99" value="RegistrarServicio" style="shape=table;startSize=30;container=1;collapsible=1;childLayout=tableLayout;fixedRows=1;rowLines=0;fontStyle=1;align=center;resizeLast=1;html=1;whiteSpace=wrap;strokeColor=#6c8ebf;fillColor=#dae8fc;" vertex="1" parent="1">
          <mxGeometry x="560" y="-1560" width="180" height="150" as="geometry" />
        </mxCell>
        <mxCell id="lPWEa0LkZSCRpqWwWUgu-100" value="" style="shape=tableRow;horizontal=0;startSize=0;swimlaneHead=0;swimlaneBody=0;fillColor=none;collapsible=0;dropTarget=0;points=[[0,0.5],[1,0.5]];portConstraint=eastwest;top=0;left=0;right=0;bottom=0;html=1;strokeColor=#000000;" vertex="1" parent="lPWEa0LkZSCRpqWwWUgu-99">
          <mxGeometry y="30" width="180" height="30" as="geometry" />
        </mxCell>
        <mxCell id="lPWEa0LkZSCRpqWwWUgu-101" value="FK1" style="shape=partialRectangle;connectable=0;fillColor=none;top=0;left=0;bottom=0;right=0;fontStyle=1;overflow=hidden;html=1;whiteSpace=wrap;strokeColor=#000000;" vertex="1" parent="lPWEa0LkZSCRpqWwWUgu-100">
          <mxGeometry width="60" height="30" as="geometry">
            <mxRectangle width="60" height="30" as="alternateBounds" />
          </mxGeometry>
        </mxCell>
        <mxCell id="lPWEa0LkZSCRpqWwWUgu-102" value="IdTicket: int" style="shape=partialRectangle;connectable=0;fillColor=none;top=0;left=0;bottom=0;right=0;align=left;spacingLeft=6;fontStyle=5;overflow=hidden;html=1;whiteSpace=wrap;strokeColor=#000000;" vertex="1" parent="lPWEa0LkZSCRpqWwWUgu-100">
          <mxGeometry x="60" width="120" height="30" as="geometry">
            <mxRectangle width="120" height="30" as="alternateBounds" />
          </mxGeometry>
        </mxCell>
        <mxCell id="lPWEa0LkZSCRpqWwWUgu-103" value="" style="shape=tableRow;horizontal=0;startSize=0;swimlaneHead=0;swimlaneBody=0;fillColor=none;collapsible=0;dropTarget=0;points=[[0,0.5],[1,0.5]];portConstraint=eastwest;top=0;left=0;right=0;bottom=1;html=1;strokeColor=#000000;" vertex="1" parent="lPWEa0LkZSCRpqWwWUgu-99">
          <mxGeometry y="60" width="180" height="30" as="geometry" />
        </mxCell>
        <mxCell id="lPWEa0LkZSCRpqWwWUgu-104" value="FK2" style="shape=partialRectangle;connectable=0;fillColor=none;top=0;left=0;bottom=0;right=0;fontStyle=1;overflow=hidden;html=1;whiteSpace=wrap;strokeColor=#000000;" vertex="1" parent="lPWEa0LkZSCRpqWwWUgu-103">
          <mxGeometry width="60" height="30" as="geometry">
            <mxRectangle width="60" height="30" as="alternateBounds" />
          </mxGeometry>
        </mxCell>
        <mxCell id="lPWEa0LkZSCRpqWwWUgu-105" value="IdNegocio: int" style="shape=partialRectangle;connectable=0;fillColor=none;top=0;left=0;bottom=0;right=0;align=left;spacingLeft=6;fontStyle=5;overflow=hidden;html=1;whiteSpace=wrap;strokeColor=#000000;" vertex="1" parent="lPWEa0LkZSCRpqWwWUgu-103">
          <mxGeometry x="60" width="120" height="30" as="geometry">
            <mxRectangle width="120" height="30" as="alternateBounds" />
          </mxGeometry>
        </mxCell>
        <mxCell id="v-dCLE_iCbILySlav5rz-7" value="" style="shape=tableRow;horizontal=0;startSize=0;swimlaneHead=0;swimlaneBody=0;fillColor=none;collapsible=0;dropTarget=0;points=[[0,0.5],[1,0.5]];portConstraint=eastwest;top=0;left=0;right=0;bottom=1;html=1;strokeColor=#000000;" vertex="1" parent="lPWEa0LkZSCRpqWwWUgu-99">
          <mxGeometry y="90" width="180" height="30" as="geometry" />
        </mxCell>
        <mxCell id="v-dCLE_iCbILySlav5rz-8" value="FK2" style="shape=partialRectangle;connectable=0;fillColor=none;top=0;left=0;bottom=0;right=0;fontStyle=1;overflow=hidden;html=1;whiteSpace=wrap;strokeColor=#000000;" vertex="1" parent="v-dCLE_iCbILySlav5rz-7">
          <mxGeometry width="60" height="30" as="geometry">
            <mxRectangle width="60" height="30" as="alternateBounds" />
          </mxGeometry>
        </mxCell>
        <mxCell id="v-dCLE_iCbILySlav5rz-9" value="IdServicio: int" style="shape=partialRectangle;connectable=0;fillColor=none;top=0;left=0;bottom=0;right=0;align=left;spacingLeft=6;fontStyle=5;overflow=hidden;html=1;whiteSpace=wrap;strokeColor=#000000;" vertex="1" parent="v-dCLE_iCbILySlav5rz-7">
          <mxGeometry x="60" width="120" height="30" as="geometry">
            <mxRectangle width="120" height="30" as="alternateBounds" />
          </mxGeometry>
        </mxCell>
        <mxCell id="lPWEa0LkZSCRpqWwWUgu-106" value="" style="shape=tableRow;horizontal=0;startSize=0;swimlaneHead=0;swimlaneBody=0;fillColor=none;collapsible=0;dropTarget=0;points=[[0,0.5],[1,0.5]];portConstraint=eastwest;top=0;left=0;right=0;bottom=0;html=1;strokeColor=#000000;" vertex="1" parent="lPWEa0LkZSCRpqWwWUgu-99">
          <mxGeometry y="120" width="180" height="30" as="geometry" />
        </mxCell>
        <mxCell id="lPWEa0LkZSCRpqWwWUgu-107" value="" style="shape=partialRectangle;connectable=0;fillColor=none;top=0;left=0;bottom=0;right=0;editable=1;overflow=hidden;html=1;whiteSpace=wrap;strokeColor=#000000;" vertex="1" parent="lPWEa0LkZSCRpqWwWUgu-106">
          <mxGeometry width="60" height="30" as="geometry">
            <mxRectangle width="60" height="30" as="alternateBounds" />
          </mxGeometry>
        </mxCell>
        <mxCell id="lPWEa0LkZSCRpqWwWUgu-108" value="Duración: time" style="shape=partialRectangle;connectable=0;fillColor=none;top=0;left=0;bottom=0;right=0;align=left;spacingLeft=6;overflow=hidden;html=1;whiteSpace=wrap;strokeColor=#000000;" vertex="1" parent="lPWEa0LkZSCRpqWwWUgu-106">
          <mxGeometry x="60" width="120" height="30" as="geometry">
            <mxRectangle width="120" height="30" as="alternateBounds" />
          </mxGeometry>
        </mxCell>
        <mxCell id="lPWEa0LkZSCRpqWwWUgu-125" value="Agendar" style="shape=table;startSize=30;container=1;collapsible=1;childLayout=tableLayout;fixedRows=1;rowLines=0;fontStyle=1;align=center;resizeLast=1;html=1;whiteSpace=wrap;strokeColor=#6c8ebf;fillColor=#dae8fc;" vertex="1" parent="1">
          <mxGeometry x="150" y="670" width="200" height="150" as="geometry" />
        </mxCell>
        <mxCell id="lPWEa0LkZSCRpqWwWUgu-126" value="" style="shape=tableRow;horizontal=0;startSize=0;swimlaneHead=0;swimlaneBody=0;fillColor=none;collapsible=0;dropTarget=0;points=[[0,0.5],[1,0.5]];portConstraint=eastwest;top=0;left=0;right=0;bottom=0;html=1;strokeColor=#000000;" vertex="1" parent="lPWEa0LkZSCRpqWwWUgu-125">
          <mxGeometry y="30" width="200" height="30" as="geometry" />
        </mxCell>
        <mxCell id="lPWEa0LkZSCRpqWwWUgu-127" value="FK1" style="shape=partialRectangle;connectable=0;fillColor=none;top=0;left=0;bottom=0;right=0;fontStyle=1;overflow=hidden;html=1;whiteSpace=wrap;strokeColor=#000000;" vertex="1" parent="lPWEa0LkZSCRpqWwWUgu-126">
          <mxGeometry width="60" height="30" as="geometry">
            <mxRectangle width="60" height="30" as="alternateBounds" />
          </mxGeometry>
        </mxCell>
        <mxCell id="lPWEa0LkZSCRpqWwWUgu-128" value="idBazar: int" style="shape=partialRectangle;connectable=0;fillColor=none;top=0;left=0;bottom=0;right=0;align=left;spacingLeft=6;fontStyle=5;overflow=hidden;html=1;whiteSpace=wrap;strokeColor=#000000;" vertex="1" parent="lPWEa0LkZSCRpqWwWUgu-126">
          <mxGeometry x="60" width="140" height="30" as="geometry">
            <mxRectangle width="140" height="30" as="alternateBounds" />
          </mxGeometry>
        </mxCell>
        <mxCell id="lPWEa0LkZSCRpqWwWUgu-144" value="" style="shape=tableRow;horizontal=0;startSize=0;swimlaneHead=0;swimlaneBody=0;fillColor=none;collapsible=0;dropTarget=0;points=[[0,0.5],[1,0.5]];portConstraint=eastwest;top=0;left=0;right=0;bottom=0;html=1;strokeColor=#000000;" vertex="1" parent="lPWEa0LkZSCRpqWwWUgu-125">
          <mxGeometry y="60" width="200" height="30" as="geometry" />
        </mxCell>
        <mxCell id="lPWEa0LkZSCRpqWwWUgu-145" value="PK1,FK2" style="shape=partialRectangle;connectable=0;fillColor=none;top=0;left=0;bottom=0;right=0;fontStyle=1;overflow=hidden;html=1;whiteSpace=wrap;strokeColor=#000000;" vertex="1" parent="lPWEa0LkZSCRpqWwWUgu-144">
          <mxGeometry width="60" height="30" as="geometry">
            <mxRectangle width="60" height="30" as="alternateBounds" />
          </mxGeometry>
        </mxCell>
        <mxCell id="lPWEa0LkZSCRpqWwWUgu-146" value="IdNegocio: int" style="shape=partialRectangle;connectable=0;fillColor=none;top=0;left=0;bottom=0;right=0;align=left;spacingLeft=6;fontStyle=5;overflow=hidden;html=1;whiteSpace=wrap;strokeColor=#000000;" vertex="1" parent="lPWEa0LkZSCRpqWwWUgu-144">
          <mxGeometry x="60" width="140" height="30" as="geometry">
            <mxRectangle width="140" height="30" as="alternateBounds" />
          </mxGeometry>
        </mxCell>
        <mxCell id="lPWEa0LkZSCRpqWwWUgu-141" value="" style="shape=tableRow;horizontal=0;startSize=0;swimlaneHead=0;swimlaneBody=0;fillColor=none;collapsible=0;dropTarget=0;points=[[0,0.5],[1,0.5]];portConstraint=eastwest;top=0;left=0;right=0;bottom=0;html=1;strokeColor=#000000;" vertex="1" parent="lPWEa0LkZSCRpqWwWUgu-125">
          <mxGeometry y="90" width="200" height="30" as="geometry" />
        </mxCell>
        <mxCell id="lPWEa0LkZSCRpqWwWUgu-142" value="FK3" style="shape=partialRectangle;connectable=0;fillColor=none;top=0;left=0;bottom=0;right=0;fontStyle=1;overflow=hidden;html=1;whiteSpace=wrap;strokeColor=#000000;" vertex="1" parent="lPWEa0LkZSCRpqWwWUgu-141">
          <mxGeometry width="60" height="30" as="geometry">
            <mxRectangle width="60" height="30" as="alternateBounds" />
          </mxGeometry>
        </mxCell>
        <mxCell id="lPWEa0LkZSCRpqWwWUgu-143" value="NúmeroEstand: int" style="shape=partialRectangle;connectable=0;fillColor=none;top=0;left=0;bottom=0;right=0;align=left;spacingLeft=6;fontStyle=5;overflow=hidden;html=1;whiteSpace=wrap;strokeColor=#000000;" vertex="1" parent="lPWEa0LkZSCRpqWwWUgu-141">
          <mxGeometry x="60" width="140" height="30" as="geometry">
            <mxRectangle width="140" height="30" as="alternateBounds" />
          </mxGeometry>
        </mxCell>
        <mxCell id="lPWEa0LkZSCRpqWwWUgu-129" value="" style="shape=tableRow;horizontal=0;startSize=0;swimlaneHead=0;swimlaneBody=0;fillColor=none;collapsible=0;dropTarget=0;points=[[0,0.5],[1,0.5]];portConstraint=eastwest;top=0;left=0;right=0;bottom=1;html=1;strokeColor=#000000;" vertex="1" parent="lPWEa0LkZSCRpqWwWUgu-125">
          <mxGeometry y="120" width="200" height="30" as="geometry" />
        </mxCell>
        <mxCell id="lPWEa0LkZSCRpqWwWUgu-130" value="PK2" style="shape=partialRectangle;connectable=0;fillColor=none;top=0;left=0;bottom=0;right=0;fontStyle=1;overflow=hidden;html=1;whiteSpace=wrap;strokeColor=#000000;" vertex="1" parent="lPWEa0LkZSCRpqWwWUgu-129">
          <mxGeometry width="60" height="30" as="geometry">
            <mxRectangle width="60" height="30" as="alternateBounds" />
          </mxGeometry>
        </mxCell>
        <mxCell id="lPWEa0LkZSCRpqWwWUgu-131" value="FechaAsistencia: date" style="shape=partialRectangle;connectable=0;fillColor=none;top=0;left=0;bottom=0;right=0;align=left;spacingLeft=6;fontStyle=5;overflow=hidden;html=1;whiteSpace=wrap;strokeColor=#000000;" vertex="1" parent="lPWEa0LkZSCRpqWwWUgu-129">
          <mxGeometry x="60" width="140" height="30" as="geometry">
            <mxRectangle width="140" height="30" as="alternateBounds" />
          </mxGeometry>
        </mxCell>
        <mxCell id="lPWEa0LkZSCRpqWwWUgu-147" value="Servicio" style="shape=table;startSize=30;container=1;collapsible=1;childLayout=tableLayout;fixedRows=1;rowLines=0;fontStyle=1;align=center;resizeLast=1;html=1;whiteSpace=wrap;strokeColor=#6c8ebf;fillColor=#dae8fc;" vertex="1" parent="1">
          <mxGeometry x="960" y="-1120" width="240" height="240" as="geometry" />
        </mxCell>
        <mxCell id="lPWEa0LkZSCRpqWwWUgu-148" value="" style="shape=tableRow;horizontal=0;startSize=0;swimlaneHead=0;swimlaneBody=0;fillColor=none;collapsible=0;dropTarget=0;points=[[0,0.5],[1,0.5]];portConstraint=eastwest;top=0;left=0;right=0;bottom=0;html=1;strokeColor=#000000;" vertex="1" parent="lPWEa0LkZSCRpqWwWUgu-147">
          <mxGeometry y="30" width="240" height="30" as="geometry" />
        </mxCell>
        <mxCell id="lPWEa0LkZSCRpqWwWUgu-149" value="PK1,FK" style="shape=partialRectangle;connectable=0;fillColor=none;top=0;left=0;bottom=0;right=0;fontStyle=1;overflow=hidden;html=1;whiteSpace=wrap;strokeColor=#000000;" vertex="1" parent="lPWEa0LkZSCRpqWwWUgu-148">
          <mxGeometry width="60" height="30" as="geometry">
            <mxRectangle width="60" height="30" as="alternateBounds" />
          </mxGeometry>
        </mxCell>
        <mxCell id="lPWEa0LkZSCRpqWwWUgu-150" value="IdNegocio: int" style="shape=partialRectangle;connectable=0;fillColor=none;top=0;left=0;bottom=0;right=0;align=left;spacingLeft=6;fontStyle=5;overflow=hidden;html=1;whiteSpace=wrap;strokeColor=#000000;" vertex="1" parent="lPWEa0LkZSCRpqWwWUgu-148">
          <mxGeometry x="60" width="180" height="30" as="geometry">
            <mxRectangle width="180" height="30" as="alternateBounds" />
          </mxGeometry>
        </mxCell>
        <mxCell id="lPWEa0LkZSCRpqWwWUgu-151" value="" style="shape=tableRow;horizontal=0;startSize=0;swimlaneHead=0;swimlaneBody=0;fillColor=none;collapsible=0;dropTarget=0;points=[[0,0.5],[1,0.5]];portConstraint=eastwest;top=0;left=0;right=0;bottom=1;html=1;strokeColor=#000000;" vertex="1" parent="lPWEa0LkZSCRpqWwWUgu-147">
          <mxGeometry y="60" width="240" height="30" as="geometry" />
        </mxCell>
        <mxCell id="lPWEa0LkZSCRpqWwWUgu-152" value="PK2" style="shape=partialRectangle;connectable=0;fillColor=none;top=0;left=0;bottom=0;right=0;fontStyle=1;overflow=hidden;html=1;whiteSpace=wrap;strokeColor=#000000;" vertex="1" parent="lPWEa0LkZSCRpqWwWUgu-151">
          <mxGeometry width="60" height="30" as="geometry">
            <mxRectangle width="60" height="30" as="alternateBounds" />
          </mxGeometry>
        </mxCell>
        <mxCell id="lPWEa0LkZSCRpqWwWUgu-153" value="idServicio: serial4" style="shape=partialRectangle;connectable=0;fillColor=none;top=0;left=0;bottom=0;right=0;align=left;spacingLeft=6;fontStyle=5;overflow=hidden;html=1;whiteSpace=wrap;strokeColor=#000000;" vertex="1" parent="lPWEa0LkZSCRpqWwWUgu-151">
          <mxGeometry x="60" width="180" height="30" as="geometry">
            <mxRectangle width="180" height="30" as="alternateBounds" />
          </mxGeometry>
        </mxCell>
        <mxCell id="lPWEa0LkZSCRpqWwWUgu-154" value="" style="shape=tableRow;horizontal=0;startSize=0;swimlaneHead=0;swimlaneBody=0;fillColor=none;collapsible=0;dropTarget=0;points=[[0,0.5],[1,0.5]];portConstraint=eastwest;top=0;left=0;right=0;bottom=0;html=1;strokeColor=#000000;" vertex="1" parent="lPWEa0LkZSCRpqWwWUgu-147">
          <mxGeometry y="90" width="240" height="30" as="geometry" />
        </mxCell>
        <mxCell id="lPWEa0LkZSCRpqWwWUgu-155" value="" style="shape=partialRectangle;connectable=0;fillColor=none;top=0;left=0;bottom=0;right=0;editable=1;overflow=hidden;html=1;whiteSpace=wrap;strokeColor=#000000;" vertex="1" parent="lPWEa0LkZSCRpqWwWUgu-154">
          <mxGeometry width="60" height="30" as="geometry">
            <mxRectangle width="60" height="30" as="alternateBounds" />
          </mxGeometry>
        </mxCell>
        <mxCell id="lPWEa0LkZSCRpqWwWUgu-156" value="NombreServicio:varchar(100)" style="shape=partialRectangle;connectable=0;fillColor=none;top=0;left=0;bottom=0;right=0;align=left;spacingLeft=6;overflow=hidden;html=1;whiteSpace=wrap;strokeColor=#000000;" vertex="1" parent="lPWEa0LkZSCRpqWwWUgu-154">
          <mxGeometry x="60" width="180" height="30" as="geometry">
            <mxRectangle width="180" height="30" as="alternateBounds" />
          </mxGeometry>
        </mxCell>
        <mxCell id="lPWEa0LkZSCRpqWwWUgu-157" value="" style="shape=tableRow;horizontal=0;startSize=0;swimlaneHead=0;swimlaneBody=0;fillColor=none;collapsible=0;dropTarget=0;points=[[0,0.5],[1,0.5]];portConstraint=eastwest;top=0;left=0;right=0;bottom=0;html=1;strokeColor=#000000;" vertex="1" parent="lPWEa0LkZSCRpqWwWUgu-147">
          <mxGeometry y="120" width="240" height="30" as="geometry" />
        </mxCell>
        <mxCell id="lPWEa0LkZSCRpqWwWUgu-158" value="" style="shape=partialRectangle;connectable=0;fillColor=none;top=0;left=0;bottom=0;right=0;editable=1;overflow=hidden;html=1;whiteSpace=wrap;strokeColor=#000000;" vertex="1" parent="lPWEa0LkZSCRpqWwWUgu-157">
          <mxGeometry width="60" height="30" as="geometry">
            <mxRectangle width="60" height="30" as="alternateBounds" />
          </mxGeometry>
        </mxCell>
        <mxCell id="lPWEa0LkZSCRpqWwWUgu-159" value="Descripción: text" style="shape=partialRectangle;connectable=0;fillColor=none;top=0;left=0;bottom=0;right=0;align=left;spacingLeft=6;overflow=hidden;html=1;whiteSpace=wrap;strokeColor=#000000;" vertex="1" parent="lPWEa0LkZSCRpqWwWUgu-157">
          <mxGeometry x="60" width="180" height="30" as="geometry">
            <mxRectangle width="180" height="30" as="alternateBounds" />
          </mxGeometry>
        </mxCell>
        <mxCell id="lPWEa0LkZSCRpqWwWUgu-160" value="" style="shape=tableRow;horizontal=0;startSize=0;swimlaneHead=0;swimlaneBody=0;fillColor=none;collapsible=0;dropTarget=0;points=[[0,0.5],[1,0.5]];portConstraint=eastwest;top=0;left=0;right=0;bottom=0;html=1;strokeColor=#000000;" vertex="1" parent="lPWEa0LkZSCRpqWwWUgu-147">
          <mxGeometry y="150" width="240" height="30" as="geometry" />
        </mxCell>
        <mxCell id="lPWEa0LkZSCRpqWwWUgu-161" value="" style="shape=partialRectangle;connectable=0;fillColor=none;top=0;left=0;bottom=0;right=0;editable=1;overflow=hidden;html=1;whiteSpace=wrap;strokeColor=#000000;" vertex="1" parent="lPWEa0LkZSCRpqWwWUgu-160">
          <mxGeometry width="60" height="30" as="geometry">
            <mxRectangle width="60" height="30" as="alternateBounds" />
          </mxGeometry>
        </mxCell>
        <mxCell id="lPWEa0LkZSCRpqWwWUgu-162" value="Tipo: varchar(50)" style="shape=partialRectangle;connectable=0;fillColor=none;top=0;left=0;bottom=0;right=0;align=left;spacingLeft=6;overflow=hidden;html=1;whiteSpace=wrap;strokeColor=#000000;" vertex="1" parent="lPWEa0LkZSCRpqWwWUgu-160">
          <mxGeometry x="60" width="180" height="30" as="geometry">
            <mxRectangle width="180" height="30" as="alternateBounds" />
          </mxGeometry>
        </mxCell>
        <mxCell id="lPWEa0LkZSCRpqWwWUgu-163" value="" style="shape=tableRow;horizontal=0;startSize=0;swimlaneHead=0;swimlaneBody=0;fillColor=none;collapsible=0;dropTarget=0;points=[[0,0.5],[1,0.5]];portConstraint=eastwest;top=0;left=0;right=0;bottom=0;html=1;strokeColor=#000000;" vertex="1" parent="lPWEa0LkZSCRpqWwWUgu-147">
          <mxGeometry y="180" width="240" height="30" as="geometry" />
        </mxCell>
        <mxCell id="lPWEa0LkZSCRpqWwWUgu-164" value="" style="shape=partialRectangle;connectable=0;fillColor=none;top=0;left=0;bottom=0;right=0;editable=1;overflow=hidden;html=1;whiteSpace=wrap;strokeColor=#000000;" vertex="1" parent="lPWEa0LkZSCRpqWwWUgu-163">
          <mxGeometry width="60" height="30" as="geometry">
            <mxRectangle width="60" height="30" as="alternateBounds" />
          </mxGeometry>
        </mxCell>
        <mxCell id="lPWEa0LkZSCRpqWwWUgu-165" value="Precio: money" style="shape=partialRectangle;connectable=0;fillColor=none;top=0;left=0;bottom=0;right=0;align=left;spacingLeft=6;overflow=hidden;html=1;whiteSpace=wrap;strokeColor=#000000;" vertex="1" parent="lPWEa0LkZSCRpqWwWUgu-163">
          <mxGeometry x="60" width="180" height="30" as="geometry">
            <mxRectangle width="180" height="30" as="alternateBounds" />
          </mxGeometry>
        </mxCell>
        <mxCell id="lPWEa0LkZSCRpqWwWUgu-169" value="" style="shape=tableRow;horizontal=0;startSize=0;swimlaneHead=0;swimlaneBody=0;fillColor=none;collapsible=0;dropTarget=0;points=[[0,0.5],[1,0.5]];portConstraint=eastwest;top=0;left=0;right=0;bottom=0;html=1;strokeColor=#000000;" vertex="1" parent="lPWEa0LkZSCRpqWwWUgu-147">
          <mxGeometry y="210" width="240" height="30" as="geometry" />
        </mxCell>
        <mxCell id="lPWEa0LkZSCRpqWwWUgu-170" value="" style="shape=partialRectangle;connectable=0;fillColor=none;top=0;left=0;bottom=0;right=0;editable=1;overflow=hidden;html=1;whiteSpace=wrap;strokeColor=#000000;" vertex="1" parent="lPWEa0LkZSCRpqWwWUgu-169">
          <mxGeometry width="60" height="30" as="geometry">
            <mxRectangle width="60" height="30" as="alternateBounds" />
          </mxGeometry>
        </mxCell>
        <mxCell id="lPWEa0LkZSCRpqWwWUgu-171" value="Duración: time" style="shape=partialRectangle;connectable=0;fillColor=none;top=0;left=0;bottom=0;right=0;align=left;spacingLeft=6;overflow=hidden;html=1;whiteSpace=wrap;strokeColor=#000000;" vertex="1" parent="lPWEa0LkZSCRpqWwWUgu-169">
          <mxGeometry x="60" width="180" height="30" as="geometry">
            <mxRectangle width="180" height="30" as="alternateBounds" />
          </mxGeometry>
        </mxCell>
        <mxCell id="lPWEa0LkZSCRpqWwWUgu-172" value="" style="edgeStyle=orthogonalEdgeStyle;fontSize=12;html=1;endArrow=ERoneToMany;startArrow=ERzeroToOne;rounded=1;entryX=0;entryY=0.5;entryDx=0;entryDy=0;exitX=1;exitY=0.5;exitDx=0;exitDy=0;strokeColor=#000000;" edge="1" parent="1" source="KqZBCw7qDT3EIS-g3Wz3-199" target="lPWEa0LkZSCRpqWwWUgu-87">
          <mxGeometry width="100" height="100" relative="1" as="geometry">
            <mxPoint x="-300" y="-660" as="sourcePoint" />
            <mxPoint x="220" y="-420" as="targetPoint" />
          </mxGeometry>
        </mxCell>
        <mxCell id="lPWEa0LkZSCRpqWwWUgu-173" value="" style="fontSize=12;html=1;endArrow=ERoneToMany;startArrow=ERzeroToOne;rounded=1;entryX=1;entryY=0.5;entryDx=0;entryDy=0;exitX=0;exitY=0.5;exitDx=0;exitDy=0;strokeColor=#000000;edgeStyle=orthogonalEdgeStyle;" edge="1" parent="1" source="lPWEa0LkZSCRpqWwWUgu-16" target="lPWEa0LkZSCRpqWwWUgu-90">
          <mxGeometry width="100" height="100" relative="1" as="geometry">
            <mxPoint x="410" y="-1000" as="sourcePoint" />
            <mxPoint x="506" y="-1410" as="targetPoint" />
          </mxGeometry>
        </mxCell>
        <mxCell id="lPWEa0LkZSCRpqWwWUgu-174" value="" style="edgeStyle=orthogonalEdgeStyle;fontSize=12;html=1;endArrow=ERoneToMany;startArrow=ERzeroToOne;rounded=1;entryX=1;entryY=0.5;entryDx=0;entryDy=0;exitX=0;exitY=0.5;exitDx=0;exitDy=0;strokeColor=#000000;" edge="1" parent="1" source="lPWEa0LkZSCRpqWwWUgu-151" target="lPWEa0LkZSCRpqWwWUgu-103">
          <mxGeometry width="100" height="100" relative="1" as="geometry">
            <mxPoint x="860" y="-1010" as="sourcePoint" />
            <mxPoint x="690" y="-970" as="targetPoint" />
          </mxGeometry>
        </mxCell>
        <mxCell id="lPWEa0LkZSCRpqWwWUgu-175" value="" style="edgeStyle=orthogonalEdgeStyle;fontSize=12;html=1;endArrow=ERoneToMany;startArrow=ERzeroToOne;rounded=1;entryX=0;entryY=0.5;entryDx=0;entryDy=0;exitX=1;exitY=0.5;exitDx=0;exitDy=0;strokeColor=#000000;" edge="1" parent="1" source="KqZBCw7qDT3EIS-g3Wz3-199" target="lPWEa0LkZSCRpqWwWUgu-100">
          <mxGeometry width="100" height="100" relative="1" as="geometry">
            <mxPoint x="460" y="-780" as="sourcePoint" />
            <mxPoint x="290" y="-740" as="targetPoint" />
            <Array as="points">
              <mxPoint x="-190" y="-665" />
              <mxPoint x="-190" y="-1515" />
            </Array>
          </mxGeometry>
        </mxCell>
        <mxCell id="lPWEa0LkZSCRpqWwWUgu-176" value="" style="fontSize=12;html=1;endArrow=ERoneToMany;startArrow=ERzeroToOne;rounded=1;entryX=1;entryY=0.5;entryDx=0;entryDy=0;strokeColor=#000000;exitX=1;exitY=0.5;exitDx=0;exitDy=0;edgeStyle=orthogonalEdgeStyle;" edge="1" parent="1" source="JcJGeaNp8OVn_KfTWgU8-5" target="KqZBCw7qDT3EIS-g3Wz3-202">
          <mxGeometry width="100" height="100" relative="1" as="geometry">
            <mxPoint x="-460" y="120" as="sourcePoint" />
            <mxPoint x="190" y="170" as="targetPoint" />
            <Array as="points">
              <mxPoint x="830" y="-435" />
              <mxPoint x="830" />
              <mxPoint x="-170" />
              <mxPoint x="-170" y="-545" />
            </Array>
          </mxGeometry>
        </mxCell>
        <mxCell id="lPWEa0LkZSCRpqWwWUgu-177" value="" style="fontSize=12;html=1;endArrow=ERoneToMany;startArrow=ERzeroToOne;rounded=1;entryX=1;entryY=0.5;entryDx=0;entryDy=0;exitX=0;exitY=0.5;exitDx=0;exitDy=0;strokeColor=#000000;edgeStyle=orthogonalEdgeStyle;" edge="1" parent="1" source="KqZBCw7qDT3EIS-g3Wz3-72" target="lPWEa0LkZSCRpqWwWUgu-148">
          <mxGeometry width="100" height="100" relative="1" as="geometry">
            <mxPoint x="1090" y="-370" as="sourcePoint" />
            <mxPoint x="310" y="-80" as="targetPoint" />
          </mxGeometry>
        </mxCell>
        <mxCell id="lPWEa0LkZSCRpqWwWUgu-178" value="" style="fontSize=12;html=1;endArrow=ERoneToMany;startArrow=ERzeroToOne;rounded=1;entryX=1;entryY=0.5;entryDx=0;entryDy=0;exitX=0;exitY=0.5;exitDx=0;exitDy=0;strokeColor=#000000;edgeStyle=orthogonalEdgeStyle;" edge="1" parent="1" source="KqZBCw7qDT3EIS-g3Wz3-72" target="lPWEa0LkZSCRpqWwWUgu-13">
          <mxGeometry width="100" height="100" relative="1" as="geometry">
            <mxPoint x="1130" y="-215" as="sourcePoint" />
            <mxPoint x="1210" y="-1065" as="targetPoint" />
            <Array as="points">
              <mxPoint x="1360" y="-950" />
              <mxPoint x="1360" y="-840" />
              <mxPoint x="791" y="-840" />
              <mxPoint x="791" y="-1004" />
            </Array>
          </mxGeometry>
        </mxCell>
        <mxCell id="lPWEa0LkZSCRpqWwWUgu-179" value="" style="fontSize=12;html=1;endArrow=ERoneToMany;startArrow=ERzeroToOne;rounded=1;exitX=0;exitY=0.5;exitDx=0;exitDy=0;entryX=1;entryY=0.5;entryDx=0;entryDy=0;strokeColor=#000000;edgeStyle=orthogonalEdgeStyle;" edge="1" parent="1" source="KqZBCw7qDT3EIS-g3Wz3-72" target="KqZBCw7qDT3EIS-g3Wz3-217">
          <mxGeometry width="100" height="100" relative="1" as="geometry">
            <mxPoint x="1152" y="-290" as="sourcePoint" />
            <mxPoint x="-40" y="-1290" as="targetPoint" />
            <Array as="points">
              <mxPoint x="1400" y="-950" />
              <mxPoint x="1400" y="-800" />
              <mxPoint x="840" y="-800" />
              <mxPoint x="840" y="-575" />
            </Array>
          </mxGeometry>
        </mxCell>
        <mxCell id="lPWEa0LkZSCRpqWwWUgu-180" value="" style="edgeStyle=orthogonalEdgeStyle;fontSize=12;html=1;endArrow=ERoneToMany;startArrow=ERzeroToOne;rounded=1;entryX=0;entryY=0.5;entryDx=0;entryDy=0;exitX=0;exitY=0.5;exitDx=0;exitDy=0;curved=0;strokeColor=#000000;" edge="1" parent="1" source="KqZBCw7qDT3EIS-g3Wz3-2" target="KqZBCw7qDT3EIS-g3Wz3-220">
          <mxGeometry width="100" height="100" relative="1" as="geometry">
            <mxPoint x="-680" y="-390" as="sourcePoint" />
            <mxPoint x="-580" y="-490" as="targetPoint" />
            <Array as="points">
              <mxPoint x="-1240" y="-315" />
              <mxPoint x="-1240" y="-605" />
            </Array>
          </mxGeometry>
        </mxCell>
        <mxCell id="lPWEa0LkZSCRpqWwWUgu-181" value="" style="edgeStyle=orthogonalEdgeStyle;fontSize=12;html=1;endArrow=ERoneToMany;startArrow=ERzeroToOne;rounded=1;entryX=0;entryY=0.5;entryDx=0;entryDy=0;exitX=0;exitY=0.5;exitDx=0;exitDy=0;curved=0;strokeColor=#000000;" edge="1" parent="1" source="KqZBCw7qDT3EIS-g3Wz3-224" target="KqZBCw7qDT3EIS-g3Wz3-214">
          <mxGeometry width="100" height="100" relative="1" as="geometry">
            <mxPoint x="-680" y="-760" as="sourcePoint" />
            <mxPoint x="-246" y="-1050" as="targetPoint" />
            <Array as="points">
              <mxPoint x="-1240" y="-1070" />
              <mxPoint x="-1240" y="-635" />
            </Array>
          </mxGeometry>
        </mxCell>
        <mxCell id="lPWEa0LkZSCRpqWwWUgu-182" value="" style="edgeStyle=orthogonalEdgeStyle;fontSize=12;html=1;endArrow=ERoneToMany;startArrow=ERmandOne;rounded=1;exitX=1;exitY=0.5;exitDx=0;exitDy=0;entryX=1;entryY=0.5;entryDx=0;entryDy=0;curved=0;strokeColor=#000000;" edge="1" parent="1" source="KqZBCw7qDT3EIS-g3Wz3-224" target="1e2vcabvKx_bJ4QMMa11-8">
          <mxGeometry width="100" height="100" relative="1" as="geometry">
            <mxPoint x="-918.5714285714286" y="-1060" as="sourcePoint" />
            <mxPoint x="-580" y="-830" as="targetPoint" />
            <Array as="points">
              <mxPoint x="-920" y="-1070" />
              <mxPoint x="-920" y="-1200" />
              <mxPoint x="-1280" y="-1200" />
              <mxPoint x="-1280" y="-1085" />
            </Array>
          </mxGeometry>
        </mxCell>
        <mxCell id="lPWEa0LkZSCRpqWwWUgu-183" value="" style="edgeStyle=orthogonalEdgeStyle;fontSize=12;html=1;endArrow=ERoneToMany;startArrow=ERmandOne;rounded=1;strokeColor=#000000;exitX=0;exitY=0.5;exitDx=0;exitDy=0;entryX=1.006;entryY=0.759;entryDx=0;entryDy=0;entryPerimeter=0;" edge="1" parent="1" source="JcJGeaNp8OVn_KfTWgU8-8" target="KqZBCw7qDT3EIS-g3Wz3-72">
          <mxGeometry width="100" height="100" relative="1" as="geometry">
            <mxPoint x="450" y="220" as="sourcePoint" />
            <mxPoint x="1780" y="-710" as="targetPoint" />
            <Array as="points">
              <mxPoint x="330" y="-405" />
              <mxPoint x="330" y="-520" />
              <mxPoint x="1800" y="-520" />
              <mxPoint x="1800" y="-940" />
            </Array>
          </mxGeometry>
        </mxCell>
        <mxCell id="lPWEa0LkZSCRpqWwWUgu-186" value="" style="edgeStyle=orthogonalEdgeStyle;fontSize=12;html=1;endArrow=ERoneToMany;startArrow=ERmandOne;rounded=1;entryX=0;entryY=0.5;entryDx=0;entryDy=0;exitX=1;exitY=0.5;exitDx=0;exitDy=0;curved=0;strokeColor=#000000;" edge="1" parent="1" source="KqZBCw7qDT3EIS-g3Wz3-2" target="lPWEa0LkZSCRpqWwWUgu-113">
          <mxGeometry width="100" height="100" relative="1" as="geometry">
            <mxPoint x="-330" y="30" as="sourcePoint" />
            <mxPoint x="-230" y="-70" as="targetPoint" />
          </mxGeometry>
        </mxCell>
        <mxCell id="lPWEa0LkZSCRpqWwWUgu-187" value="" style="fontSize=12;html=1;endArrow=ERoneToMany;startArrow=ERmandOne;rounded=1;strokeColor=#000000;exitX=0;exitY=0.5;exitDx=0;exitDy=0;edgeStyle=orthogonalEdgeStyle;entryX=1;entryY=0.5;entryDx=0;entryDy=0;" edge="1" parent="1" source="S8e-CZil9d1Lbf8FHhQe-2" target="JcJGeaNp8OVn_KfTWgU8-46">
          <mxGeometry width="100" height="100" relative="1" as="geometry">
            <mxPoint x="-580" y="-110" as="sourcePoint" />
            <mxPoint x="-505" y="-262" as="targetPoint" />
          </mxGeometry>
        </mxCell>
        <mxCell id="lPWEa0LkZSCRpqWwWUgu-191" value="" style="edgeStyle=orthogonalEdgeStyle;fontSize=12;html=1;endArrow=ERoneToMany;startArrow=ERmandOne;rounded=1;exitX=1;exitY=0.5;exitDx=0;exitDy=0;entryX=0;entryY=0.5;entryDx=0;entryDy=0;curved=0;strokeColor=#000000;" edge="1" parent="1" source="KqZBCw7qDT3EIS-g3Wz3-2" target="lPWEa0LkZSCRpqWwWUgu-126">
          <mxGeometry width="100" height="100" relative="1" as="geometry">
            <mxPoint x="-930" y="170" as="sourcePoint" />
            <mxPoint x="80" y="820" as="targetPoint" />
            <Array as="points">
              <mxPoint x="-920" y="-315" />
              <mxPoint x="-920" y="715" />
            </Array>
          </mxGeometry>
        </mxCell>
        <mxCell id="lPWEa0LkZSCRpqWwWUgu-192" value="" style="fontSize=12;html=1;endArrow=ERoneToMany;startArrow=ERmandOne;rounded=1;entryX=1;entryY=0.5;entryDx=0;entryDy=0;exitX=0;exitY=0.5;exitDx=0;exitDy=0;strokeColor=#000000;edgeStyle=orthogonalEdgeStyle;" edge="1" parent="1" source="KqZBCw7qDT3EIS-g3Wz3-109" target="lPWEa0LkZSCRpqWwWUgu-141">
          <mxGeometry width="100" height="100" relative="1" as="geometry">
            <mxPoint x="540" y="590" as="sourcePoint" />
            <mxPoint x="640" y="490" as="targetPoint" />
          </mxGeometry>
        </mxCell>
        <mxCell id="lPWEa0LkZSCRpqWwWUgu-193" value="" style="fontSize=12;html=1;endArrow=ERoneToMany;startArrow=ERmandOne;rounded=1;entryX=1;entryY=0.5;entryDx=0;entryDy=0;strokeColor=#000000;exitX=1.003;exitY=0.355;exitDx=0;exitDy=0;exitPerimeter=0;edgeStyle=orthogonalEdgeStyle;" edge="1" parent="1" source="KqZBCw7qDT3EIS-g3Wz3-72" target="lPWEa0LkZSCRpqWwWUgu-144">
          <mxGeometry width="100" height="100" relative="1" as="geometry">
            <mxPoint x="1840" y="-710" as="sourcePoint" />
            <mxPoint x="640" y="490" as="targetPoint" />
            <Array as="points">
              <mxPoint x="1830" y="-956" />
              <mxPoint x="1830" y="745" />
            </Array>
          </mxGeometry>
        </mxCell>
        <mxCell id="_wqb1gO3hhlxayWzVJi2-1" value="" style="fontSize=12;html=1;endArrow=ERzeroToOne;startArrow=ERmandOne;rounded=1;entryX=0;entryY=0.5;entryDx=0;entryDy=0;exitX=0;exitY=0.5;exitDx=0;exitDy=0;edgeStyle=orthogonalEdgeStyle;" edge="1" parent="1" source="lPWEa0LkZSCRpqWwWUgu-76" target="lPWEa0LkZSCRpqWwWUgu-16">
          <mxGeometry width="100" height="100" relative="1" as="geometry">
            <mxPoint x="580" y="-1020" as="sourcePoint" />
            <mxPoint x="680" y="-1120" as="targetPoint" />
            <Array as="points">
              <mxPoint x="456" y="-1305" />
              <mxPoint x="456" y="-974" />
            </Array>
          </mxGeometry>
        </mxCell>
        <mxCell id="S8e-CZil9d1Lbf8FHhQe-1" value="PersonalOrganizador" style="shape=table;startSize=30;container=1;collapsible=1;childLayout=tableLayout;fixedRows=1;rowLines=0;fontStyle=1;align=center;resizeLast=1;html=1;strokeColor=#6c8ebf;fillColor=#dae8fc;" vertex="1" parent="1">
          <mxGeometry x="-440" y="100" width="286" height="420" as="geometry" />
        </mxCell>
        <mxCell id="S8e-CZil9d1Lbf8FHhQe-2" value="" style="shape=tableRow;horizontal=0;startSize=0;swimlaneHead=0;swimlaneBody=0;fillColor=none;collapsible=0;dropTarget=0;points=[[0,0.5],[1,0.5]];portConstraint=eastwest;top=0;left=0;right=0;bottom=1;strokeColor=#000000;" vertex="1" parent="S8e-CZil9d1Lbf8FHhQe-1">
          <mxGeometry y="30" width="286" height="30" as="geometry" />
        </mxCell>
        <mxCell id="S8e-CZil9d1Lbf8FHhQe-3" value="PK" style="shape=partialRectangle;connectable=0;fillColor=none;top=0;left=0;bottom=0;right=0;fontStyle=1;overflow=hidden;whiteSpace=wrap;html=1;strokeColor=#000000;" vertex="1" parent="S8e-CZil9d1Lbf8FHhQe-2">
          <mxGeometry width="30" height="30" as="geometry">
            <mxRectangle width="30" height="30" as="alternateBounds" />
          </mxGeometry>
        </mxCell>
        <mxCell id="S8e-CZil9d1Lbf8FHhQe-4" value="RFC: char(13)" style="shape=partialRectangle;connectable=0;fillColor=none;top=0;left=0;bottom=0;right=0;align=left;spacingLeft=6;fontStyle=5;overflow=hidden;whiteSpace=wrap;html=1;strokeColor=#000000;" vertex="1" parent="S8e-CZil9d1Lbf8FHhQe-2">
          <mxGeometry x="30" width="256" height="30" as="geometry">
            <mxRectangle width="256" height="30" as="alternateBounds" />
          </mxGeometry>
        </mxCell>
        <mxCell id="S8e-CZil9d1Lbf8FHhQe-8" value="" style="shape=tableRow;horizontal=0;startSize=0;swimlaneHead=0;swimlaneBody=0;fillColor=none;collapsible=0;dropTarget=0;points=[[0,0.5],[1,0.5]];portConstraint=eastwest;top=0;left=0;right=0;bottom=0;strokeColor=#000000;" vertex="1" parent="S8e-CZil9d1Lbf8FHhQe-1">
          <mxGeometry y="60" width="286" height="30" as="geometry" />
        </mxCell>
        <mxCell id="S8e-CZil9d1Lbf8FHhQe-9" value="" style="shape=partialRectangle;connectable=0;fillColor=none;top=0;left=0;bottom=0;right=0;editable=1;overflow=hidden;whiteSpace=wrap;html=1;strokeColor=#000000;" vertex="1" parent="S8e-CZil9d1Lbf8FHhQe-8">
          <mxGeometry width="30" height="30" as="geometry">
            <mxRectangle width="30" height="30" as="alternateBounds" />
          </mxGeometry>
        </mxCell>
        <mxCell id="S8e-CZil9d1Lbf8FHhQe-10" value="NombrePersonalOrganizador: varchar(100)" style="shape=partialRectangle;connectable=0;fillColor=none;top=0;left=0;bottom=0;right=0;align=left;spacingLeft=6;overflow=hidden;whiteSpace=wrap;html=1;strokeColor=#000000;" vertex="1" parent="S8e-CZil9d1Lbf8FHhQe-8">
          <mxGeometry x="30" width="256" height="30" as="geometry">
            <mxRectangle width="256" height="30" as="alternateBounds" />
          </mxGeometry>
        </mxCell>
        <mxCell id="S8e-CZil9d1Lbf8FHhQe-11" value="" style="shape=tableRow;horizontal=0;startSize=0;swimlaneHead=0;swimlaneBody=0;fillColor=none;collapsible=0;dropTarget=0;points=[[0,0.5],[1,0.5]];portConstraint=eastwest;top=0;left=0;right=0;bottom=0;strokeColor=#000000;" vertex="1" parent="S8e-CZil9d1Lbf8FHhQe-1">
          <mxGeometry y="90" width="286" height="30" as="geometry" />
        </mxCell>
        <mxCell id="S8e-CZil9d1Lbf8FHhQe-12" value="" style="shape=partialRectangle;connectable=0;fillColor=none;top=0;left=0;bottom=0;right=0;editable=1;overflow=hidden;whiteSpace=wrap;html=1;strokeColor=#000000;" vertex="1" parent="S8e-CZil9d1Lbf8FHhQe-11">
          <mxGeometry width="30" height="30" as="geometry">
            <mxRectangle width="30" height="30" as="alternateBounds" />
          </mxGeometry>
        </mxCell>
        <mxCell id="S8e-CZil9d1Lbf8FHhQe-13" value="APaternoPersonalOrganizador: varchar(100)" style="shape=partialRectangle;connectable=0;fillColor=none;top=0;left=0;bottom=0;right=0;align=left;spacingLeft=6;overflow=hidden;whiteSpace=wrap;html=1;strokeColor=#000000;" vertex="1" parent="S8e-CZil9d1Lbf8FHhQe-11">
          <mxGeometry x="30" width="256" height="30" as="geometry">
            <mxRectangle width="256" height="30" as="alternateBounds" />
          </mxGeometry>
        </mxCell>
        <mxCell id="S8e-CZil9d1Lbf8FHhQe-14" value="" style="shape=tableRow;horizontal=0;startSize=0;swimlaneHead=0;swimlaneBody=0;fillColor=none;collapsible=0;dropTarget=0;points=[[0,0.5],[1,0.5]];portConstraint=eastwest;top=0;left=0;right=0;bottom=0;strokeColor=#000000;" vertex="1" parent="S8e-CZil9d1Lbf8FHhQe-1">
          <mxGeometry y="120" width="286" height="30" as="geometry" />
        </mxCell>
        <mxCell id="S8e-CZil9d1Lbf8FHhQe-15" value="" style="shape=partialRectangle;connectable=0;fillColor=none;top=0;left=0;bottom=0;right=0;editable=1;overflow=hidden;whiteSpace=wrap;html=1;strokeColor=#000000;" vertex="1" parent="S8e-CZil9d1Lbf8FHhQe-14">
          <mxGeometry width="30" height="30" as="geometry">
            <mxRectangle width="30" height="30" as="alternateBounds" />
          </mxGeometry>
        </mxCell>
        <mxCell id="S8e-CZil9d1Lbf8FHhQe-16" value="AMaternoPersonalOrganizador: varchar(100)" style="shape=partialRectangle;connectable=0;fillColor=none;top=0;left=0;bottom=0;right=0;align=left;spacingLeft=6;overflow=hidden;whiteSpace=wrap;html=1;strokeColor=#000000;" vertex="1" parent="S8e-CZil9d1Lbf8FHhQe-14">
          <mxGeometry x="30" width="256" height="30" as="geometry">
            <mxRectangle width="256" height="30" as="alternateBounds" />
          </mxGeometry>
        </mxCell>
        <mxCell id="S8e-CZil9d1Lbf8FHhQe-17" value="" style="shape=tableRow;horizontal=0;startSize=0;swimlaneHead=0;swimlaneBody=0;fillColor=none;collapsible=0;dropTarget=0;points=[[0,0.5],[1,0.5]];portConstraint=eastwest;top=0;left=0;right=0;bottom=0;strokeColor=#000000;" vertex="1" parent="S8e-CZil9d1Lbf8FHhQe-1">
          <mxGeometry y="150" width="286" height="30" as="geometry" />
        </mxCell>
        <mxCell id="S8e-CZil9d1Lbf8FHhQe-18" value="" style="shape=partialRectangle;connectable=0;fillColor=none;top=0;left=0;bottom=0;right=0;editable=1;overflow=hidden;whiteSpace=wrap;html=1;strokeColor=#000000;" vertex="1" parent="S8e-CZil9d1Lbf8FHhQe-17">
          <mxGeometry width="30" height="30" as="geometry">
            <mxRectangle width="30" height="30" as="alternateBounds" />
          </mxGeometry>
        </mxCell>
        <mxCell id="S8e-CZil9d1Lbf8FHhQe-19" value="Calle: varchar(100)" style="shape=partialRectangle;connectable=0;fillColor=none;top=0;left=0;bottom=0;right=0;align=left;spacingLeft=6;overflow=hidden;whiteSpace=wrap;html=1;strokeColor=#000000;" vertex="1" parent="S8e-CZil9d1Lbf8FHhQe-17">
          <mxGeometry x="30" width="256" height="30" as="geometry">
            <mxRectangle width="256" height="30" as="alternateBounds" />
          </mxGeometry>
        </mxCell>
        <mxCell id="S8e-CZil9d1Lbf8FHhQe-20" value="" style="shape=tableRow;horizontal=0;startSize=0;swimlaneHead=0;swimlaneBody=0;fillColor=none;collapsible=0;dropTarget=0;points=[[0,0.5],[1,0.5]];portConstraint=eastwest;top=0;left=0;right=0;bottom=0;strokeColor=#000000;" vertex="1" parent="S8e-CZil9d1Lbf8FHhQe-1">
          <mxGeometry y="180" width="286" height="30" as="geometry" />
        </mxCell>
        <mxCell id="S8e-CZil9d1Lbf8FHhQe-21" value="" style="shape=partialRectangle;connectable=0;fillColor=none;top=0;left=0;bottom=0;right=0;editable=1;overflow=hidden;whiteSpace=wrap;html=1;strokeColor=#000000;" vertex="1" parent="S8e-CZil9d1Lbf8FHhQe-20">
          <mxGeometry width="30" height="30" as="geometry">
            <mxRectangle width="30" height="30" as="alternateBounds" />
          </mxGeometry>
        </mxCell>
        <mxCell id="S8e-CZil9d1Lbf8FHhQe-22" value="NúmeroExterior: varchar(50)" style="shape=partialRectangle;connectable=0;fillColor=none;top=0;left=0;bottom=0;right=0;align=left;spacingLeft=6;overflow=hidden;whiteSpace=wrap;html=1;strokeColor=#000000;" vertex="1" parent="S8e-CZil9d1Lbf8FHhQe-20">
          <mxGeometry x="30" width="256" height="30" as="geometry">
            <mxRectangle width="256" height="30" as="alternateBounds" />
          </mxGeometry>
        </mxCell>
        <mxCell id="S8e-CZil9d1Lbf8FHhQe-23" value="" style="shape=tableRow;horizontal=0;startSize=0;swimlaneHead=0;swimlaneBody=0;fillColor=none;collapsible=0;dropTarget=0;points=[[0,0.5],[1,0.5]];portConstraint=eastwest;top=0;left=0;right=0;bottom=0;strokeColor=#000000;" vertex="1" parent="S8e-CZil9d1Lbf8FHhQe-1">
          <mxGeometry y="210" width="286" height="30" as="geometry" />
        </mxCell>
        <mxCell id="S8e-CZil9d1Lbf8FHhQe-24" value="" style="shape=partialRectangle;connectable=0;fillColor=none;top=0;left=0;bottom=0;right=0;editable=1;overflow=hidden;whiteSpace=wrap;html=1;strokeColor=#000000;" vertex="1" parent="S8e-CZil9d1Lbf8FHhQe-23">
          <mxGeometry width="30" height="30" as="geometry">
            <mxRectangle width="30" height="30" as="alternateBounds" />
          </mxGeometry>
        </mxCell>
        <mxCell id="S8e-CZil9d1Lbf8FHhQe-25" value="NúmeroInterior: varchar(50)" style="shape=partialRectangle;connectable=0;fillColor=none;top=0;left=0;bottom=0;right=0;align=left;spacingLeft=6;overflow=hidden;whiteSpace=wrap;html=1;strokeColor=#000000;" vertex="1" parent="S8e-CZil9d1Lbf8FHhQe-23">
          <mxGeometry x="30" width="256" height="30" as="geometry">
            <mxRectangle width="256" height="30" as="alternateBounds" />
          </mxGeometry>
        </mxCell>
        <mxCell id="S8e-CZil9d1Lbf8FHhQe-26" value="" style="shape=tableRow;horizontal=0;startSize=0;swimlaneHead=0;swimlaneBody=0;fillColor=none;collapsible=0;dropTarget=0;points=[[0,0.5],[1,0.5]];portConstraint=eastwest;top=0;left=0;right=0;bottom=0;strokeColor=#000000;" vertex="1" parent="S8e-CZil9d1Lbf8FHhQe-1">
          <mxGeometry y="240" width="286" height="30" as="geometry" />
        </mxCell>
        <mxCell id="S8e-CZil9d1Lbf8FHhQe-27" value="" style="shape=partialRectangle;connectable=0;fillColor=none;top=0;left=0;bottom=0;right=0;editable=1;overflow=hidden;whiteSpace=wrap;html=1;strokeColor=#000000;" vertex="1" parent="S8e-CZil9d1Lbf8FHhQe-26">
          <mxGeometry width="30" height="30" as="geometry">
            <mxRectangle width="30" height="30" as="alternateBounds" />
          </mxGeometry>
        </mxCell>
        <mxCell id="S8e-CZil9d1Lbf8FHhQe-28" value="Colonia: varchar(100)" style="shape=partialRectangle;connectable=0;fillColor=none;top=0;left=0;bottom=0;right=0;align=left;spacingLeft=6;overflow=hidden;whiteSpace=wrap;html=1;strokeColor=#000000;" vertex="1" parent="S8e-CZil9d1Lbf8FHhQe-26">
          <mxGeometry x="30" width="256" height="30" as="geometry">
            <mxRectangle width="256" height="30" as="alternateBounds" />
          </mxGeometry>
        </mxCell>
        <mxCell id="S8e-CZil9d1Lbf8FHhQe-29" value="" style="shape=tableRow;horizontal=0;startSize=0;swimlaneHead=0;swimlaneBody=0;fillColor=none;collapsible=0;dropTarget=0;points=[[0,0.5],[1,0.5]];portConstraint=eastwest;top=0;left=0;right=0;bottom=0;strokeColor=#000000;" vertex="1" parent="S8e-CZil9d1Lbf8FHhQe-1">
          <mxGeometry y="270" width="286" height="30" as="geometry" />
        </mxCell>
        <mxCell id="S8e-CZil9d1Lbf8FHhQe-30" value="" style="shape=partialRectangle;connectable=0;fillColor=none;top=0;left=0;bottom=0;right=0;editable=1;overflow=hidden;whiteSpace=wrap;html=1;strokeColor=#000000;" vertex="1" parent="S8e-CZil9d1Lbf8FHhQe-29">
          <mxGeometry width="30" height="30" as="geometry">
            <mxRectangle width="30" height="30" as="alternateBounds" />
          </mxGeometry>
        </mxCell>
        <mxCell id="S8e-CZil9d1Lbf8FHhQe-31" value="Estado: varchar(100)" style="shape=partialRectangle;connectable=0;fillColor=none;top=0;left=0;bottom=0;right=0;align=left;spacingLeft=6;overflow=hidden;whiteSpace=wrap;html=1;strokeColor=#000000;" vertex="1" parent="S8e-CZil9d1Lbf8FHhQe-29">
          <mxGeometry x="30" width="256" height="30" as="geometry">
            <mxRectangle width="256" height="30" as="alternateBounds" />
          </mxGeometry>
        </mxCell>
        <mxCell id="S8e-CZil9d1Lbf8FHhQe-38" value="" style="shape=tableRow;horizontal=0;startSize=0;swimlaneHead=0;swimlaneBody=0;fillColor=none;collapsible=0;dropTarget=0;points=[[0,0.5],[1,0.5]];portConstraint=eastwest;top=0;left=0;right=0;bottom=0;strokeColor=#000000;" vertex="1" parent="S8e-CZil9d1Lbf8FHhQe-1">
          <mxGeometry y="300" width="286" height="30" as="geometry" />
        </mxCell>
        <mxCell id="S8e-CZil9d1Lbf8FHhQe-39" value="" style="shape=partialRectangle;connectable=0;fillColor=none;top=0;left=0;bottom=0;right=0;editable=1;overflow=hidden;whiteSpace=wrap;html=1;strokeColor=#000000;" vertex="1" parent="S8e-CZil9d1Lbf8FHhQe-38">
          <mxGeometry width="30" height="30" as="geometry">
            <mxRectangle width="30" height="30" as="alternateBounds" />
          </mxGeometry>
        </mxCell>
        <mxCell id="S8e-CZil9d1Lbf8FHhQe-40" value="Salario: money" style="shape=partialRectangle;connectable=0;fillColor=none;top=0;left=0;bottom=0;right=0;align=left;spacingLeft=6;overflow=hidden;whiteSpace=wrap;html=1;strokeColor=#000000;" vertex="1" parent="S8e-CZil9d1Lbf8FHhQe-38">
          <mxGeometry x="30" width="256" height="30" as="geometry">
            <mxRectangle width="256" height="30" as="alternateBounds" />
          </mxGeometry>
        </mxCell>
        <mxCell id="S8e-CZil9d1Lbf8FHhQe-44" value="" style="shape=tableRow;horizontal=0;startSize=0;swimlaneHead=0;swimlaneBody=0;fillColor=none;collapsible=0;dropTarget=0;points=[[0,0.5],[1,0.5]];portConstraint=eastwest;top=0;left=0;right=0;bottom=0;strokeColor=#000000;" vertex="1" parent="S8e-CZil9d1Lbf8FHhQe-1">
          <mxGeometry y="330" width="286" height="30" as="geometry" />
        </mxCell>
        <mxCell id="S8e-CZil9d1Lbf8FHhQe-45" value="" style="shape=partialRectangle;connectable=0;fillColor=none;top=0;left=0;bottom=0;right=0;editable=1;overflow=hidden;whiteSpace=wrap;html=1;strokeColor=#000000;" vertex="1" parent="S8e-CZil9d1Lbf8FHhQe-44">
          <mxGeometry width="30" height="30" as="geometry">
            <mxRectangle width="30" height="30" as="alternateBounds" />
          </mxGeometry>
        </mxCell>
        <mxCell id="S8e-CZil9d1Lbf8FHhQe-46" value="EsSeguridad: bool" style="shape=partialRectangle;connectable=0;fillColor=none;top=0;left=0;bottom=0;right=0;align=left;spacingLeft=6;overflow=hidden;whiteSpace=wrap;html=1;strokeColor=#000000;" vertex="1" parent="S8e-CZil9d1Lbf8FHhQe-44">
          <mxGeometry x="30" width="256" height="30" as="geometry">
            <mxRectangle width="256" height="30" as="alternateBounds" />
          </mxGeometry>
        </mxCell>
        <mxCell id="S8e-CZil9d1Lbf8FHhQe-47" value="" style="shape=tableRow;horizontal=0;startSize=0;swimlaneHead=0;swimlaneBody=0;fillColor=none;collapsible=0;dropTarget=0;points=[[0,0.5],[1,0.5]];portConstraint=eastwest;top=0;left=0;right=0;bottom=0;strokeColor=#000000;" vertex="1" parent="S8e-CZil9d1Lbf8FHhQe-1">
          <mxGeometry y="360" width="286" height="30" as="geometry" />
        </mxCell>
        <mxCell id="S8e-CZil9d1Lbf8FHhQe-48" value="" style="shape=partialRectangle;connectable=0;fillColor=none;top=0;left=0;bottom=0;right=0;editable=1;overflow=hidden;whiteSpace=wrap;html=1;strokeColor=#000000;" vertex="1" parent="S8e-CZil9d1Lbf8FHhQe-47">
          <mxGeometry width="30" height="30" as="geometry">
            <mxRectangle width="30" height="30" as="alternateBounds" />
          </mxGeometry>
        </mxCell>
        <mxCell id="S8e-CZil9d1Lbf8FHhQe-49" value="EsLimpieza: bool" style="shape=partialRectangle;connectable=0;fillColor=none;top=0;left=0;bottom=0;right=0;align=left;spacingLeft=6;overflow=hidden;whiteSpace=wrap;html=1;strokeColor=#000000;" vertex="1" parent="S8e-CZil9d1Lbf8FHhQe-47">
          <mxGeometry x="30" width="256" height="30" as="geometry">
            <mxRectangle width="256" height="30" as="alternateBounds" />
          </mxGeometry>
        </mxCell>
        <mxCell id="S8e-CZil9d1Lbf8FHhQe-50" value="" style="shape=tableRow;horizontal=0;startSize=0;swimlaneHead=0;swimlaneBody=0;fillColor=none;collapsible=0;dropTarget=0;points=[[0,0.5],[1,0.5]];portConstraint=eastwest;top=0;left=0;right=0;bottom=0;strokeColor=#000000;" vertex="1" parent="S8e-CZil9d1Lbf8FHhQe-1">
          <mxGeometry y="390" width="286" height="30" as="geometry" />
        </mxCell>
        <mxCell id="S8e-CZil9d1Lbf8FHhQe-51" value="" style="shape=partialRectangle;connectable=0;fillColor=none;top=0;left=0;bottom=0;right=0;editable=1;overflow=hidden;whiteSpace=wrap;html=1;strokeColor=#000000;" vertex="1" parent="S8e-CZil9d1Lbf8FHhQe-50">
          <mxGeometry width="30" height="30" as="geometry">
            <mxRectangle width="30" height="30" as="alternateBounds" />
          </mxGeometry>
        </mxCell>
        <mxCell id="S8e-CZil9d1Lbf8FHhQe-52" value="EsMédico: bool" style="shape=partialRectangle;connectable=0;fillColor=none;top=0;left=0;bottom=0;right=0;align=left;spacingLeft=6;overflow=hidden;whiteSpace=wrap;html=1;strokeColor=#000000;" vertex="1" parent="S8e-CZil9d1Lbf8FHhQe-50">
          <mxGeometry x="30" width="256" height="30" as="geometry">
            <mxRectangle width="256" height="30" as="alternateBounds" />
          </mxGeometry>
        </mxCell>
        <mxCell id="S8e-CZil9d1Lbf8FHhQe-62" value="TeléfonoEmprendedor" style="shape=table;startSize=30;container=1;collapsible=1;childLayout=tableLayout;fixedRows=1;rowLines=0;fontStyle=1;align=center;resizeLast=1;html=1;whiteSpace=wrap;strokeColor=#6c8ebf;fillColor=#dae8fc;" vertex="1" parent="1">
          <mxGeometry x="1053" y="-160" width="283" height="90" as="geometry" />
        </mxCell>
        <mxCell id="S8e-CZil9d1Lbf8FHhQe-63" value="" style="shape=tableRow;horizontal=0;startSize=0;swimlaneHead=0;swimlaneBody=0;fillColor=none;collapsible=0;dropTarget=0;points=[[0,0.5],[1,0.5]];portConstraint=eastwest;top=0;left=0;right=0;bottom=0;html=1;strokeColor=#000000;" vertex="1" parent="S8e-CZil9d1Lbf8FHhQe-62">
          <mxGeometry y="30" width="283" height="30" as="geometry" />
        </mxCell>
        <mxCell id="S8e-CZil9d1Lbf8FHhQe-64" value="FK" style="shape=partialRectangle;connectable=0;fillColor=none;top=0;left=0;bottom=0;right=0;fontStyle=1;overflow=hidden;html=1;whiteSpace=wrap;strokeColor=#000000;" vertex="1" parent="S8e-CZil9d1Lbf8FHhQe-63">
          <mxGeometry width="60" height="30" as="geometry">
            <mxRectangle width="60" height="30" as="alternateBounds" />
          </mxGeometry>
        </mxCell>
        <mxCell id="S8e-CZil9d1Lbf8FHhQe-65" value="RFC: char(13)" style="shape=partialRectangle;connectable=0;fillColor=none;top=0;left=0;bottom=0;right=0;align=left;spacingLeft=6;fontStyle=5;overflow=hidden;html=1;whiteSpace=wrap;strokeColor=#000000;" vertex="1" parent="S8e-CZil9d1Lbf8FHhQe-63">
          <mxGeometry x="60" width="223" height="30" as="geometry">
            <mxRectangle width="223" height="30" as="alternateBounds" />
          </mxGeometry>
        </mxCell>
        <mxCell id="S8e-CZil9d1Lbf8FHhQe-66" value="" style="shape=tableRow;horizontal=0;startSize=0;swimlaneHead=0;swimlaneBody=0;fillColor=none;collapsible=0;dropTarget=0;points=[[0,0.5],[1,0.5]];portConstraint=eastwest;top=0;left=0;right=0;bottom=1;html=1;strokeColor=#000000;" vertex="1" parent="S8e-CZil9d1Lbf8FHhQe-62">
          <mxGeometry y="60" width="283" height="30" as="geometry" />
        </mxCell>
        <mxCell id="S8e-CZil9d1Lbf8FHhQe-67" value="PK" style="shape=partialRectangle;connectable=0;fillColor=none;top=0;left=0;bottom=0;right=0;fontStyle=1;overflow=hidden;html=1;whiteSpace=wrap;strokeColor=#000000;" vertex="1" parent="S8e-CZil9d1Lbf8FHhQe-66">
          <mxGeometry width="60" height="30" as="geometry">
            <mxRectangle width="60" height="30" as="alternateBounds" />
          </mxGeometry>
        </mxCell>
        <mxCell id="S8e-CZil9d1Lbf8FHhQe-68" value="TeléfonoEmprendedor: char(10)" style="shape=partialRectangle;connectable=0;fillColor=none;top=0;left=0;bottom=0;right=0;align=left;spacingLeft=6;fontStyle=5;overflow=hidden;html=1;whiteSpace=wrap;strokeColor=#000000;" vertex="1" parent="S8e-CZil9d1Lbf8FHhQe-66">
          <mxGeometry x="60" width="223" height="30" as="geometry">
            <mxRectangle width="223" height="30" as="alternateBounds" />
          </mxGeometry>
        </mxCell>
        <mxCell id="S8e-CZil9d1Lbf8FHhQe-69" value="CorreoEmprendedor" style="shape=table;startSize=30;container=1;collapsible=1;childLayout=tableLayout;fixedRows=1;rowLines=0;fontStyle=1;align=center;resizeLast=1;html=1;whiteSpace=wrap;strokeColor=#6c8ebf;fillColor=#dae8fc;" vertex="1" parent="1">
          <mxGeometry x="1050" y="70" width="323" height="90" as="geometry" />
        </mxCell>
        <mxCell id="S8e-CZil9d1Lbf8FHhQe-70" value="" style="shape=tableRow;horizontal=0;startSize=0;swimlaneHead=0;swimlaneBody=0;fillColor=none;collapsible=0;dropTarget=0;points=[[0,0.5],[1,0.5]];portConstraint=eastwest;top=0;left=0;right=0;bottom=0;html=1;strokeColor=#000000;" vertex="1" parent="S8e-CZil9d1Lbf8FHhQe-69">
          <mxGeometry y="30" width="323" height="30" as="geometry" />
        </mxCell>
        <mxCell id="S8e-CZil9d1Lbf8FHhQe-71" value="PK1,FK" style="shape=partialRectangle;connectable=0;fillColor=none;top=0;left=0;bottom=0;right=0;fontStyle=1;overflow=hidden;html=1;whiteSpace=wrap;strokeColor=#000000;" vertex="1" parent="S8e-CZil9d1Lbf8FHhQe-70">
          <mxGeometry width="60" height="30" as="geometry">
            <mxRectangle width="60" height="30" as="alternateBounds" />
          </mxGeometry>
        </mxCell>
        <mxCell id="S8e-CZil9d1Lbf8FHhQe-72" value="RFC: char(13)" style="shape=partialRectangle;connectable=0;fillColor=none;top=0;left=0;bottom=0;right=0;align=left;spacingLeft=6;fontStyle=5;overflow=hidden;html=1;whiteSpace=wrap;strokeColor=#000000;" vertex="1" parent="S8e-CZil9d1Lbf8FHhQe-70">
          <mxGeometry x="60" width="263" height="30" as="geometry">
            <mxRectangle width="263" height="30" as="alternateBounds" />
          </mxGeometry>
        </mxCell>
        <mxCell id="S8e-CZil9d1Lbf8FHhQe-73" value="" style="shape=tableRow;horizontal=0;startSize=0;swimlaneHead=0;swimlaneBody=0;fillColor=none;collapsible=0;dropTarget=0;points=[[0,0.5],[1,0.5]];portConstraint=eastwest;top=0;left=0;right=0;bottom=1;html=1;strokeColor=#000000;" vertex="1" parent="S8e-CZil9d1Lbf8FHhQe-69">
          <mxGeometry y="60" width="323" height="30" as="geometry" />
        </mxCell>
        <mxCell id="S8e-CZil9d1Lbf8FHhQe-74" value="PK2" style="shape=partialRectangle;connectable=0;fillColor=none;top=0;left=0;bottom=0;right=0;fontStyle=1;overflow=hidden;html=1;whiteSpace=wrap;strokeColor=#000000;" vertex="1" parent="S8e-CZil9d1Lbf8FHhQe-73">
          <mxGeometry width="60" height="30" as="geometry">
            <mxRectangle width="60" height="30" as="alternateBounds" />
          </mxGeometry>
        </mxCell>
        <mxCell id="S8e-CZil9d1Lbf8FHhQe-75" value="CorreoEmprendedor: varchar(50)" style="shape=partialRectangle;connectable=0;fillColor=none;top=0;left=0;bottom=0;right=0;align=left;spacingLeft=6;fontStyle=5;overflow=hidden;html=1;whiteSpace=wrap;strokeColor=#000000;" vertex="1" parent="S8e-CZil9d1Lbf8FHhQe-73">
          <mxGeometry x="60" width="263" height="30" as="geometry">
            <mxRectangle width="263" height="30" as="alternateBounds" />
          </mxGeometry>
        </mxCell>
        <mxCell id="JcJGeaNp8OVn_KfTWgU8-4" value="Emprendedor" style="shape=table;startSize=30;container=1;collapsible=1;childLayout=tableLayout;fixedRows=1;rowLines=0;fontStyle=1;align=center;resizeLast=1;html=1;whiteSpace=wrap;fillColor=#dae8fc;strokeColor=#6c8ebf;" vertex="1" parent="1">
          <mxGeometry x="450" y="-480" width="280" height="390" as="geometry" />
        </mxCell>
        <mxCell id="JcJGeaNp8OVn_KfTWgU8-5" value="" style="shape=tableRow;horizontal=0;startSize=0;swimlaneHead=0;swimlaneBody=0;fillColor=none;collapsible=0;dropTarget=0;points=[[0,0.5],[1,0.5]];portConstraint=eastwest;top=0;left=0;right=0;bottom=0;html=1;" vertex="1" parent="JcJGeaNp8OVn_KfTWgU8-4">
          <mxGeometry y="30" width="280" height="30" as="geometry" />
        </mxCell>
        <mxCell id="JcJGeaNp8OVn_KfTWgU8-6" value="PK" style="shape=partialRectangle;connectable=0;fillColor=none;top=0;left=0;bottom=0;right=0;fontStyle=1;overflow=hidden;html=1;whiteSpace=wrap;" vertex="1" parent="JcJGeaNp8OVn_KfTWgU8-5">
          <mxGeometry width="60" height="30" as="geometry">
            <mxRectangle width="60" height="30" as="alternateBounds" />
          </mxGeometry>
        </mxCell>
        <mxCell id="JcJGeaNp8OVn_KfTWgU8-7" value="RFC: char(13)" style="shape=partialRectangle;connectable=0;fillColor=none;top=0;left=0;bottom=0;right=0;align=left;spacingLeft=6;fontStyle=5;overflow=hidden;html=1;whiteSpace=wrap;" vertex="1" parent="JcJGeaNp8OVn_KfTWgU8-5">
          <mxGeometry x="60" width="220" height="30" as="geometry">
            <mxRectangle width="220" height="30" as="alternateBounds" />
          </mxGeometry>
        </mxCell>
        <mxCell id="JcJGeaNp8OVn_KfTWgU8-8" value="" style="shape=tableRow;horizontal=0;startSize=0;swimlaneHead=0;swimlaneBody=0;fillColor=none;collapsible=0;dropTarget=0;points=[[0,0.5],[1,0.5]];portConstraint=eastwest;top=0;left=0;right=0;bottom=1;html=1;" vertex="1" parent="JcJGeaNp8OVn_KfTWgU8-4">
          <mxGeometry y="60" width="280" height="30" as="geometry" />
        </mxCell>
        <mxCell id="JcJGeaNp8OVn_KfTWgU8-9" value="FK" style="shape=partialRectangle;connectable=0;fillColor=none;top=0;left=0;bottom=0;right=0;fontStyle=1;overflow=hidden;html=1;whiteSpace=wrap;" vertex="1" parent="JcJGeaNp8OVn_KfTWgU8-8">
          <mxGeometry width="60" height="30" as="geometry">
            <mxRectangle width="60" height="30" as="alternateBounds" />
          </mxGeometry>
        </mxCell>
        <mxCell id="JcJGeaNp8OVn_KfTWgU8-10" value="idNegocio: serial4" style="shape=partialRectangle;connectable=0;fillColor=none;top=0;left=0;bottom=0;right=0;align=left;spacingLeft=6;fontStyle=5;overflow=hidden;html=1;whiteSpace=wrap;" vertex="1" parent="JcJGeaNp8OVn_KfTWgU8-8">
          <mxGeometry x="60" width="220" height="30" as="geometry">
            <mxRectangle width="220" height="30" as="alternateBounds" />
          </mxGeometry>
        </mxCell>
        <mxCell id="JcJGeaNp8OVn_KfTWgU8-11" value="" style="shape=tableRow;horizontal=0;startSize=0;swimlaneHead=0;swimlaneBody=0;fillColor=none;collapsible=0;dropTarget=0;points=[[0,0.5],[1,0.5]];portConstraint=eastwest;top=0;left=0;right=0;bottom=0;html=1;" vertex="1" parent="JcJGeaNp8OVn_KfTWgU8-4">
          <mxGeometry y="90" width="280" height="30" as="geometry" />
        </mxCell>
        <mxCell id="JcJGeaNp8OVn_KfTWgU8-12" value="" style="shape=partialRectangle;connectable=0;fillColor=none;top=0;left=0;bottom=0;right=0;editable=1;overflow=hidden;html=1;whiteSpace=wrap;" vertex="1" parent="JcJGeaNp8OVn_KfTWgU8-11">
          <mxGeometry width="60" height="30" as="geometry">
            <mxRectangle width="60" height="30" as="alternateBounds" />
          </mxGeometry>
        </mxCell>
        <mxCell id="JcJGeaNp8OVn_KfTWgU8-13" value="NombreEmprendedor: varchar(100)" style="shape=partialRectangle;connectable=0;fillColor=none;top=0;left=0;bottom=0;right=0;align=left;spacingLeft=6;overflow=hidden;html=1;whiteSpace=wrap;" vertex="1" parent="JcJGeaNp8OVn_KfTWgU8-11">
          <mxGeometry x="60" width="220" height="30" as="geometry">
            <mxRectangle width="220" height="30" as="alternateBounds" />
          </mxGeometry>
        </mxCell>
        <mxCell id="JcJGeaNp8OVn_KfTWgU8-14" value="" style="shape=tableRow;horizontal=0;startSize=0;swimlaneHead=0;swimlaneBody=0;fillColor=none;collapsible=0;dropTarget=0;points=[[0,0.5],[1,0.5]];portConstraint=eastwest;top=0;left=0;right=0;bottom=0;html=1;" vertex="1" parent="JcJGeaNp8OVn_KfTWgU8-4">
          <mxGeometry y="120" width="280" height="30" as="geometry" />
        </mxCell>
        <mxCell id="JcJGeaNp8OVn_KfTWgU8-15" value="" style="shape=partialRectangle;connectable=0;fillColor=none;top=0;left=0;bottom=0;right=0;editable=1;overflow=hidden;html=1;whiteSpace=wrap;" vertex="1" parent="JcJGeaNp8OVn_KfTWgU8-14">
          <mxGeometry width="60" height="30" as="geometry">
            <mxRectangle width="60" height="30" as="alternateBounds" />
          </mxGeometry>
        </mxCell>
        <mxCell id="JcJGeaNp8OVn_KfTWgU8-16" value="APaternoEmprendedor: varchar(100)" style="shape=partialRectangle;connectable=0;fillColor=none;top=0;left=0;bottom=0;right=0;align=left;spacingLeft=6;overflow=hidden;html=1;whiteSpace=wrap;" vertex="1" parent="JcJGeaNp8OVn_KfTWgU8-14">
          <mxGeometry x="60" width="220" height="30" as="geometry">
            <mxRectangle width="220" height="30" as="alternateBounds" />
          </mxGeometry>
        </mxCell>
        <mxCell id="JcJGeaNp8OVn_KfTWgU8-17" value="" style="shape=tableRow;horizontal=0;startSize=0;swimlaneHead=0;swimlaneBody=0;fillColor=none;collapsible=0;dropTarget=0;points=[[0,0.5],[1,0.5]];portConstraint=eastwest;top=0;left=0;right=0;bottom=0;html=1;" vertex="1" parent="JcJGeaNp8OVn_KfTWgU8-4">
          <mxGeometry y="150" width="280" height="30" as="geometry" />
        </mxCell>
        <mxCell id="JcJGeaNp8OVn_KfTWgU8-18" value="" style="shape=partialRectangle;connectable=0;fillColor=none;top=0;left=0;bottom=0;right=0;editable=1;overflow=hidden;html=1;whiteSpace=wrap;" vertex="1" parent="JcJGeaNp8OVn_KfTWgU8-17">
          <mxGeometry width="60" height="30" as="geometry">
            <mxRectangle width="60" height="30" as="alternateBounds" />
          </mxGeometry>
        </mxCell>
        <mxCell id="JcJGeaNp8OVn_KfTWgU8-19" value="AMaternoEmprendedor: varchar(100)" style="shape=partialRectangle;connectable=0;fillColor=none;top=0;left=0;bottom=0;right=0;align=left;spacingLeft=6;overflow=hidden;html=1;whiteSpace=wrap;" vertex="1" parent="JcJGeaNp8OVn_KfTWgU8-17">
          <mxGeometry x="60" width="220" height="30" as="geometry">
            <mxRectangle width="220" height="30" as="alternateBounds" />
          </mxGeometry>
        </mxCell>
        <mxCell id="JcJGeaNp8OVn_KfTWgU8-20" value="" style="shape=tableRow;horizontal=0;startSize=0;swimlaneHead=0;swimlaneBody=0;fillColor=none;collapsible=0;dropTarget=0;points=[[0,0.5],[1,0.5]];portConstraint=eastwest;top=0;left=0;right=0;bottom=0;html=1;" vertex="1" parent="JcJGeaNp8OVn_KfTWgU8-4">
          <mxGeometry y="180" width="280" height="30" as="geometry" />
        </mxCell>
        <mxCell id="JcJGeaNp8OVn_KfTWgU8-21" value="" style="shape=partialRectangle;connectable=0;fillColor=none;top=0;left=0;bottom=0;right=0;editable=1;overflow=hidden;html=1;whiteSpace=wrap;" vertex="1" parent="JcJGeaNp8OVn_KfTWgU8-20">
          <mxGeometry width="60" height="30" as="geometry">
            <mxRectangle width="60" height="30" as="alternateBounds" />
          </mxGeometry>
        </mxCell>
        <mxCell id="JcJGeaNp8OVn_KfTWgU8-22" value="Calle: varchar(100)" style="shape=partialRectangle;connectable=0;fillColor=none;top=0;left=0;bottom=0;right=0;align=left;spacingLeft=6;overflow=hidden;html=1;whiteSpace=wrap;" vertex="1" parent="JcJGeaNp8OVn_KfTWgU8-20">
          <mxGeometry x="60" width="220" height="30" as="geometry">
            <mxRectangle width="220" height="30" as="alternateBounds" />
          </mxGeometry>
        </mxCell>
        <mxCell id="JcJGeaNp8OVn_KfTWgU8-23" value="" style="shape=tableRow;horizontal=0;startSize=0;swimlaneHead=0;swimlaneBody=0;fillColor=none;collapsible=0;dropTarget=0;points=[[0,0.5],[1,0.5]];portConstraint=eastwest;top=0;left=0;right=0;bottom=0;html=1;" vertex="1" parent="JcJGeaNp8OVn_KfTWgU8-4">
          <mxGeometry y="210" width="280" height="30" as="geometry" />
        </mxCell>
        <mxCell id="JcJGeaNp8OVn_KfTWgU8-24" value="" style="shape=partialRectangle;connectable=0;fillColor=none;top=0;left=0;bottom=0;right=0;editable=1;overflow=hidden;html=1;whiteSpace=wrap;" vertex="1" parent="JcJGeaNp8OVn_KfTWgU8-23">
          <mxGeometry width="60" height="30" as="geometry">
            <mxRectangle width="60" height="30" as="alternateBounds" />
          </mxGeometry>
        </mxCell>
        <mxCell id="JcJGeaNp8OVn_KfTWgU8-25" value="NúmeroExterior: varchar(50)" style="shape=partialRectangle;connectable=0;fillColor=none;top=0;left=0;bottom=0;right=0;align=left;spacingLeft=6;overflow=hidden;html=1;whiteSpace=wrap;" vertex="1" parent="JcJGeaNp8OVn_KfTWgU8-23">
          <mxGeometry x="60" width="220" height="30" as="geometry">
            <mxRectangle width="220" height="30" as="alternateBounds" />
          </mxGeometry>
        </mxCell>
        <mxCell id="JcJGeaNp8OVn_KfTWgU8-26" value="" style="shape=tableRow;horizontal=0;startSize=0;swimlaneHead=0;swimlaneBody=0;fillColor=none;collapsible=0;dropTarget=0;points=[[0,0.5],[1,0.5]];portConstraint=eastwest;top=0;left=0;right=0;bottom=0;html=1;" vertex="1" parent="JcJGeaNp8OVn_KfTWgU8-4">
          <mxGeometry y="240" width="280" height="30" as="geometry" />
        </mxCell>
        <mxCell id="JcJGeaNp8OVn_KfTWgU8-27" value="" style="shape=partialRectangle;connectable=0;fillColor=none;top=0;left=0;bottom=0;right=0;editable=1;overflow=hidden;html=1;whiteSpace=wrap;" vertex="1" parent="JcJGeaNp8OVn_KfTWgU8-26">
          <mxGeometry width="60" height="30" as="geometry">
            <mxRectangle width="60" height="30" as="alternateBounds" />
          </mxGeometry>
        </mxCell>
        <mxCell id="JcJGeaNp8OVn_KfTWgU8-28" value="NúmeroInterior:varchar(50)" style="shape=partialRectangle;connectable=0;fillColor=none;top=0;left=0;bottom=0;right=0;align=left;spacingLeft=6;overflow=hidden;html=1;whiteSpace=wrap;" vertex="1" parent="JcJGeaNp8OVn_KfTWgU8-26">
          <mxGeometry x="60" width="220" height="30" as="geometry">
            <mxRectangle width="220" height="30" as="alternateBounds" />
          </mxGeometry>
        </mxCell>
        <mxCell id="JcJGeaNp8OVn_KfTWgU8-29" value="" style="shape=tableRow;horizontal=0;startSize=0;swimlaneHead=0;swimlaneBody=0;fillColor=none;collapsible=0;dropTarget=0;points=[[0,0.5],[1,0.5]];portConstraint=eastwest;top=0;left=0;right=0;bottom=0;html=1;" vertex="1" parent="JcJGeaNp8OVn_KfTWgU8-4">
          <mxGeometry y="270" width="280" height="30" as="geometry" />
        </mxCell>
        <mxCell id="JcJGeaNp8OVn_KfTWgU8-30" value="" style="shape=partialRectangle;connectable=0;fillColor=none;top=0;left=0;bottom=0;right=0;editable=1;overflow=hidden;html=1;whiteSpace=wrap;" vertex="1" parent="JcJGeaNp8OVn_KfTWgU8-29">
          <mxGeometry width="60" height="30" as="geometry">
            <mxRectangle width="60" height="30" as="alternateBounds" />
          </mxGeometry>
        </mxCell>
        <mxCell id="JcJGeaNp8OVn_KfTWgU8-31" value="Colonia: varchar(100)" style="shape=partialRectangle;connectable=0;fillColor=none;top=0;left=0;bottom=0;right=0;align=left;spacingLeft=6;overflow=hidden;html=1;whiteSpace=wrap;" vertex="1" parent="JcJGeaNp8OVn_KfTWgU8-29">
          <mxGeometry x="60" width="220" height="30" as="geometry">
            <mxRectangle width="220" height="30" as="alternateBounds" />
          </mxGeometry>
        </mxCell>
        <mxCell id="JcJGeaNp8OVn_KfTWgU8-32" value="" style="shape=tableRow;horizontal=0;startSize=0;swimlaneHead=0;swimlaneBody=0;fillColor=none;collapsible=0;dropTarget=0;points=[[0,0.5],[1,0.5]];portConstraint=eastwest;top=0;left=0;right=0;bottom=0;html=1;" vertex="1" parent="JcJGeaNp8OVn_KfTWgU8-4">
          <mxGeometry y="300" width="280" height="30" as="geometry" />
        </mxCell>
        <mxCell id="JcJGeaNp8OVn_KfTWgU8-33" value="" style="shape=partialRectangle;connectable=0;fillColor=none;top=0;left=0;bottom=0;right=0;editable=1;overflow=hidden;html=1;whiteSpace=wrap;" vertex="1" parent="JcJGeaNp8OVn_KfTWgU8-32">
          <mxGeometry width="60" height="30" as="geometry">
            <mxRectangle width="60" height="30" as="alternateBounds" />
          </mxGeometry>
        </mxCell>
        <mxCell id="JcJGeaNp8OVn_KfTWgU8-34" value="Estado: varchar(100)" style="shape=partialRectangle;connectable=0;fillColor=none;top=0;left=0;bottom=0;right=0;align=left;spacingLeft=6;overflow=hidden;html=1;whiteSpace=wrap;" vertex="1" parent="JcJGeaNp8OVn_KfTWgU8-32">
          <mxGeometry x="60" width="220" height="30" as="geometry">
            <mxRectangle width="220" height="30" as="alternateBounds" />
          </mxGeometry>
        </mxCell>
        <mxCell id="JcJGeaNp8OVn_KfTWgU8-35" value="" style="shape=tableRow;horizontal=0;startSize=0;swimlaneHead=0;swimlaneBody=0;fillColor=none;collapsible=0;dropTarget=0;points=[[0,0.5],[1,0.5]];portConstraint=eastwest;top=0;left=0;right=0;bottom=0;html=1;" vertex="1" parent="JcJGeaNp8OVn_KfTWgU8-4">
          <mxGeometry y="330" width="280" height="30" as="geometry" />
        </mxCell>
        <mxCell id="JcJGeaNp8OVn_KfTWgU8-36" value="" style="shape=partialRectangle;connectable=0;fillColor=none;top=0;left=0;bottom=0;right=0;editable=1;overflow=hidden;html=1;whiteSpace=wrap;" vertex="1" parent="JcJGeaNp8OVn_KfTWgU8-35">
          <mxGeometry width="60" height="30" as="geometry">
            <mxRectangle width="60" height="30" as="alternateBounds" />
          </mxGeometry>
        </mxCell>
        <mxCell id="JcJGeaNp8OVn_KfTWgU8-37" value="Género: char(1)" style="shape=partialRectangle;connectable=0;fillColor=none;top=0;left=0;bottom=0;right=0;align=left;spacingLeft=6;overflow=hidden;html=1;whiteSpace=wrap;" vertex="1" parent="JcJGeaNp8OVn_KfTWgU8-35">
          <mxGeometry x="60" width="220" height="30" as="geometry">
            <mxRectangle width="220" height="30" as="alternateBounds" />
          </mxGeometry>
        </mxCell>
        <mxCell id="JcJGeaNp8OVn_KfTWgU8-38" value="" style="shape=tableRow;horizontal=0;startSize=0;swimlaneHead=0;swimlaneBody=0;fillColor=none;collapsible=0;dropTarget=0;points=[[0,0.5],[1,0.5]];portConstraint=eastwest;top=0;left=0;right=0;bottom=0;html=1;" vertex="1" parent="JcJGeaNp8OVn_KfTWgU8-4">
          <mxGeometry y="360" width="280" height="30" as="geometry" />
        </mxCell>
        <mxCell id="JcJGeaNp8OVn_KfTWgU8-39" value="" style="shape=partialRectangle;connectable=0;fillColor=none;top=0;left=0;bottom=0;right=0;editable=1;overflow=hidden;html=1;whiteSpace=wrap;" vertex="1" parent="JcJGeaNp8OVn_KfTWgU8-38">
          <mxGeometry width="60" height="30" as="geometry">
            <mxRectangle width="60" height="30" as="alternateBounds" />
          </mxGeometry>
        </mxCell>
        <mxCell id="JcJGeaNp8OVn_KfTWgU8-40" value="FechaNacimiento: date" style="shape=partialRectangle;connectable=0;fillColor=none;top=0;left=0;bottom=0;right=0;align=left;spacingLeft=6;overflow=hidden;html=1;whiteSpace=wrap;" vertex="1" parent="JcJGeaNp8OVn_KfTWgU8-38">
          <mxGeometry x="60" width="220" height="30" as="geometry">
            <mxRectangle width="220" height="30" as="alternateBounds" />
          </mxGeometry>
        </mxCell>
        <mxCell id="JcJGeaNp8OVn_KfTWgU8-44" value="" style="fontSize=12;html=1;endArrow=ERoneToMany;startArrow=ERzeroToOne;rounded=1;exitX=1;exitY=0.5;exitDx=0;exitDy=0;fillColor=#e1d5e7;strokeColor=#000000;entryX=0;entryY=0.5;entryDx=0;entryDy=0;edgeStyle=orthogonalEdgeStyle;" edge="1" parent="1" source="JcJGeaNp8OVn_KfTWgU8-5" target="S8e-CZil9d1Lbf8FHhQe-70">
          <mxGeometry width="100" height="100" relative="1" as="geometry">
            <mxPoint x="100" y="30" as="sourcePoint" />
            <mxPoint x="219" y="30" as="targetPoint" />
          </mxGeometry>
        </mxCell>
        <mxCell id="JcJGeaNp8OVn_KfTWgU8-45" value="" style="edgeStyle=orthogonalEdgeStyle;fontSize=12;html=1;endArrow=ERoneToMany;startArrow=ERzeroToOne;rounded=1;exitX=1;exitY=0.5;exitDx=0;exitDy=0;fillColor=#e1d5e7;strokeColor=#000000;entryX=0;entryY=0.5;entryDx=0;entryDy=0;curved=0;" edge="1" parent="1" source="JcJGeaNp8OVn_KfTWgU8-5" target="S8e-CZil9d1Lbf8FHhQe-63">
          <mxGeometry width="100" height="100" relative="1" as="geometry">
            <mxPoint x="960" y="-160" as="sourcePoint" />
            <mxPoint x="1079" y="-160" as="targetPoint" />
          </mxGeometry>
        </mxCell>
        <mxCell id="lPWEa0LkZSCRpqWwWUgu-112" value="Trabajar" style="shape=table;startSize=30;container=1;collapsible=1;childLayout=tableLayout;fixedRows=1;rowLines=0;fontStyle=1;align=center;resizeLast=1;html=1;whiteSpace=wrap;strokeColor=#6c8ebf;fillColor=#dae8fc;" vertex="1" parent="1">
          <mxGeometry x="-786" y="-361" width="216" height="120" as="geometry" />
        </mxCell>
        <mxCell id="lPWEa0LkZSCRpqWwWUgu-113" value="" style="shape=tableRow;horizontal=0;startSize=0;swimlaneHead=0;swimlaneBody=0;fillColor=none;collapsible=0;dropTarget=0;points=[[0,0.5],[1,0.5]];portConstraint=eastwest;top=0;left=0;right=0;bottom=0;html=1;strokeColor=#000000;" vertex="1" parent="lPWEa0LkZSCRpqWwWUgu-112">
          <mxGeometry y="30" width="216" height="30" as="geometry" />
        </mxCell>
        <mxCell id="lPWEa0LkZSCRpqWwWUgu-114" value="FK1" style="shape=partialRectangle;connectable=0;fillColor=none;top=0;left=0;bottom=0;right=0;fontStyle=1;overflow=hidden;html=1;whiteSpace=wrap;strokeColor=#000000;" vertex="1" parent="lPWEa0LkZSCRpqWwWUgu-113">
          <mxGeometry width="60" height="30" as="geometry">
            <mxRectangle width="60" height="30" as="alternateBounds" />
          </mxGeometry>
        </mxCell>
        <mxCell id="lPWEa0LkZSCRpqWwWUgu-115" value="idBazar: int" style="shape=partialRectangle;connectable=0;fillColor=none;top=0;left=0;bottom=0;right=0;align=left;spacingLeft=6;fontStyle=5;overflow=hidden;html=1;whiteSpace=wrap;strokeColor=#000000;" vertex="1" parent="lPWEa0LkZSCRpqWwWUgu-113">
          <mxGeometry x="60" width="156" height="30" as="geometry">
            <mxRectangle width="156" height="30" as="alternateBounds" />
          </mxGeometry>
        </mxCell>
        <mxCell id="JcJGeaNp8OVn_KfTWgU8-46" value="" style="shape=tableRow;horizontal=0;startSize=0;swimlaneHead=0;swimlaneBody=0;fillColor=none;collapsible=0;dropTarget=0;points=[[0,0.5],[1,0.5]];portConstraint=eastwest;top=0;left=0;right=0;bottom=1;html=1;strokeColor=#000000;" vertex="1" parent="lPWEa0LkZSCRpqWwWUgu-112">
          <mxGeometry y="60" width="216" height="30" as="geometry" />
        </mxCell>
        <mxCell id="JcJGeaNp8OVn_KfTWgU8-47" value="FK2" style="shape=partialRectangle;connectable=0;fillColor=none;top=0;left=0;bottom=0;right=0;fontStyle=1;overflow=hidden;html=1;whiteSpace=wrap;strokeColor=#000000;" vertex="1" parent="JcJGeaNp8OVn_KfTWgU8-46">
          <mxGeometry width="60" height="30" as="geometry">
            <mxRectangle width="60" height="30" as="alternateBounds" />
          </mxGeometry>
        </mxCell>
        <mxCell id="JcJGeaNp8OVn_KfTWgU8-48" value="RFC: char(13)" style="shape=partialRectangle;connectable=0;fillColor=none;top=0;left=0;bottom=0;right=0;align=left;spacingLeft=6;fontStyle=5;overflow=hidden;html=1;whiteSpace=wrap;strokeColor=#000000;" vertex="1" parent="JcJGeaNp8OVn_KfTWgU8-46">
          <mxGeometry x="60" width="156" height="30" as="geometry">
            <mxRectangle width="156" height="30" as="alternateBounds" />
          </mxGeometry>
        </mxCell>
        <mxCell id="lPWEa0LkZSCRpqWwWUgu-116" value="" style="shape=tableRow;horizontal=0;startSize=0;swimlaneHead=0;swimlaneBody=0;fillColor=none;collapsible=0;dropTarget=0;points=[[0,0.5],[1,0.5]];portConstraint=eastwest;top=0;left=0;right=0;bottom=1;html=1;strokeColor=#000000;" vertex="1" parent="lPWEa0LkZSCRpqWwWUgu-112">
          <mxGeometry y="90" width="216" height="30" as="geometry" />
        </mxCell>
        <mxCell id="lPWEa0LkZSCRpqWwWUgu-117" value="" style="shape=partialRectangle;connectable=0;fillColor=none;top=0;left=0;bottom=0;right=0;fontStyle=1;overflow=hidden;html=1;whiteSpace=wrap;strokeColor=#000000;" vertex="1" parent="lPWEa0LkZSCRpqWwWUgu-116">
          <mxGeometry width="60" height="30" as="geometry">
            <mxRectangle width="60" height="30" as="alternateBounds" />
          </mxGeometry>
        </mxCell>
        <mxCell id="lPWEa0LkZSCRpqWwWUgu-118" value="FechaAsistencia: date" style="shape=partialRectangle;connectable=0;fillColor=none;top=0;left=0;bottom=0;right=0;align=left;spacingLeft=6;fontStyle=5;overflow=hidden;html=1;whiteSpace=wrap;strokeColor=#000000;" vertex="1" parent="lPWEa0LkZSCRpqWwWUgu-116">
          <mxGeometry x="60" width="156" height="30" as="geometry">
            <mxRectangle width="156" height="30" as="alternateBounds" />
          </mxGeometry>
        </mxCell>
        <mxCell id="KqZBCw7qDT3EIS-g3Wz3-198" value="Ticket" style="shape=table;startSize=30;container=1;collapsible=1;childLayout=tableLayout;fixedRows=1;rowLines=0;fontStyle=1;align=center;resizeLast=1;html=1;whiteSpace=wrap;strokeColor=#6c8ebf;fillColor=#dae8fc;" vertex="1" parent="1">
          <mxGeometry x="-546" y="-709" width="240" height="210" as="geometry" />
        </mxCell>
        <mxCell id="KqZBCw7qDT3EIS-g3Wz3-199" value="" style="shape=tableRow;horizontal=0;startSize=0;swimlaneHead=0;swimlaneBody=0;fillColor=none;collapsible=0;dropTarget=0;points=[[0,0.5],[1,0.5]];portConstraint=eastwest;top=0;left=0;right=0;bottom=0;html=1;strokeColor=#000000;" vertex="1" parent="KqZBCw7qDT3EIS-g3Wz3-198">
          <mxGeometry y="30" width="240" height="30" as="geometry" />
        </mxCell>
        <mxCell id="KqZBCw7qDT3EIS-g3Wz3-200" value="PK" style="shape=partialRectangle;connectable=0;fillColor=none;top=0;left=0;bottom=0;right=0;fontStyle=1;overflow=hidden;html=1;whiteSpace=wrap;strokeColor=#000000;" vertex="1" parent="KqZBCw7qDT3EIS-g3Wz3-199">
          <mxGeometry width="60" height="30" as="geometry">
            <mxRectangle width="60" height="30" as="alternateBounds" />
          </mxGeometry>
        </mxCell>
        <mxCell id="KqZBCw7qDT3EIS-g3Wz3-201" value="IdTicket: serial4" style="shape=partialRectangle;connectable=0;fillColor=none;top=0;left=0;bottom=0;right=0;align=left;spacingLeft=6;fontStyle=5;overflow=hidden;html=1;whiteSpace=wrap;strokeColor=#000000;" vertex="1" parent="KqZBCw7qDT3EIS-g3Wz3-199">
          <mxGeometry x="60" width="180" height="30" as="geometry">
            <mxRectangle width="180" height="30" as="alternateBounds" />
          </mxGeometry>
        </mxCell>
        <mxCell id="KqZBCw7qDT3EIS-g3Wz3-214" value="" style="shape=tableRow;horizontal=0;startSize=0;swimlaneHead=0;swimlaneBody=0;fillColor=none;collapsible=0;dropTarget=0;points=[[0,0.5],[1,0.5]];portConstraint=eastwest;top=0;left=0;right=0;bottom=0;html=1;strokeColor=#000000;" vertex="1" parent="KqZBCw7qDT3EIS-g3Wz3-198">
          <mxGeometry y="60" width="240" height="30" as="geometry" />
        </mxCell>
        <mxCell id="KqZBCw7qDT3EIS-g3Wz3-215" value="FK1" style="shape=partialRectangle;connectable=0;fillColor=none;top=0;left=0;bottom=0;right=0;fontStyle=1;overflow=hidden;html=1;whiteSpace=wrap;strokeColor=#000000;" vertex="1" parent="KqZBCw7qDT3EIS-g3Wz3-214">
          <mxGeometry width="60" height="30" as="geometry">
            <mxRectangle width="60" height="30" as="alternateBounds" />
          </mxGeometry>
        </mxCell>
        <mxCell id="KqZBCw7qDT3EIS-g3Wz3-216" value="IdCliente: int" style="shape=partialRectangle;connectable=0;fillColor=none;top=0;left=0;bottom=0;right=0;align=left;spacingLeft=6;fontStyle=5;overflow=hidden;html=1;whiteSpace=wrap;strokeColor=#000000;" vertex="1" parent="KqZBCw7qDT3EIS-g3Wz3-214">
          <mxGeometry x="60" width="180" height="30" as="geometry">
            <mxRectangle width="180" height="30" as="alternateBounds" />
          </mxGeometry>
        </mxCell>
        <mxCell id="KqZBCw7qDT3EIS-g3Wz3-220" value="" style="shape=tableRow;horizontal=0;startSize=0;swimlaneHead=0;swimlaneBody=0;fillColor=none;collapsible=0;dropTarget=0;points=[[0,0.5],[1,0.5]];portConstraint=eastwest;top=0;left=0;right=0;bottom=0;html=1;strokeColor=#000000;" vertex="1" parent="KqZBCw7qDT3EIS-g3Wz3-198">
          <mxGeometry y="90" width="240" height="30" as="geometry" />
        </mxCell>
        <mxCell id="KqZBCw7qDT3EIS-g3Wz3-221" value="FK2" style="shape=partialRectangle;connectable=0;fillColor=none;top=0;left=0;bottom=0;right=0;fontStyle=1;overflow=hidden;html=1;whiteSpace=wrap;strokeColor=#000000;" vertex="1" parent="KqZBCw7qDT3EIS-g3Wz3-220">
          <mxGeometry width="60" height="30" as="geometry">
            <mxRectangle width="60" height="30" as="alternateBounds" />
          </mxGeometry>
        </mxCell>
        <mxCell id="KqZBCw7qDT3EIS-g3Wz3-222" value="idBazar: int" style="shape=partialRectangle;connectable=0;fillColor=none;top=0;left=0;bottom=0;right=0;align=left;spacingLeft=6;fontStyle=5;overflow=hidden;html=1;whiteSpace=wrap;strokeColor=#000000;" vertex="1" parent="KqZBCw7qDT3EIS-g3Wz3-220">
          <mxGeometry x="60" width="180" height="30" as="geometry">
            <mxRectangle width="180" height="30" as="alternateBounds" />
          </mxGeometry>
        </mxCell>
        <mxCell id="KqZBCw7qDT3EIS-g3Wz3-217" value="" style="shape=tableRow;horizontal=0;startSize=0;swimlaneHead=0;swimlaneBody=0;fillColor=none;collapsible=0;dropTarget=0;points=[[0,0.5],[1,0.5]];portConstraint=eastwest;top=0;left=0;right=0;bottom=0;html=1;strokeColor=#000000;" vertex="1" parent="KqZBCw7qDT3EIS-g3Wz3-198">
          <mxGeometry y="120" width="240" height="30" as="geometry" />
        </mxCell>
        <mxCell id="KqZBCw7qDT3EIS-g3Wz3-218" value="FK3" style="shape=partialRectangle;connectable=0;fillColor=none;top=0;left=0;bottom=0;right=0;fontStyle=1;overflow=hidden;html=1;whiteSpace=wrap;strokeColor=#000000;" vertex="1" parent="KqZBCw7qDT3EIS-g3Wz3-217">
          <mxGeometry width="60" height="30" as="geometry">
            <mxRectangle width="60" height="30" as="alternateBounds" />
          </mxGeometry>
        </mxCell>
        <mxCell id="KqZBCw7qDT3EIS-g3Wz3-219" value="IdNegocio: int" style="shape=partialRectangle;connectable=0;fillColor=none;top=0;left=0;bottom=0;right=0;align=left;spacingLeft=6;fontStyle=5;overflow=hidden;html=1;whiteSpace=wrap;strokeColor=#000000;" vertex="1" parent="KqZBCw7qDT3EIS-g3Wz3-217">
          <mxGeometry x="60" width="180" height="30" as="geometry">
            <mxRectangle width="180" height="30" as="alternateBounds" />
          </mxGeometry>
        </mxCell>
        <mxCell id="KqZBCw7qDT3EIS-g3Wz3-202" value="" style="shape=tableRow;horizontal=0;startSize=0;swimlaneHead=0;swimlaneBody=0;fillColor=none;collapsible=0;dropTarget=0;points=[[0,0.5],[1,0.5]];portConstraint=eastwest;top=0;left=0;right=0;bottom=1;html=1;strokeColor=#000000;" vertex="1" parent="KqZBCw7qDT3EIS-g3Wz3-198">
          <mxGeometry y="150" width="240" height="30" as="geometry" />
        </mxCell>
        <mxCell id="KqZBCw7qDT3EIS-g3Wz3-203" value="FK4" style="shape=partialRectangle;connectable=0;fillColor=none;top=0;left=0;bottom=0;right=0;fontStyle=1;overflow=hidden;html=1;whiteSpace=wrap;strokeColor=#000000;" vertex="1" parent="KqZBCw7qDT3EIS-g3Wz3-202">
          <mxGeometry width="60" height="30" as="geometry">
            <mxRectangle width="60" height="30" as="alternateBounds" />
          </mxGeometry>
        </mxCell>
        <mxCell id="KqZBCw7qDT3EIS-g3Wz3-204" value="RFC: char(13)" style="shape=partialRectangle;connectable=0;fillColor=none;top=0;left=0;bottom=0;right=0;align=left;spacingLeft=6;fontStyle=5;overflow=hidden;html=1;whiteSpace=wrap;strokeColor=#000000;" vertex="1" parent="KqZBCw7qDT3EIS-g3Wz3-202">
          <mxGeometry x="60" width="180" height="30" as="geometry">
            <mxRectangle width="180" height="30" as="alternateBounds" />
          </mxGeometry>
        </mxCell>
        <mxCell id="KqZBCw7qDT3EIS-g3Wz3-205" value="" style="shape=tableRow;horizontal=0;startSize=0;swimlaneHead=0;swimlaneBody=0;fillColor=none;collapsible=0;dropTarget=0;points=[[0,0.5],[1,0.5]];portConstraint=eastwest;top=0;left=0;right=0;bottom=0;html=1;strokeColor=#000000;" vertex="1" parent="KqZBCw7qDT3EIS-g3Wz3-198">
          <mxGeometry y="180" width="240" height="30" as="geometry" />
        </mxCell>
        <mxCell id="KqZBCw7qDT3EIS-g3Wz3-206" value="" style="shape=partialRectangle;connectable=0;fillColor=none;top=0;left=0;bottom=0;right=0;editable=1;overflow=hidden;html=1;whiteSpace=wrap;strokeColor=#000000;" vertex="1" parent="KqZBCw7qDT3EIS-g3Wz3-205">
          <mxGeometry width="60" height="30" as="geometry">
            <mxRectangle width="60" height="30" as="alternateBounds" />
          </mxGeometry>
        </mxCell>
        <mxCell id="KqZBCw7qDT3EIS-g3Wz3-207" value="ComisiónBazar: numeric(10,2)" style="shape=partialRectangle;connectable=0;fillColor=none;top=0;left=0;bottom=0;right=0;align=left;spacingLeft=6;overflow=hidden;html=1;whiteSpace=wrap;strokeColor=#000000;" vertex="1" parent="KqZBCw7qDT3EIS-g3Wz3-205">
          <mxGeometry x="60" width="180" height="30" as="geometry">
            <mxRectangle width="180" height="30" as="alternateBounds" />
          </mxGeometry>
        </mxCell>
        <mxCell id="mkatI54Gl-YIdTG9t-Bd-1" value="" style="fontSize=12;html=1;endArrow=ERoneToMany;startArrow=ERzeroToOne;rounded=1;strokeColor=#000000;exitX=0;exitY=0.5;exitDx=0;exitDy=0;entryX=1;entryY=0.5;entryDx=0;entryDy=0;edgeStyle=orthogonalEdgeStyle;" edge="1" parent="1" source="KqZBCw7qDT3EIS-g3Wz3-72" target="lPWEa0LkZSCRpqWwWUgu-73">
          <mxGeometry width="100" height="100" relative="1" as="geometry">
            <mxPoint x="1479" y="-953" as="sourcePoint" />
            <mxPoint x="451" y="-1350" as="targetPoint" />
            <Array as="points">
              <mxPoint x="1323" y="-950" />
              <mxPoint x="1323" y="-859" />
              <mxPoint x="818" y="-859" />
              <mxPoint x="818" y="-1335" />
            </Array>
          </mxGeometry>
        </mxCell>
      </root>
    </mxGraphModel>
  </diagram>
</mxfile>
